<svg width="50" height="44" viewBox="0 0 50 44" fill="none" xmlns="http://www.w3.org/2000/svg">
<g clip-path="url(#clip0)">
<path d="M49.2654 19.6428C49.2654 32.0396 35.6201 42.7231 24.5028 42.7231C13.3855 42.7231 1.95502 34.3893 1.95502 21.9924C1.95502 9.59566 9.90344 0.482337 20.5273 0.196421C34.6399 -0.183388 49.2654 7.24606 49.2654 19.6428Z" fill="#BBBBBB" fill-opacity="0.6"/>
<path d="M47.2126 20.7232C47.2126 32.8735 29.5764 42.4285 19.7491 42.4285C9.92164 42.4285 0 33.9538 0 21.8036C0 9.6533 6.30115 2.0625 16.1285 2.0625C25.9559 2.0625 47.2126 8.57294 47.2126 20.7232Z" fill="#424B76"/>
<path d="M23.8236 9.89648C25.9726 9.89648 27.6739 10.3913 28.9275 11.381C30.1811 12.3481 30.8078 13.6527 30.8078 15.2946C30.8078 17.9261 29.7334 19.7592 27.5844 20.7939C30.4945 21.806 31.9495 23.6728 31.9495 26.3944C31.9495 28.4411 31.0765 30.1505 29.3304 31.5226C27.5844 32.8721 25.3906 33.5468 22.7491 33.5468C21.3612 33.5468 19.2906 33.4231 16.5372 33.1757L16.9401 24.9774L16.5372 9.89648H23.8236ZM23.3871 23.1555H20.6673L20.6337 24.4038L20.8687 29.9031C22.1671 30.0156 23.1632 30.0718 23.8572 30.0718C25.0436 30.0718 25.9614 29.7794 26.6106 29.1946C27.2822 28.5873 27.6179 27.7102 27.6179 26.5631C27.6179 25.416 27.2822 24.5613 26.6106 23.999C25.939 23.4367 24.8645 23.1555 23.3871 23.1555ZM22.6148 13.304H20.9695L20.768 19.8829H22.9506C24.0922 19.8829 24.9653 19.5793 25.5697 18.972C26.1741 18.3422 26.4763 17.4538 26.4763 16.3067C26.4763 14.3049 25.1891 13.304 22.6148 13.304Z" fill="white"/>
</g>
<defs>
<clipPath id="clip0">
<rect width="49.3878" height="44" fill="white"/>
</clipPath>
</defs>
</svg>
