<svg width="1440" height="1024" viewBox="0 0 1440 1024" fill="none" xmlns="http://www.w3.org/2000/svg">
<g clip-path="url(#clip0)">
<rect width="1440" height="1024" fill="url(#paint0_linear)"/>
<path d="M1415.61 1037.66C1462.32 1010.86 1478.46 951.274 1451.66 904.568C1424.86 857.862 1365.27 841.724 1318.57 868.523C1271.86 895.321 1255.72 954.908 1282.52 1001.61C1309.32 1048.32 1368.91 1064.46 1415.61 1037.66Z" stroke="#FC7E5B" stroke-opacity="0.12" stroke-width="9" stroke-miterlimit="10"/>
<path d="M1376.1 919.818L1333.82 944.08L1358.08 986.364L1400.36 962.102L1376.1 919.818Z" stroke="#FC7E5B" stroke-opacity="0.12" stroke-width="9" stroke-linecap="round" stroke-linejoin="round"/>
<path d="M1051.46 779.536L988.536 842.464C986.583 844.417 986.583 847.583 988.536 849.536L1051.46 912.464C1053.42 914.417 1056.58 914.417 1058.54 912.464L1121.46 849.536C1123.42 847.583 1123.42 844.417 1121.46 842.464L1058.54 779.536C1056.58 777.583 1053.42 777.583 1051.46 779.536Z" stroke="#FC7E5B" stroke-opacity="0.1" stroke-width="12" stroke-linecap="round" stroke-linejoin="round"/>
<g clip-path="url(#clip1)">
<path d="M191.763 242.383L129.867 261.621C128.374 262.085 126.759 261.937 125.376 261.21C123.992 260.483 122.955 259.236 122.491 257.743L103.252 195.847C100.496 186.98 99.5136 177.656 100.361 168.409C101.208 159.162 103.868 150.173 108.189 141.954C112.51 133.735 118.408 126.447 125.546 120.508C132.683 114.568 140.921 110.092 149.788 107.336L149.788 107.336C158.656 104.58 167.979 103.597 177.226 104.444C186.473 105.291 195.463 107.952 203.682 112.273C211.901 116.594 219.188 122.492 225.128 129.63C231.068 136.767 235.543 145.005 238.299 153.872L238.299 153.872C243.866 171.78 242.09 191.166 233.363 207.765C224.635 224.364 209.672 236.817 191.763 242.383Z" stroke="#FC7E5B" stroke-opacity="0.08" stroke-width="13" stroke-linecap="round" stroke-linejoin="round"/>
</g>
<path d="M171.5 632.875C209.815 632.875 240.875 601.815 240.875 563.5C240.875 525.185 209.815 494.125 171.5 494.125C133.185 494.125 102.125 525.185 102.125 563.5C102.125 601.815 133.185 632.875 171.5 632.875Z" stroke="#FC7E5B" stroke-opacity="0.2" stroke-width="24" stroke-miterlimit="10"/>
<g clip-path="url(#clip2)">
<path d="M275.839 831.85L243.317 920.648C242.898 921.792 242.042 922.723 240.937 923.235C239.832 923.748 238.568 923.8 237.424 923.381L148.626 890.86C147.773 890.547 147.032 889.989 146.496 889.255C145.96 888.521 145.654 887.645 145.616 886.737C145.578 885.829 145.811 884.931 146.284 884.155C146.756 883.379 147.449 882.761 148.273 882.379L269.593 826.103C270.417 825.721 271.336 825.591 272.234 825.731C273.131 825.871 273.967 826.274 274.636 826.89C275.305 827.505 275.776 828.304 275.99 829.187C276.204 830.07 276.152 830.997 275.839 831.85Z" stroke="#FC7E5B" stroke-opacity="0.1" stroke-width="8" stroke-linecap="round" stroke-linejoin="round"/>
</g>
<path d="M519 327.25C556.693 327.25 587.25 296.693 587.25 259C587.25 221.307 556.693 190.75 519 190.75C481.307 190.75 450.75 221.307 450.75 259C450.75 296.693 481.307 327.25 519 327.25Z" stroke="#FC7E5B" stroke-opacity="0.22" stroke-width="5" stroke-miterlimit="10"/>
<path d="M519 304.5C544.129 304.5 564.5 284.129 564.5 259C564.5 233.871 544.129 213.5 519 213.5C493.871 213.5 473.5 233.871 473.5 259C473.5 284.129 493.871 304.5 519 304.5Z" stroke="#FC7E5B" stroke-opacity="0.22" stroke-width="5" stroke-miterlimit="10"/>
<g clip-path="url(#clip3)">
<path d="M1026.62 486.568L985.912 497.476C985.325 497.634 984.775 497.905 984.293 498.274C983.811 498.644 983.407 499.105 983.103 499.631L962.03 536.131C961.726 536.657 961.529 537.238 961.45 537.84C961.371 538.442 961.411 539.054 961.568 539.641L972.476 580.351C972.633 580.937 972.905 581.487 973.274 581.969C973.644 582.451 974.105 582.855 974.631 583.159L1011.13 604.232C1011.66 604.536 1012.24 604.733 1012.84 604.812C1013.44 604.891 1014.05 604.851 1014.64 604.694L1055.35 593.786C1055.94 593.629 1056.49 593.357 1056.97 592.988C1057.45 592.618 1057.86 592.157 1058.16 591.631L1079.23 555.131C1079.54 554.605 1079.73 554.025 1079.81 553.422C1079.89 552.82 1079.85 552.208 1079.69 551.622L1068.79 510.912C1068.63 510.325 1068.36 509.775 1067.99 509.293C1067.62 508.811 1067.16 508.407 1066.63 508.103L1030.13 487.03C1029.61 486.726 1029.02 486.529 1028.42 486.45C1027.82 486.371 1027.21 486.411 1026.62 486.568Z" stroke="#FC7E5B" stroke-opacity="0.15" stroke-width="8" stroke-miterlimit="10"/>
</g>
<path d="M700.891 746.94V694.06C700.891 693.269 700.68 692.492 700.282 691.808C699.883 691.125 699.31 690.56 698.621 690.17L651.699 663.649C651.028 663.27 650.271 663.071 649.5 663.071C648.729 663.071 647.972 663.27 647.301 663.649L600.379 690.17C599.69 690.56 599.117 691.125 598.718 691.808C598.32 692.492 598.109 693.269 598.109 694.06V746.94C598.109 747.731 598.32 748.508 598.718 749.192C599.117 749.875 599.69 750.44 600.379 750.83L647.301 777.351C647.972 777.73 648.729 777.929 649.5 777.929C650.271 777.929 651.028 777.73 651.699 777.351L698.621 750.83C699.31 750.44 699.883 749.875 700.282 749.192C700.68 748.508 700.891 747.731 700.891 746.94V746.94Z" stroke="#FC7E5B" stroke-opacity="0.2" stroke-width="17" stroke-linecap="round" stroke-linejoin="round"/>
<g clip-path="url(#clip4)">
<path d="M1314.38 290.215L1296.39 223.064C1296.12 222.059 1295.59 221.144 1294.85 220.412C1294.11 219.679 1293.19 219.156 1292.18 218.896L1223.57 201.184C1222.59 200.93 1221.56 200.935 1220.58 201.197C1219.61 201.459 1218.71 201.97 1217.99 202.68L1167.43 252.325C1166.69 253.054 1166.15 253.966 1165.88 254.97C1165.6 255.974 1165.6 257.032 1165.87 258.037L1183.86 325.188C1184.13 326.193 1184.66 327.108 1185.4 327.84C1186.14 328.573 1187.06 329.096 1188.07 329.356L1256.68 347.069C1257.66 347.322 1258.69 347.317 1259.67 347.055C1260.65 346.793 1261.54 346.282 1262.26 345.572L1312.82 295.927C1313.57 295.199 1314.1 294.286 1314.38 293.282C1314.65 292.278 1314.65 291.22 1314.38 290.215V290.215Z" stroke="#FC7E5B" stroke-opacity="0.1" stroke-width="14" stroke-linecap="round" stroke-linejoin="round"/>
<path d="M1246.97 299.663C1261.07 295.884 1269.44 281.387 1265.66 267.283C1261.88 253.18 1247.39 244.81 1233.28 248.589C1219.18 252.368 1210.81 266.865 1214.59 280.969C1218.37 295.072 1232.86 303.442 1246.97 299.663Z" stroke="#FC7E5B" stroke-opacity="0.1" stroke-width="14" stroke-linecap="round" stroke-linejoin="round"/>
</g>
</g>
<defs>
<linearGradient id="paint0_linear" x1="720" y1="0" x2="720" y2="1024" gradientUnits="userSpaceOnUse">
<stop stop-color="#FFF6F1"/>
<stop offset="1" stop-color="#FFF2EE"/>
</linearGradient>
<clipPath id="clip0">
<rect width="1440" height="1024" fill="white"/>
</clipPath>
<clipPath id="clip1">
<rect width="196.758" height="196.758" fill="white" transform="translate(45.6086 113.968) rotate(-17.2661)"/>
</clipPath>
<clipPath id="clip2">
<rect width="147" height="147" fill="white" transform="translate(176.554 769) rotate(20.1151)"/>
</clipPath>
<clipPath id="clip3">
<rect width="148" height="148" fill="white" transform="translate(930 493.305) rotate(-15)"/>
</clipPath>
<clipPath id="clip4">
<rect width="188" height="188" fill="white" transform="translate(1125 207.658) rotate(-15)"/>
</clipPath>
</defs>
</svg>
