<svg width="49" height="44" viewBox="0 0 353 313" fill="none" xmlns="http://www.w3.org/2000/svg">
<path d="M352.125 139.732C352.125 227.918 254.595 303.917 175.134 303.917C95.6727 303.917 13.9732 244.633 13.9732 156.446C13.9732 68.2601 70.7847 3.43124 146.719 1.39734C247.589 -1.30448 352.125 51.5459 352.125 139.732Z" fill="#8BD3DD" fill-opacity="0.6"/>
<path d="M337.453 147.417C337.453 233.85 211.398 301.821 141.157 301.821C70.9151 301.821 0 241.535 0 155.103C0 68.6701 45.0376 14.6719 115.279 14.6719C185.52 14.6719 337.453 60.9848 337.453 147.417Z" fill="#35D5C1" fill-opacity="0.4"/>
<path d="M170.28 70.4C185.64 70.4 197.8 73.92 206.76 80.96C215.72 87.84 220.2 97.12 220.2 108.8C220.2 127.52 212.52 140.56 197.16 147.92C217.96 155.12 228.36 168.4 228.36 187.76C228.36 202.32 222.12 214.48 209.64 224.24C197.16 233.84 181.48 238.64 162.6 238.64C152.68 238.64 137.88 237.76 118.2 236L121.08 177.68L118.2 70.4H170.28ZM167.16 164.72H147.72L147.48 173.6L149.16 212.72C158.44 213.52 165.56 213.92 170.52 213.92C179 213.92 185.56 211.84 190.2 207.68C195 203.36 197.4 197.12 197.4 188.96C197.4 180.8 195 174.72 190.2 170.72C185.4 166.72 177.72 164.72 167.16 164.72ZM161.64 94.64H149.88L148.44 141.44H164.04C172.2 141.44 178.44 139.28 182.76 134.96C187.08 130.48 189.24 124.16 189.24 116C189.24 101.76 180.04 94.64 161.64 94.64Z" fill="white"/>
</svg>
