<svg width="24" height="24" viewBox="0 0 24 24" fill="none" xmlns="http://www.w3.org/2000/svg">
<path d="M21 7H3C1.89543 7 1 7.89543 1 9V19C1 20.1046 1.89543 21 3 21H21C22.1046 21 23 20.1046 23 19V9C23 7.89543 22.1046 7 21 7Z" stroke="#333333" stroke-width="1.5"/>
<path fill-rule="evenodd" clip-rule="evenodd" d="M13 3.73244V7H11V3.73244C10.4022 3.38663 10 2.74028 10 2C10 0.89543 10.8954 0 12 0C13.1046 0 14 0.89543 14 2C14 2.74028 13.5978 3.38663 13 3.73244Z" fill="#333333"/>
<path fill-rule="evenodd" clip-rule="evenodd" d="M18 14C16.8954 14 16 13.1046 16 12C16 10.8954 16.8954 10 18 10C19.1046 10 20 10.8954 20 12C20 13.1046 19.1046 14 18 14ZM6 14C4.89543 14 4 13.1046 4 12C4 10.8954 4.89543 10 6 10C7.10457 10 8 10.8954 8 12C8 13.1046 7.10457 14 6 14Z" fill="#333333"/>
<path d="M10 15C10 16.1046 10.8954 17 12 17C13.1046 17 14 16.1046 14 15" stroke="#333333" stroke-width="2" stroke-linecap="round" stroke-linejoin="round"/>
</svg>
