<svg width="24" height="24" viewBox="0 0 24 24" fill="none" xmlns="http://www.w3.org/2000/svg">
<path fill-rule="evenodd" clip-rule="evenodd" d="M20 15.6631C20 18.1652 20 20.4948 20 20.4948C20 21.059 19.652 21.2216 19.2227 20.8782L18.2773 20.1218C17.8476 19.7781 17.152 19.7784 16.7227 20.1218L15.7773 20.8782C15.3476 21.2219 14.6259 21.2506 14.1643 20.9429L12.8357 20.0571C12.3679 19.7452 11.6259 19.7494 11.1643 20.0571L9.83567 20.9429C9.36786 21.2548 8.65199 21.2216 8.22269 20.8782L7.27731 20.1218C6.84761 19.7781 6.15199 19.7784 5.72269 20.1218L4.77731 20.8782C4.34761 21.2219 4 21.0482 4 20.4908C4 20.4908 4 18.3379 4 15.6631C2.81521 15.1875 1 14.1841 1 12.5C1 10.5947 3.0328 10.7223 4 10.8908C4 10.5882 4 10.2905 4 10C4 5.58172 7.58172 2 12 2C16.4183 2 20 5.58172 20 10C20 10.2178 20 10.5222 20 10.8908C20.9672 10.7223 23 10.5947 23 12.5C23 14.1841 21.1848 15.1875 20 15.6631Z" stroke="#333333" stroke-width="1.5" stroke-linejoin="round"/>
<path fill-rule="evenodd" clip-rule="evenodd" d="M9.5 11C8.67157 11 8 10.3284 8 9.5C8 8.67157 8.67157 8 9.5 8C10.3284 8 11 8.67157 11 9.5C11 10.3284 10.3284 11 9.5 11ZM12 14C11.4477 14 11 13.5523 11 13C11 12.4477 11.4477 12 12 12C12.5523 12 13 12.4477 13 13C13 13.5523 12.5523 14 12 14ZM14.5 11C13.6716 11 13 10.3284 13 9.5C13 8.67157 13.6716 8 14.5 8C15.3284 8 16 8.67157 16 9.5C16 10.3284 15.3284 11 14.5 11Z" fill="#333333"/>
</svg>
