<?xml version="1.0" encoding="UTF-8" standalone="no"?>
<!DOCTYPE svg PUBLIC "-//W3C//DTD SVG 1.1//EN" "http://www.w3.org/Graphics/SVG/1.1/DTD/svg11.dtd">
<svg width="383px" height="377px" version="1.1" xmlns="http://www.w3.org/2000/svg" xmlns:xlink="http://www.w3.org/1999/xlink" xml:space="preserve" xmlns:serif="http://www.serif.com/" style="fill-rule:evenodd;clip-rule:evenodd;stroke-linejoin:round;stroke-miterlimit:2;">
    <g transform="matrix(1,0,0,1,-2071.07,-182.898)">
        <g id="_2big" serif:id="2big" transform="matrix(-0.189659,-0.334643,0.365466,-0.207128,2501.41,938.042)">
            <path d="M1622.05,583.383L1534.75,583.383L1556.58,420.048L1600.22,420.048L1622.05,583.383Z" style="fill:rgb(255,192,0);"/>
        </g>
        <g id="_4big" serif:id="4big" transform="matrix(0.342644,-0.17479,0.199194,0.390483,1687.17,575.978)">
            <path d="M1622.05,583.383L1534.75,583.383L1556.58,420.048L1600.22,420.048L1622.05,583.383Z" style="fill:rgb(255,192,0);"/>
        </g>
        <g id="_8big" serif:id="8big" transform="matrix(-0.343417,0.173266,-0.177636,-0.352078,2834.59,151.706)">
            <path d="M1622.05,583.383L1534.75,583.383L1556.58,420.048L1600.22,420.048L1622.05,583.383Z" style="fill:rgb(255,192,0);"/>
        </g>
        <g id="_6big" serif:id="6big" transform="matrix(0.187419,0.335903,-0.361977,0.201967,2022.92,-200.32)">
            <path d="M1622.05,583.383L1534.75,583.383L1556.58,420.048L1600.22,420.048L1622.05,583.383Z" style="fill:rgb(255,192,0);"/>
        </g>
        <g id="_3big" serif:id="3big" transform="matrix(0.112473,-0.330597,0.332719,0.113195,2044.69,876.352)">
            <path d="M1622.05,583.383L1534.75,583.383L1556.58,420.048L1600.22,420.048L1622.05,583.383Z" style="fill:rgb(255,214,0);"/>
        </g>
        <g id="_7big" serif:id="7big" transform="matrix(0.124178,-0.32638,-0.308585,-0.117407,2094.67,901.092)">
            <path d="M1622.05,583.383L1534.75,583.383L1556.58,420.048L1600.22,420.048L1622.05,583.383Z" style="fill:rgb(255,214,0);"/>
        </g>
        <g id="_1big" serif:id="1big" transform="matrix(0.331747,0.109034,0.102688,-0.312439,1728.31,234.76)">
            <path d="M1622.05,583.383L1534.75,583.383L1556.58,420.048L1600.22,420.048L1622.05,583.383Z" style="fill:rgb(255,214,0);"/>
        </g>
        <g id="_5big" serif:id="5big" transform="matrix(0.324746,0.128391,-0.127765,0.323163,1767.9,128.547)">
            <path d="M1622.05,583.383L1534.75,583.383L1556.58,420.048L1600.22,420.048L1622.05,583.383Z" style="fill:rgb(255,214,0);"/>
        </g>
        <g id="_1" serif:id="1" transform="matrix(0.154496,0.303065,-0.303065,0.154496,2262.6,-138.488)">
            <path d="M1062.18,560.475L834.487,452.512" style="fill:none;"/>
            <path d="M1062.65,559.496C1062.65,559.496 1043.19,549.319 1015.61,535.186C1009.25,531.93 1002.47,528.474 995.38,524.911C986.71,520.556 977.606,516.012 968.294,511.455C962.304,508.524 956.233,505.584 950.133,502.703C944.033,499.822 937.903,497.006 931.835,494.238C922.403,489.934 913.122,485.765 904.253,481.827C865.516,464.627 834.979,451.475 834.979,451.475C834.406,451.204 833.721,451.448 833.45,452.02C833.179,452.593 833.423,453.277 833.995,453.549C833.995,453.549 863.505,468.869 901.339,487.974C910,492.348 919.103,496.896 928.404,501.474C934.388,504.42 940.447,507.384 946.538,510.284C952.629,513.183 958.749,516.023 964.809,518.805C974.23,523.131 983.51,527.304 992.37,531.261C999.618,534.497 1006.59,537.56 1013.13,540.419C1041.53,552.83 1061.72,561.453 1061.72,561.453C1062.26,561.709 1062.91,561.478 1063.16,560.938C1063.42,560.398 1063.19,559.752 1062.65,559.496Z" style="fill:rgb(255,238,114);"/>
        </g>
        <g id="_2" serif:id="2" transform="matrix(-0.0741287,0.331997,-0.331997,-0.0741287,2596.04,-21.8036)">
            <path d="M1062.18,560.475L834.487,452.512" style="fill:none;"/>
            <path d="M1062.65,559.496C1062.65,559.496 1043.19,549.319 1015.61,535.186C1009.25,531.93 1002.47,528.474 995.38,524.911C986.71,520.556 977.606,516.012 968.294,511.455C962.304,508.524 956.233,505.584 950.133,502.703C944.033,499.822 937.903,497.006 931.835,494.238C922.403,489.934 913.122,485.765 904.253,481.827C865.516,464.627 834.979,451.475 834.979,451.475C834.406,451.204 833.721,451.448 833.45,452.02C833.179,452.593 833.423,453.277 833.995,453.549C833.995,453.549 863.505,468.869 901.339,487.974C910,492.348 919.103,496.896 928.404,501.474C934.388,504.42 940.447,507.384 946.538,510.284C952.629,513.183 958.749,516.023 964.809,518.805C974.23,523.131 983.51,527.304 992.37,531.261C999.618,534.497 1006.59,537.56 1013.13,540.419C1041.53,552.83 1061.72,561.453 1061.72,561.453C1062.26,561.709 1062.91,561.478 1063.16,560.938C1063.42,560.398 1063.19,559.752 1062.65,559.496Z" style="fill:rgb(255,238,114);"/>
        </g>
        <g id="_3" serif:id="3" transform="matrix(-0.310106,0.139827,-0.139827,-0.310106,2773.97,382.189)">
            <path d="M1062.18,560.475L834.487,452.512" style="fill:none;"/>
            <path d="M1062.65,559.496C1062.65,559.496 1043.19,549.319 1015.61,535.186C1009.25,531.93 1002.47,528.474 995.38,524.911C986.71,520.556 977.606,516.012 968.294,511.455C962.304,508.524 956.233,505.584 950.133,502.703C944.033,499.822 937.903,497.006 931.835,494.238C922.403,489.934 913.122,485.765 904.253,481.827C865.516,464.627 834.979,451.475 834.979,451.475C834.406,451.204 833.721,451.448 833.45,452.02C833.179,452.593 833.423,453.277 833.995,453.549C833.995,453.549 863.505,468.869 901.339,487.974C910,492.348 919.103,496.896 928.404,501.474C934.388,504.42 940.447,507.384 946.538,510.284C952.629,513.183 958.749,516.023 964.809,518.805C974.23,523.131 983.51,527.304 992.37,531.261C999.618,534.497 1006.59,537.56 1013.13,540.419C1041.53,552.83 1061.72,561.453 1061.72,561.453C1062.26,561.709 1062.91,561.478 1063.16,560.938C1063.42,560.398 1063.19,559.752 1062.65,559.496Z" style="fill:rgb(255,238,114);"/>
        </g>
        <g id="_4" serif:id="4" transform="matrix(-0.320447,-0.114153,0.114153,-0.320447,2621.16,737.552)">
            <path d="M1062.18,560.475L834.487,452.512" style="fill:none;"/>
            <path d="M1062.65,559.496C1062.65,559.496 1043.19,549.319 1015.61,535.186C1009.25,531.93 1002.47,528.474 995.38,524.911C986.71,520.556 977.606,516.012 968.294,511.455C962.304,508.524 956.233,505.584 950.133,502.703C944.033,499.822 937.903,497.006 931.835,494.238C922.403,489.934 913.122,485.765 904.253,481.827C865.516,464.627 834.979,451.475 834.979,451.475C834.406,451.204 833.721,451.448 833.45,452.02C833.179,452.593 833.423,453.277 833.995,453.549C833.995,453.549 863.505,468.869 901.339,487.974C910,492.348 919.103,496.896 928.404,501.474C934.388,504.42 940.447,507.384 946.538,510.284C952.629,513.183 958.749,516.023 964.809,518.805C974.23,523.131 983.51,527.304 992.37,531.261C999.618,534.497 1006.59,537.56 1013.13,540.419C1041.53,552.83 1061.72,561.453 1061.72,561.453C1062.26,561.709 1062.91,561.478 1063.16,560.938C1063.42,560.398 1063.19,559.752 1062.65,559.496Z" style="fill:rgb(255,238,114);"/>
        </g>
        <g id="_5" serif:id="5" transform="matrix(-0.144931,-0.307753,0.307753,-0.144931,2252.42,880.767)">
            <path d="M1062.18,560.475L834.487,452.512" style="fill:none;"/>
            <path d="M1062.65,559.496C1062.65,559.496 1043.19,549.319 1015.61,535.186C1009.25,531.93 1002.47,528.474 995.38,524.911C986.71,520.556 977.606,516.012 968.294,511.455C962.304,508.524 956.233,505.584 950.133,502.703C944.033,499.822 937.903,497.006 931.835,494.238C922.403,489.934 913.122,485.765 904.253,481.827C865.516,464.627 834.979,451.475 834.979,451.475C834.406,451.204 833.721,451.448 833.45,452.02C833.179,452.593 833.423,453.277 833.995,453.549C833.995,453.549 863.505,468.869 901.339,487.974C910,492.348 919.103,496.896 928.404,501.474C934.388,504.42 940.447,507.384 946.538,510.284C952.629,513.183 958.749,516.023 964.809,518.805C974.23,523.131 983.51,527.304 992.37,531.261C999.618,534.497 1006.59,537.56 1013.13,540.419C1041.53,552.83 1061.72,561.453 1061.72,561.453C1062.26,561.709 1062.91,561.478 1063.16,560.938C1063.42,560.398 1063.19,559.752 1062.65,559.496Z" style="fill:rgb(255,238,114);"/>
        </g>
        <g id="_6" serif:id="6" transform="matrix(0.0879562,-0.328605,0.328605,0.0879562,1911.4,745.633)">
            <path d="M1062.18,560.475L834.487,452.512" style="fill:none;"/>
            <path d="M1062.65,559.496C1062.65,559.496 1043.19,549.319 1015.61,535.186C1009.25,531.93 1002.47,528.474 995.38,524.911C986.71,520.556 977.606,516.012 968.294,511.455C962.304,508.524 956.233,505.584 950.133,502.703C944.033,499.822 937.903,497.006 931.835,494.238C922.403,489.934 913.122,485.765 904.253,481.827C865.516,464.627 834.979,451.475 834.979,451.475C834.406,451.204 833.721,451.448 833.45,452.02C833.179,452.593 833.423,453.277 833.995,453.549C833.995,453.549 863.505,468.869 901.339,487.974C910,492.348 919.103,496.896 928.404,501.474C934.388,504.42 940.447,507.384 946.538,510.284C952.629,513.183 958.749,516.023 964.809,518.805C974.23,523.131 983.51,527.304 992.37,531.261C999.618,534.497 1006.59,537.56 1013.13,540.419C1041.53,552.83 1061.72,561.453 1061.72,561.453C1062.26,561.709 1062.91,561.478 1063.16,560.938C1063.42,560.398 1063.19,559.752 1062.65,559.496Z" style="fill:rgb(255,238,114);"/>
        </g>
        <g id="_7" serif:id="7" transform="matrix(0.298977,-0.162265,0.162265,0.298977,1749.58,379.184)">
            <path d="M1062.18,560.475L834.487,452.512" style="fill:none;"/>
            <path d="M1062.65,559.496C1062.65,559.496 1043.19,549.319 1015.61,535.186C1009.25,531.93 1002.47,528.474 995.38,524.911C986.71,520.556 977.606,516.012 968.294,511.455C962.304,508.524 956.233,505.584 950.133,502.703C944.033,499.822 937.903,497.006 931.835,494.238C922.403,489.934 913.122,485.765 904.253,481.827C865.516,464.627 834.979,451.475 834.979,451.475C834.406,451.204 833.721,451.448 833.45,452.02C833.179,452.593 833.423,453.277 833.995,453.549C833.995,453.549 863.505,468.869 901.339,487.974C910,492.348 919.103,496.896 928.404,501.474C934.388,504.42 940.447,507.384 946.538,510.284C952.629,513.183 958.749,516.023 964.809,518.805C974.23,523.131 983.51,527.304 992.37,531.261C999.618,534.497 1006.59,537.56 1013.13,540.419C1041.53,552.83 1061.72,561.453 1061.72,561.453C1062.26,561.709 1062.91,561.478 1063.16,560.938C1063.42,560.398 1063.19,559.752 1062.65,559.496Z" style="fill:rgb(255,238,114);"/>
        </g>
        <g id="_8" serif:id="8" transform="matrix(0.330656,0.0798975,-0.0798975,0.330656,1879.73,33.2732)">
            <path d="M1062.18,560.475L834.487,452.512" style="fill:none;"/>
            <path d="M1062.65,559.496C1062.65,559.496 1043.19,549.319 1015.61,535.186C1009.25,531.93 1002.47,528.474 995.38,524.911C986.71,520.556 977.606,516.012 968.294,511.455C962.304,508.524 956.233,505.584 950.133,502.703C944.033,499.822 937.903,497.006 931.835,494.238C922.403,489.934 913.122,485.765 904.253,481.827C865.516,464.627 834.979,451.475 834.979,451.475C834.406,451.204 833.721,451.448 833.45,452.02C833.179,452.593 833.423,453.277 833.995,453.549C833.995,453.549 863.505,468.869 901.339,487.974C910,492.348 919.103,496.896 928.404,501.474C934.388,504.42 940.447,507.384 946.538,510.284C952.629,513.183 958.749,516.023 964.809,518.805C974.23,523.131 983.51,527.304 992.37,531.261C999.618,534.497 1006.59,537.56 1013.13,540.419C1041.53,552.83 1061.72,561.453 1061.72,561.453C1062.26,561.709 1062.91,561.478 1063.16,560.938C1063.42,560.398 1063.19,559.752 1062.65,559.496Z" style="fill:rgb(255,238,114);"/>
        </g>
        <g transform="matrix(0.520394,0,0,0.520394,1590.1,34.6163)">
            <circle cx="1295.22" cy="649.26" r="176.241" style="fill:rgb(255,192,0);"/>
            <clipPath id="_clip1">
                <circle cx="1295.22" cy="649.26" r="176.241"/>
            </clipPath>
            <g clip-path="url(#_clip1)">
                <g transform="matrix(0.814946,0.350382,-0.324996,0.755902,465.521,-327.217)">
                    <circle cx="1295.22" cy="649.26" r="176.241" style="fill:rgb(255,219,0);"/>
                    <path d="M1295.22,472.885C1247.73,472.858 1204.59,491.645 1172.85,522.195C1139.51,554.29 1118.75,599.368 1118.73,649.26C1118.71,699.17 1139.45,744.282 1172.78,776.417C1204.52,807.02 1247.69,825.852 1295.22,825.863C1342.76,825.857 1385.93,807.031 1417.67,776.428C1451.01,744.292 1471.75,699.175 1471.73,649.26C1471.71,599.364 1450.94,554.283 1417.6,522.188C1385.85,491.642 1342.71,472.86 1295.22,472.892L1295.22,472.885ZM1295.22,473.147C1342.63,473.179 1385.67,491.979 1417.33,522.511C1450.54,554.551 1471.22,599.513 1471.19,649.26C1471.17,698.989 1450.48,743.914 1417.25,775.913C1385.6,806.39 1342.59,825.145 1295.22,825.139C1247.86,825.15 1204.84,806.4 1173.19,775.925C1139.95,743.925 1119.25,698.994 1119.24,649.26C1119.21,599.509 1139.89,554.545 1173.11,522.505C1204.77,491.976 1247.82,473.181 1295.22,473.154L1295.22,473.147Z" style="fill:rgb(255,192,0);"/>
                </g>
                <g transform="matrix(0.586152,0.336535,-0.29058,0.50611,757.669,-170.905)">
                    <circle cx="1295.22" cy="649.26" r="176.241" style="fill:rgb(255,238,133);"/>
                </g>
                <g>
                    <g transform="matrix(1,0,0,1,-2.76593,51.9993)">
                        <g transform="matrix(0.00450165,0.122951,-0.090028,0.00329624,1241.45,469.159)">
                            <circle cx="1295.22" cy="649.26" r="176.241"/>
                            <path d="M1295.22,472.864C1251.32,472.833 1211.13,488.887 1180.24,515.452C1142.61,547.814 1118.77,595.774 1118.75,649.26C1118.73,702.767 1142.56,750.772 1180.18,783.187C1211.08,809.803 1251.29,825.905 1295.22,825.918C1339.16,825.911 1379.37,809.817 1410.27,783.202C1447.9,750.787 1471.72,702.773 1471.71,649.26C1471.69,595.769 1447.85,547.804 1410.21,515.444C1379.32,488.883 1339.13,472.836 1295.22,472.873L1295.22,472.864ZM1295.22,473.166C1339.07,473.203 1379.18,489.292 1410.01,515.866C1447.49,548.168 1471.24,595.963 1471.22,649.26C1471.2,702.535 1447.43,750.283 1409.96,782.529C1379.13,809.05 1339.04,825.091 1295.22,825.084C1251.41,825.097 1211.31,809.063 1180.48,782.544C1143,750.297 1119.23,702.542 1119.21,649.26C1119.19,595.958 1142.95,548.158 1180.43,515.858C1211.26,489.288 1251.38,473.206 1295.22,473.175L1295.22,473.166Z" style="fill:rgb(255,192,0);"/>
                        </g>
                        <g transform="matrix(-0.0126003,0.0153014,-0.0317086,-0.0261113,1230.01,613.211)">
                            <circle cx="1295.22" cy="649.26" r="176.241" style="fill:white;"/>
                            <path d="M1295.22,472.918C1245.98,472.905 1201.38,493.089 1169.31,525.649C1137.97,557.476 1118.6,601.127 1118.55,649.26C1118.51,697.404 1137.81,741.072 1169.11,772.918C1201.18,805.553 1245.88,825.769 1295.22,825.775C1344.56,825.773 1389.28,805.559 1421.36,772.923C1452.66,741.077 1471.96,697.406 1471.92,649.26C1471.87,601.125 1452.49,557.473 1421.14,525.647C1389.07,493.09 1344.46,472.908 1295.22,472.923L1295.22,472.918ZM1295.22,473.116C1344.31,473.131 1388.68,493.301 1420.58,525.777C1451.81,557.581 1471.06,601.187 1471,649.26C1470.97,697.323 1451.64,740.91 1420.36,772.694C1388.48,805.092 1344.21,825.229 1295.22,825.227C1246.23,825.233 1201.95,805.097 1170.06,772.699C1138.78,740.915 1119.45,697.325 1119.41,649.26C1119.36,601.185 1138.62,557.578 1169.86,525.775C1201.76,493.301 1246.13,473.134 1295.22,473.121L1295.22,473.116Z" style="fill:rgb(255,192,0);"/>
                        </g>
                    </g>
                    <g transform="matrix(1,0,0,1,202.377,51.9993)">
                        <g transform="matrix(0.00450165,0.122951,-0.090028,0.00329624,1241.45,469.159)">
                            <circle cx="1295.22" cy="649.26" r="176.241"/>
                            <path d="M1295.22,472.864C1251.32,472.833 1211.13,488.887 1180.24,515.452C1142.61,547.814 1118.77,595.774 1118.75,649.26C1118.73,702.767 1142.56,750.772 1180.18,783.187C1211.08,809.803 1251.29,825.905 1295.22,825.918C1339.16,825.911 1379.37,809.817 1410.27,783.202C1447.9,750.787 1471.72,702.773 1471.71,649.26C1471.69,595.769 1447.85,547.804 1410.21,515.444C1379.32,488.883 1339.13,472.836 1295.22,472.873L1295.22,472.864ZM1295.22,473.166C1339.07,473.203 1379.18,489.292 1410.01,515.866C1447.49,548.168 1471.24,595.963 1471.22,649.26C1471.2,702.535 1447.43,750.283 1409.96,782.529C1379.13,809.05 1339.04,825.091 1295.22,825.084C1251.41,825.097 1211.31,809.063 1180.48,782.544C1143,750.297 1119.23,702.542 1119.21,649.26C1119.19,595.958 1142.95,548.158 1180.43,515.858C1211.26,489.288 1251.38,473.206 1295.22,473.175L1295.22,473.166Z" style="fill:rgb(255,192,0);"/>
                        </g>
                        <g transform="matrix(-0.0126003,0.0153014,-0.0317086,-0.0261113,1230.01,613.211)">
                            <circle cx="1295.22" cy="649.26" r="176.241" style="fill:white;"/>
                            <path d="M1295.22,472.918C1245.98,472.905 1201.38,493.089 1169.31,525.649C1137.97,557.476 1118.6,601.127 1118.55,649.26C1118.51,697.404 1137.81,741.072 1169.11,772.918C1201.18,805.553 1245.88,825.769 1295.22,825.775C1344.56,825.773 1389.28,805.559 1421.36,772.923C1452.66,741.077 1471.96,697.406 1471.92,649.26C1471.87,601.125 1452.49,557.473 1421.14,525.647C1389.07,493.09 1344.46,472.908 1295.22,472.923L1295.22,472.918ZM1295.22,473.116C1344.31,473.131 1388.68,493.301 1420.58,525.777C1451.81,557.581 1471.06,601.187 1471,649.26C1470.97,697.323 1451.64,740.91 1420.36,772.694C1388.48,805.092 1344.21,825.229 1295.22,825.227C1246.23,825.233 1201.95,805.097 1170.06,772.699C1138.78,740.915 1119.45,697.325 1119.41,649.26C1119.36,601.185 1138.62,557.578 1169.86,525.775C1201.76,493.301 1246.13,473.134 1295.22,473.121L1295.22,473.116Z" style="fill:rgb(255,192,0);"/>
                        </g>
                    </g>
                </g>
                <g>
                    <g transform="matrix(1,0,0,1,202.59,51.9993)">
                        <g transform="matrix(0.00450165,0.122951,-0.090028,0.00329624,1241.45,469.159)">
                            <circle cx="1295.22" cy="649.26" r="176.241"/>
                            <path d="M1295.22,472.864C1251.32,472.833 1211.13,488.887 1180.24,515.452C1142.61,547.814 1118.77,595.774 1118.75,649.26C1118.73,702.767 1142.56,750.772 1180.18,783.187C1211.08,809.803 1251.29,825.905 1295.22,825.918C1339.16,825.911 1379.37,809.817 1410.27,783.202C1447.9,750.787 1471.72,702.773 1471.71,649.26C1471.69,595.769 1447.85,547.804 1410.21,515.444C1379.32,488.883 1339.13,472.836 1295.22,472.873L1295.22,472.864ZM1295.22,473.166C1339.07,473.203 1379.18,489.292 1410.01,515.866C1447.49,548.168 1471.24,595.963 1471.22,649.26C1471.2,702.535 1447.43,750.283 1409.96,782.529C1379.13,809.05 1339.04,825.091 1295.22,825.084C1251.41,825.097 1211.31,809.063 1180.48,782.544C1143,750.297 1119.23,702.542 1119.21,649.26C1119.19,595.958 1142.95,548.158 1180.43,515.858C1211.26,489.288 1251.38,473.206 1295.22,473.175L1295.22,473.166Z" style="fill:rgb(255,192,0);"/>
                        </g>
                        <g transform="matrix(-0.0126003,0.0153014,-0.0317086,-0.0261113,1230.01,613.211)">
                            <circle cx="1295.22" cy="649.26" r="176.241" style="fill:white;"/>
                            <path d="M1295.22,472.918C1245.98,472.905 1201.38,493.089 1169.31,525.649C1137.97,557.476 1118.6,601.127 1118.55,649.26C1118.51,697.404 1137.81,741.072 1169.11,772.918C1201.18,805.553 1245.88,825.769 1295.22,825.775C1344.56,825.773 1389.28,805.559 1421.36,772.923C1452.66,741.077 1471.96,697.406 1471.92,649.26C1471.87,601.125 1452.49,557.473 1421.14,525.647C1389.07,493.09 1344.46,472.908 1295.22,472.923L1295.22,472.918ZM1295.22,473.116C1344.31,473.131 1388.68,493.301 1420.58,525.777C1451.81,557.581 1471.06,601.187 1471,649.26C1470.97,697.323 1451.64,740.91 1420.36,772.694C1388.48,805.092 1344.21,825.229 1295.22,825.227C1246.23,825.233 1201.95,805.097 1170.06,772.699C1138.78,740.915 1119.45,697.325 1119.41,649.26C1119.36,601.185 1138.62,557.578 1169.86,525.775C1201.76,493.301 1246.13,473.134 1295.22,473.121L1295.22,473.116Z" style="fill:rgb(255,192,0);"/>
                        </g>
                        <g transform="matrix(-0.0159539,0.02128,-0.00859634,-0.00644481,1209.11,591.971)">
                            <circle cx="1295.22" cy="649.26" r="176.241" style="fill:white;"/>
                            <path d="M1295.22,472.775C1248.95,472.714 1206.82,490.523 1175.35,519.679C1157.45,536.26 1143,556.514 1133.19,579.232C1123.92,600.706 1118.78,624.391 1118.78,649.26C1118.78,674.137 1123.9,697.84 1133.17,719.34C1142.98,742.089 1157.43,762.383 1175.33,779.007C1206.8,808.238 1248.94,826.13 1295.22,826.159C1341.51,826.142 1383.65,808.265 1415.12,779.038C1433.02,762.415 1447.48,742.116 1457.28,719.365C1466.56,697.857 1471.68,674.145 1471.68,649.26C1471.67,624.383 1466.54,600.69 1457.26,579.211C1447.45,556.492 1433,536.239 1415.1,519.662C1383.62,490.513 1341.49,472.716 1295.22,472.788L1295.22,472.775ZM1295.22,473.251C1341.45,473.323 1383.54,491.233 1414.98,520.453C1432.81,537.034 1447.22,557.254 1456.99,579.93C1466.16,601.21 1471.25,624.642 1471.25,649.26C1471.24,673.87 1466.15,697.284 1456.97,718.535C1447.19,741.179 1432.79,761.352 1414.95,777.888C1383.52,807.031 1341.44,824.86 1295.22,824.843C1249.01,824.872 1206.92,807.058 1175.49,777.92C1157.65,761.384 1143.24,741.207 1133.46,718.56C1124.29,697.302 1119.19,673.878 1119.18,649.26C1119.18,624.634 1124.27,601.194 1133.44,579.909C1143.22,557.232 1157.62,537.014 1175.46,520.435C1206.9,491.223 1248.99,473.325 1295.22,473.265L1295.22,473.251Z" style="fill:rgb(255,192,0);"/>
                        </g>
                        <g transform="matrix(0.00037192,0.0178615,-0.00634254,0.000132067,1190.33,595.366)">
                            <path d="M1378.74,271.848C1476.01,271.848 1452.06,691.234 1452.06,788.504C1452.06,885.774 1420.28,1246.61 1262.47,988.607C1178.35,851.079 1118.98,746.53 1118.98,649.26C1118.98,551.99 1281.47,271.848 1378.74,271.848Z" style="fill:white;"/>
                            <path d="M1378.74,271.574C1336.82,271.523 1282.77,323.471 1234.84,390.415C1192.34,449.757 1154.65,520.881 1134.44,577.99C1124.48,606.139 1118.77,630.943 1118.76,649.26C1118.76,691.52 1129.9,735.203 1149.41,782.309C1174.89,843.803 1214.63,911.219 1262.34,989.244C1316.93,1078.46 1356.46,1093.72 1384.82,1071.51C1413.14,1049.33 1430.34,989.798 1440.27,929.053C1449.21,874.383 1452.26,818.735 1452.26,788.504C1452.25,728.17 1461.43,543.939 1445.21,412.682C1435.26,332.149 1415.76,271.532 1378.74,271.589L1378.74,271.574ZM1378.74,272.106C1415.64,272.163 1435.06,332.639 1444.94,412.942C1461.1,544.148 1451.86,728.215 1451.85,788.504C1451.85,818.627 1448.79,874.068 1439.86,928.526C1429.97,988.932 1412.86,1048.14 1384.69,1070.17C1356.41,1092.28 1317.01,1076.95 1262.6,987.969C1214.92,910.046 1175.19,842.716 1149.72,781.298C1130.33,734.53 1119.2,691.242 1119.2,649.26C1119.2,631.143 1124.89,606.683 1134.73,578.823C1154.91,521.732 1192.55,450.613 1234.98,391.234C1282.86,324.23 1336.85,272.173 1378.74,272.122L1378.74,272.106Z" style="fill:rgb(255,192,0);"/>
                        </g>
                        <g transform="matrix(-0.017322,-0.0462374,-0.00717629,0.00268847,1204.5,696.956)">
                            <path d="M1412.63,204.037C1486.95,-60.382 1473.08,430.497 1473.08,527.767C1473.08,625.036 1392.49,825.501 1295.22,825.501C1197.95,825.501 1117.02,526.268 1117.02,428.998C1117.02,331.728 1337.53,471.198 1412.63,204.037Z" style="fill:white;"/>
                            <path d="M1412.59,203.542C1441.72,99.739 1457.34,112.09 1465.56,171.133C1478.34,262.963 1473.23,468.445 1473.24,527.767C1473.24,547.981 1469.82,572.763 1463.49,599.152C1452.52,644.92 1432.8,696.029 1407.31,738.212C1376.58,789.053 1337.48,826.939 1295.22,827.039C1252.03,827.059 1212.05,768.136 1180.94,694.008C1155.9,634.334 1136.61,564.796 1126,508.35C1122.51,489.762 1119.95,472.572 1118.44,457.608C1117.35,446.864 1116.8,437.219 1116.8,428.998C1116.8,425.254 1117.08,421.788 1117.65,418.644C1118.17,415.776 1118.93,413.145 1119.93,410.765C1123.16,403.086 1128.89,397.851 1136.59,394.182C1173.6,376.542 1256.34,394.648 1325.69,344.386C1360.54,319.121 1392.02,276.595 1412.58,203.513L1412.59,203.542ZM1412.67,204.56C1392.1,277.847 1360.6,320.663 1325.72,346.163C1256.38,396.845 1173.63,379.181 1136.62,397.012C1128.98,400.692 1123.29,405.865 1120.09,413.5C1119.15,415.738 1118.43,418.172 1117.94,420.866C1117.49,423.356 1117.25,426.034 1117.25,428.998C1117.25,436.769 1117.79,445.846 1118.82,455.997C1120.32,470.766 1122.84,487.707 1126.29,506.047C1136.88,562.314 1156.13,631.531 1181.11,691.025C1212.17,765.009 1252.09,823.944 1295.22,823.963C1337.43,824.063 1376.51,786.367 1407.21,735.752C1432.66,693.794 1452.36,642.967 1463.32,597.361C1469.52,571.547 1472.92,547.573 1472.92,527.767C1472.93,490.52 1474.97,395.537 1473.31,307.369C1472.34,255.567 1470.09,206.114 1465.38,172.199C1457.21,113.39 1441.68,101.491 1412.67,204.531L1412.67,204.56Z" style="fill:rgb(255,192,0);"/>
                        </g>
                    </g>
                    <g transform="matrix(1,0,0,1,-2.65551,51.9993)">
                        <g transform="matrix(0.00450165,0.122951,-0.090028,0.00329624,1241.45,469.159)">
                            <circle cx="1295.22" cy="649.26" r="176.241"/>
                            <path d="M1295.22,472.864C1251.32,472.833 1211.13,488.887 1180.24,515.452C1142.61,547.814 1118.77,595.774 1118.75,649.26C1118.73,702.767 1142.56,750.772 1180.18,783.187C1211.08,809.803 1251.29,825.905 1295.22,825.918C1339.16,825.911 1379.37,809.817 1410.27,783.202C1447.9,750.787 1471.72,702.773 1471.71,649.26C1471.69,595.769 1447.85,547.804 1410.21,515.444C1379.32,488.883 1339.13,472.836 1295.22,472.873L1295.22,472.864ZM1295.22,473.166C1339.07,473.203 1379.18,489.292 1410.01,515.866C1447.49,548.168 1471.24,595.963 1471.22,649.26C1471.2,702.535 1447.43,750.283 1409.96,782.529C1379.13,809.05 1339.04,825.091 1295.22,825.084C1251.41,825.097 1211.31,809.063 1180.48,782.544C1143,750.297 1119.23,702.542 1119.21,649.26C1119.19,595.958 1142.95,548.158 1180.43,515.858C1211.26,489.288 1251.38,473.206 1295.22,473.175L1295.22,473.166Z" style="fill:rgb(255,192,0);"/>
                        </g>
                        <g transform="matrix(-0.0126003,0.0153014,-0.0317086,-0.0261113,1230.01,613.211)">
                            <circle cx="1295.22" cy="649.26" r="176.241" style="fill:white;"/>
                            <path d="M1295.22,472.918C1245.98,472.905 1201.38,493.089 1169.31,525.649C1137.97,557.476 1118.6,601.127 1118.55,649.26C1118.51,697.404 1137.81,741.072 1169.11,772.918C1201.18,805.553 1245.88,825.769 1295.22,825.775C1344.56,825.773 1389.28,805.559 1421.36,772.923C1452.66,741.077 1471.96,697.406 1471.92,649.26C1471.87,601.125 1452.49,557.473 1421.14,525.647C1389.07,493.09 1344.46,472.908 1295.22,472.923L1295.22,472.918ZM1295.22,473.116C1344.31,473.131 1388.68,493.301 1420.58,525.777C1451.81,557.581 1471.06,601.187 1471,649.26C1470.97,697.323 1451.64,740.91 1420.36,772.694C1388.48,805.092 1344.21,825.229 1295.22,825.227C1246.23,825.233 1201.95,805.097 1170.06,772.699C1138.78,740.915 1119.45,697.325 1119.41,649.26C1119.36,601.185 1138.62,557.578 1169.86,525.775C1201.76,493.301 1246.13,473.134 1295.22,473.121L1295.22,473.116Z" style="fill:rgb(255,192,0);"/>
                        </g>
                        <g transform="matrix(-0.0159539,0.02128,-0.00859634,-0.00644481,1209.11,591.971)">
                            <circle cx="1295.22" cy="649.26" r="176.241" style="fill:white;"/>
                            <path d="M1295.22,472.775C1248.95,472.714 1206.82,490.523 1175.35,519.679C1157.45,536.26 1143,556.514 1133.19,579.232C1123.92,600.706 1118.78,624.391 1118.78,649.26C1118.78,674.137 1123.9,697.84 1133.17,719.34C1142.98,742.089 1157.43,762.383 1175.33,779.007C1206.8,808.238 1248.94,826.13 1295.22,826.159C1341.51,826.142 1383.65,808.265 1415.12,779.038C1433.02,762.415 1447.48,742.116 1457.28,719.365C1466.56,697.857 1471.68,674.145 1471.68,649.26C1471.67,624.383 1466.54,600.69 1457.26,579.211C1447.45,556.492 1433,536.239 1415.1,519.662C1383.62,490.513 1341.49,472.716 1295.22,472.788L1295.22,472.775ZM1295.22,473.251C1341.45,473.323 1383.54,491.233 1414.98,520.453C1432.81,537.034 1447.22,557.254 1456.99,579.93C1466.16,601.21 1471.25,624.642 1471.25,649.26C1471.24,673.87 1466.15,697.284 1456.97,718.535C1447.19,741.179 1432.79,761.352 1414.95,777.888C1383.52,807.031 1341.44,824.86 1295.22,824.843C1249.01,824.872 1206.92,807.058 1175.49,777.92C1157.65,761.384 1143.24,741.207 1133.46,718.56C1124.29,697.302 1119.19,673.878 1119.18,649.26C1119.18,624.634 1124.27,601.194 1133.44,579.909C1143.22,557.232 1157.62,537.014 1175.46,520.435C1206.9,491.223 1248.99,473.325 1295.22,473.265L1295.22,473.251Z" style="fill:rgb(255,192,0);"/>
                        </g>
                        <g transform="matrix(0.00037192,0.0178615,-0.00634254,0.000132067,1190.33,595.366)">
                            <path d="M1378.74,271.848C1476.01,271.848 1452.06,691.234 1452.06,788.504C1452.06,885.774 1420.28,1246.61 1262.47,988.607C1178.35,851.079 1118.98,746.53 1118.98,649.26C1118.98,551.99 1281.47,271.848 1378.74,271.848Z" style="fill:white;"/>
                            <path d="M1378.74,271.574C1336.82,271.523 1282.77,323.471 1234.84,390.415C1192.34,449.757 1154.65,520.881 1134.44,577.99C1124.48,606.139 1118.77,630.943 1118.76,649.26C1118.76,691.52 1129.9,735.203 1149.41,782.309C1174.89,843.803 1214.63,911.219 1262.34,989.244C1316.93,1078.46 1356.46,1093.72 1384.82,1071.51C1413.14,1049.33 1430.34,989.798 1440.27,929.053C1449.21,874.383 1452.26,818.735 1452.26,788.504C1452.25,728.17 1461.43,543.939 1445.21,412.682C1435.26,332.149 1415.76,271.532 1378.74,271.589L1378.74,271.574ZM1378.74,272.106C1415.64,272.163 1435.06,332.639 1444.94,412.942C1461.1,544.148 1451.86,728.215 1451.85,788.504C1451.85,818.627 1448.79,874.068 1439.86,928.526C1429.97,988.932 1412.86,1048.14 1384.69,1070.17C1356.41,1092.28 1317.01,1076.95 1262.6,987.969C1214.92,910.046 1175.19,842.716 1149.72,781.298C1130.33,734.53 1119.2,691.242 1119.2,649.26C1119.2,631.143 1124.89,606.683 1134.73,578.823C1154.91,521.732 1192.55,450.613 1234.98,391.234C1282.86,324.23 1336.85,272.173 1378.74,272.122L1378.74,272.106Z" style="fill:rgb(255,192,0);"/>
                        </g>
                        <g transform="matrix(-0.017322,-0.0462374,-0.00717629,0.00268847,1204.5,696.956)">
                            <path d="M1412.63,204.037C1486.95,-60.382 1473.08,430.497 1473.08,527.767C1473.08,625.036 1392.49,825.501 1295.22,825.501C1197.95,825.501 1117.02,526.268 1117.02,428.998C1117.02,331.728 1337.53,471.198 1412.63,204.037Z" style="fill:white;"/>
                            <path d="M1412.59,203.542C1441.72,99.739 1457.34,112.09 1465.56,171.133C1478.34,262.963 1473.23,468.445 1473.24,527.767C1473.24,547.981 1469.82,572.763 1463.49,599.152C1452.52,644.92 1432.8,696.029 1407.31,738.212C1376.58,789.053 1337.48,826.939 1295.22,827.039C1252.03,827.059 1212.05,768.136 1180.94,694.008C1155.9,634.334 1136.61,564.796 1126,508.35C1122.51,489.762 1119.95,472.572 1118.44,457.608C1117.35,446.864 1116.8,437.219 1116.8,428.998C1116.8,425.254 1117.08,421.788 1117.65,418.644C1118.17,415.776 1118.93,413.145 1119.93,410.765C1123.16,403.086 1128.89,397.851 1136.59,394.182C1173.6,376.542 1256.34,394.648 1325.69,344.386C1360.54,319.121 1392.02,276.595 1412.58,203.513L1412.59,203.542ZM1412.67,204.56C1392.1,277.847 1360.6,320.663 1325.72,346.163C1256.38,396.845 1173.63,379.181 1136.62,397.012C1128.98,400.692 1123.29,405.865 1120.09,413.5C1119.15,415.738 1118.43,418.172 1117.94,420.866C1117.49,423.356 1117.25,426.034 1117.25,428.998C1117.25,436.769 1117.79,445.846 1118.82,455.997C1120.32,470.766 1122.84,487.707 1126.29,506.047C1136.88,562.314 1156.13,631.531 1181.11,691.025C1212.17,765.009 1252.09,823.944 1295.22,823.963C1337.43,824.063 1376.51,786.367 1407.21,735.752C1432.66,693.794 1452.36,642.967 1463.32,597.361C1469.52,571.547 1472.92,547.573 1472.92,527.767C1472.93,490.52 1474.97,395.537 1473.31,307.369C1472.34,255.567 1470.09,206.114 1465.38,172.199C1457.21,113.39 1441.68,101.491 1412.67,204.531L1412.67,204.56Z" style="fill:rgb(255,192,0);"/>
                        </g>
                    </g>
                </g>
                <g transform="matrix(1.53421,0,0,2.18993,-2179.14,-179.706)">
                    <path d="M2262.01,416.784C2276.39,416.784 2284.04,416.306 2284.04,416.306C2284.04,416.306 2275.47,431.185 2261.1,431.185C2246.73,431.185 2239.13,416.114 2239.13,416.114C2239.13,416.114 2247.64,416.784 2262.01,416.784Z" style="fill:rgb(121,0,0);"/>
                    <clipPath id="_clip2">
                        <path d="M2262.01,416.784C2276.39,416.784 2284.04,416.306 2284.04,416.306C2284.04,416.306 2275.47,431.185 2261.1,431.185C2246.73,431.185 2239.13,416.114 2239.13,416.114C2239.13,416.114 2247.64,416.784 2262.01,416.784Z"/>
                    </clipPath>
                    <g clip-path="url(#_clip2)">
                        <g transform="matrix(1.25251,0,0,0.87748,-579.569,49.9035)">
                            <path d="M2259.72,431.312C2259.72,431.312 2269.31,423.002 2279.93,429.666C2279.93,429.666 2267.96,439.914 2259.72,431.312Z" style="fill:rgb(255,0,0);"/>
                        </g>
                    </g>
                    <path d="M2262.01,415.753C2257.64,415.858 2253.81,415.891 2250.6,415.88C2243.3,415.853 2239.21,415.62 2239.21,415.62C2238.97,415.601 2238.72,415.671 2238.57,415.805C2238.42,415.939 2238.38,416.118 2238.46,416.28C2238.46,416.28 2242.32,423.282 2249.34,427.692C2252.59,429.734 2256.51,431.24 2261.1,431.192C2263.38,431.194 2265.51,430.814 2267.49,430.195C2269.48,429.573 2271.33,428.702 2273.01,427.694C2275.61,426.143 2277.82,424.27 2279.6,422.503C2282.81,419.312 2284.61,416.467 2284.61,416.467C2284.69,416.328 2284.66,416.17 2284.54,416.05C2284.41,415.93 2284.2,415.864 2283.99,415.878C2283.99,415.878 2280.22,416.027 2273.01,415.971C2269.95,415.947 2266.28,415.877 2262.01,415.753ZM2262.01,417.815C2267.39,417.662 2271.82,417.466 2275.27,417.289C2279.14,417.091 2281.77,416.911 2283.1,416.812C2282.49,417.847 2281.14,419.961 2279.07,422.258C2277.44,424.067 2275.37,425.987 2272.88,427.583C2271.25,428.626 2269.44,429.533 2267.47,430.172C2265.51,430.809 2263.37,431.175 2261.1,431.177C2256.56,431.13 2252.71,429.593 2249.62,427.483C2244.32,423.874 2241.21,418.65 2240.18,416.711C2241.87,416.857 2245.41,417.133 2250.52,417.39C2253.75,417.553 2257.6,417.709 2262.01,417.815Z" style="fill:rgb(255,137,0);"/>
                </g>
                <g transform="matrix(-0.210563,1.89046,-1.6409,-0.179691,2593.63,-3726.53)">
                    <path d="M2391.05,415.454C2385.61,415.454 2381.19,420.204 2381.19,426.055C2381.19,431.906 2385.61,436.656 2391.05,436.656C2389.42,434.183 2388.1,430.284 2388.1,426.055C2388.1,421.826 2389.42,417.928 2391.05,415.454Z" style="fill:rgb(255,137,0);"/>
                </g>
                <g transform="matrix(1.92162,0,0,1.92162,-3055.57,-66.5195)">
                    <path d="M2255.55,412.012C2255.55,412.012 2256.65,411.783 2258.3,411.593C2258.86,411.528 2259.49,411.468 2260.15,411.418C2260.64,411.38 2261.16,411.351 2261.69,411.326C2262.19,411.302 2262.7,411.281 2263.22,411.275C2264.07,411.265 2264.93,411.289 2265.78,411.384C2266.64,411.48 2267.49,411.638 2268.29,411.901C2268.33,411.919 2268.38,411.896 2268.4,411.851C2268.42,411.805 2268.39,411.753 2268.35,411.736C2267.18,411.225 2265.87,410.916 2264.54,410.765C2263.93,410.696 2263.31,410.661 2262.7,410.655C2262.44,410.652 2262.18,410.656 2261.92,410.666C2261.56,410.68 2261.21,410.705 2260.87,410.738C2260.33,410.791 2259.8,410.862 2259.31,410.942C2258.75,411.034 2258.23,411.139 2257.77,411.243C2256.39,411.553 2255.5,411.85 2255.5,411.85C2255.46,411.862 2255.43,411.908 2255.44,411.953C2255.45,411.997 2255.5,412.024 2255.55,412.012Z" style="fill:rgb(255,177,0);"/>
                </g>
                <g transform="matrix(-1.04631,-0.0542987,0.142427,-2.74452,3597.78,2021.06)">
                    <path d="M2255.62,411.982C2255.62,411.982 2256.72,411.75 2258.34,411.543C2258.91,411.47 2259.54,411.403 2260.21,411.346C2260.71,411.303 2261.23,411.27 2261.77,411.244C2262.28,411.22 2262.8,411.202 2263.33,411.203C2264.17,411.204 2265.03,411.243 2265.88,411.359C2266.66,411.466 2267.44,411.623 2268.19,411.866C2268.26,411.892 2268.37,411.892 2268.44,411.866C2268.51,411.84 2268.51,411.798 2268.44,411.771C2267.37,411.285 2266.14,410.999 2264.85,410.851C2264.17,410.772 2263.47,410.737 2262.79,410.731C2262.49,410.728 2262.19,410.733 2261.9,410.745C2261.5,410.76 2261.11,410.786 2260.74,410.821C2260.15,410.875 2259.6,410.946 2259.08,411.029C2258.35,411.145 2257.71,411.279 2257.16,411.405C2256.4,411.585 2255.85,411.746 2255.59,411.826L2255.43,411.878C2255.43,411.878 2255.51,411.867 2255.51,411.867C2255.35,411.899 2255.33,411.939 2255.39,411.968C2255.44,411.996 2255.55,412.003 2255.62,411.982Z" style="fill:rgb(255,153,0);"/>
                </g>
                <g transform="matrix(0.250076,1.88587,-1.63681,0.212298,1287.38,-3882.74)">
                    <path d="M2391.05,415.454C2385.61,415.454 2381.19,420.204 2381.19,426.055C2381.19,431.906 2385.61,436.656 2391.05,436.656C2389.42,434.183 2388.1,430.284 2388.1,426.055C2388.1,421.826 2389.42,417.928 2391.05,415.454Z" style="fill:rgb(255,137,0);"/>
                </g>
            </g>
        </g>
    </g>
</svg>
