<svg width="24" height="24" viewBox="0 0 24 24" fill="none" xmlns="http://www.w3.org/2000/svg">
<path fill-rule="evenodd" clip-rule="evenodd" d="M7.95983 15.6183V15.0352L3.93253 13.956C2.60013 13.599 1.80721 12.2378 2.16706 10.8948C2.52441 9.56113 3.90337 8.77185 5.22663 9.12641L8.4869 10H8.99951C7.78534 9.08777 6.99999 7.6356 6.99999 6C6.99999 3.23858 9.23857 1 12 1C14.7614 1 17 3.23858 17 6C17 7.6356 16.2146 9.08777 15.0005 10H15.6165L18.8767 9.12641C20.2091 8.7694 21.5765 9.55183 21.9363 10.8948C22.2937 12.2285 21.4941 13.6015 20.1708 13.956L16.0402 15.0629V15.6046L19.1987 18.7632C20.1735 19.738 20.1791 21.3128 19.196 22.2959C18.2196 23.2723 16.6396 23.2751 15.6632 22.2987L12.3645 19H11.6492L8.3505 22.2987C7.37413 23.2751 5.79406 23.2723 4.81775 22.2959C3.83463 21.3128 3.84019 19.738 4.81497 18.7632L7.95983 15.6183Z" stroke="#333333" stroke-width="1.5" stroke-linecap="round" stroke-linejoin="round"/>
<path d="M10.5 7.5C10.5 7.5 10.5556 8.5 12 8.5C13.4444 8.5 13.5 7.5 13.5 7.5" stroke="#333333" stroke-linecap="round" stroke-linejoin="round"/>
<path fill-rule="evenodd" clip-rule="evenodd" d="M10 6C9.44772 6 9 5.55228 9 5C9 4.44772 9.44772 4 10 4C10.5523 4 11 4.44772 11 5C11 5.55228 10.5523 6 10 6ZM14 6C13.4477 6 13 5.55228 13 5C13 4.44772 13.4477 4 14 4C14.5523 4 15 4.44772 15 5C15 5.55228 14.5523 6 14 6Z" fill="#333333"/>
<path fill-rule="evenodd" clip-rule="evenodd" d="M12 13C11.4477 13 11 12.5523 11 12C11 11.4477 11.4477 11 12 11C12.5523 11 13 11.4477 13 12C13 12.5523 12.5523 13 12 13ZM12 17C11.4477 17 11 16.5523 11 16C11 15.4477 11.4477 15 12 15C12.5523 15 13 15.4477 13 16C13 16.5523 12.5523 17 12 17Z" fill="#333333"/>
</svg>
