<svg width="400" height="400" viewBox="0 0 400 400" fill="none" xmlns="http://www.w3.org/2000/svg">
<rect width="400" height="400" rx="6" fill="#F4B376"/>
<path d="M29.3993 121.612C29.1252 121.96 28.6559 122.309 27.9912 122.66C27.35 123.007 26.6174 123.261 25.7932 123.423C24.8042 123.618 23.9286 123.644 23.1666 123.5C22.3998 123.333 21.836 123.016 21.4749 122.549C21.1093 122.058 20.6546 121.426 20.1109 120.653C19.5626 119.856 18.9721 118.969 18.3396 117.993C17.7307 117.012 17.0865 115.977 16.4073 114.888C15.747 113.77 15.0961 112.639 14.4547 111.493C13.8132 110.347 13.2 109.221 12.6149 108.113C12.0299 107.005 11.5058 105.959 11.0428 104.973C11.3075 104.579 11.7205 104.192 12.2818 103.812C12.8619 103.404 13.5052 103.131 14.2116 102.992C15.0829 102.82 15.8264 102.87 16.4422 103.14C17.0769 103.382 17.6212 103.972 18.0749 104.91C19.1651 107.092 20.2368 109.18 21.2899 111.175C22.3619 113.14 23.476 115.196 24.6322 117.341L24.8441 117.299C25.0441 114.961 25.2164 112.419 25.361 109.676C25.5292 106.927 25.6644 104.198 25.7666 101.487C26.1488 101.192 26.5614 100.927 27.0045 100.693C27.4712 100.454 28.0107 100.275 28.6229 100.154C29.4942 99.9826 30.2754 100.037 30.9664 100.316C31.6529 100.573 32.0842 101.148 32.2604 102.043C32.3624 102.561 32.3812 103.34 32.317 104.38C32.2762 105.415 32.1786 106.597 32.024 107.923C31.8884 109.222 31.7054 110.591 31.4752 112.031C31.2686 113.466 31.0362 114.832 30.7782 116.131C30.5391 117.401 30.298 118.537 30.055 119.539C29.8073 120.517 29.5887 121.208 29.3993 121.612ZM53.5479 108.675C53.8354 110.135 53.869 111.486 53.6488 112.728C53.4239 113.946 52.9759 115.025 52.3048 115.965C51.6572 116.899 50.8076 117.678 49.7562 118.301C48.7047 118.924 47.4843 119.372 46.095 119.646C44.7056 119.919 43.4041 119.956 42.1903 119.754C40.9766 119.553 39.8811 119.145 38.9039 118.53C37.9456 117.887 37.1315 117.045 36.4615 116.002C35.7916 114.96 35.3175 113.733 35.0393 112.32C34.7657 110.93 34.7413 109.627 34.9662 108.408C35.191 107.19 35.6273 106.113 36.2749 105.178C36.9414 104.216 37.7981 103.411 38.8449 102.764C39.8917 102.118 41.1098 101.658 42.4991 101.384C43.8885 101.111 45.1923 101.087 46.4107 101.311C47.6245 101.513 48.7105 101.935 49.6688 102.578C50.646 103.193 51.4695 104.021 52.1395 105.063C52.8095 106.105 53.2789 107.309 53.5479 108.675ZM41.1853 111.11C41.4681 112.546 41.9568 113.599 42.6514 114.27C43.365 114.912 44.2162 115.136 45.2052 114.941C46.1943 114.746 46.8713 114.209 47.2363 113.33C47.6249 112.447 47.6801 111.298 47.4019 109.885C47.1237 108.473 46.6396 107.443 45.9496 106.796C45.255 106.125 44.4132 105.888 43.4242 106.082C42.4352 106.277 41.7464 106.816 41.3578 107.7C40.9646 108.56 40.9071 109.697 41.1853 111.11ZM63.0542 97.337C64.3964 97.0727 65.6439 97.0105 66.7967 97.1505C67.9683 97.2622 68.9842 97.5147 69.8444 97.9079C70.3803 98.1448 70.8171 98.438 71.155 98.7873C71.5164 99.1319 71.7597 99.6222 71.8849 100.258L74.3192 112.621C74.5649 113.869 74.5404 114.986 74.2457 115.974C73.9556 116.985 73.4564 117.866 72.7481 118.617C72.068 119.387 71.2025 120.022 70.1514 120.523C69.1238 121.019 67.986 121.389 66.738 121.635C64.5951 122.057 62.8535 122.094 61.5131 121.747C60.1773 121.423 59.3819 120.613 59.1269 119.318C59.0202 118.776 59.0311 118.273 59.1596 117.807C59.3163 117.36 59.515 117.003 59.7559 116.736C60.5129 116.978 61.3408 117.145 62.2396 117.237C63.1618 117.325 64.0822 117.278 65.0005 117.097C66.2721 116.847 67.2429 116.436 67.913 115.863C68.5831 115.291 68.8254 114.534 68.6399 113.592L68.5286 113.027C67.6466 113.641 66.511 114.085 65.1216 114.358C64.062 114.567 63.0193 114.613 61.9935 114.497C60.9867 114.353 60.0534 114.023 59.1936 113.508C58.3527 112.964 57.6042 112.206 56.9481 111.235C56.3156 110.258 55.8556 109.04 55.5681 107.58C55.2853 106.144 55.2633 104.852 55.502 103.704C55.7643 102.552 56.2285 101.555 56.8947 100.715C57.5798 99.8459 58.4432 99.1378 59.4851 98.5902C60.5458 98.0144 61.7355 97.5967 63.0542 97.337ZM66.2526 102.027C66.0693 101.966 65.8035 101.92 65.4552 101.891C65.1306 101.857 64.7328 101.886 64.2618 101.979C63.108 102.206 62.3016 102.708 61.8427 103.483C61.4028 104.23 61.301 105.204 61.5375 106.405C61.8064 107.771 62.2838 108.704 62.9695 109.205C63.6741 109.678 64.4738 109.826 65.3686 109.65C66.3341 109.46 67.0553 109.085 67.5324 108.527L66.2526 102.027ZM87.3974 111.513C86.0081 111.787 84.6758 111.853 83.4007 111.713C82.1445 111.544 80.9925 111.16 79.9446 110.559C78.9204 109.953 78.0333 109.113 77.2834 108.038C76.557 106.958 76.0385 105.629 75.7279 104.051C75.4218 102.497 75.4071 101.118 75.6837 99.9135C75.9792 98.6812 76.4695 97.6307 77.1545 96.762C77.835 95.8697 78.6726 95.1544 79.6673 94.6161C80.6574 94.0542 81.7058 93.6643 82.8126 93.4464C84.0606 93.2007 85.228 93.1665 86.3147 93.3439C87.425 93.5166 88.4101 93.8608 89.2699 94.3764C90.1533 94.8873 90.8855 95.5626 91.4667 96.4021C92.0713 97.237 92.4803 98.1961 92.6936 99.2793C92.8513 100.08 92.7481 100.736 92.3842 101.248C92.0202 101.76 91.4495 102.154 90.6721 102.429L82.205 105.454C82.617 106.18 83.2628 106.664 84.1422 106.907C85.017 107.126 85.9725 107.134 87.0086 106.93C87.9741 106.74 88.8575 106.443 89.6588 106.041C90.4791 105.61 91.1276 105.177 91.6042 104.741C92.0274 104.902 92.4102 105.169 92.7527 105.542C93.0952 105.915 93.3128 106.337 93.4055 106.808C93.6142 107.867 93.275 108.753 92.388 109.466C91.7133 110.015 90.9189 110.453 90.0048 110.779C89.0907 111.106 88.2216 111.351 87.3974 111.513ZM83.675 97.8263C83.1099 97.9376 82.6339 98.1292 82.2471 98.401C81.8839 98.6682 81.6029 98.9804 81.4042 99.3375C81.2008 99.6711 81.0656 100.04 80.9985 100.445C80.9503 100.821 80.9515 101.2 81.0021 101.581L86.8474 99.4031C86.684 98.9461 86.3323 98.5261 85.7921 98.1433C85.252 97.7604 84.5463 97.6547 83.675 97.8263ZM103.698 107.68C103.448 107.778 103.071 107.913 102.567 108.086C102.091 108.277 101.594 108.424 101.076 108.526C100.558 108.628 100.08 108.685 99.6421 108.698C99.2279 108.706 98.8586 108.632 98.5343 108.476C98.21 108.32 97.9307 108.081 97.6963 107.761C97.4808 107.412 97.3151 106.943 97.1992 106.354L93.1652 85.8675C93.4149 85.7694 93.7801 85.6363 94.2607 85.4683C94.7602 85.2721 95.269 85.123 95.787 85.021C96.3051 84.919 96.7712 84.8639 97.1855 84.8557C97.6232 84.8429 98.0043 84.9146 98.3286 85.0709C98.6529 85.2272 98.9228 85.4798 99.1382 85.8288C99.3726 86.1495 99.5478 86.6043 99.6637 87.193L103.698 107.68ZM112.337 99.8877C112.457 100.5 112.732 100.898 113.159 101.083C113.611 101.264 114.19 101.284 114.896 101.145C115.249 101.075 115.61 100.98 115.977 100.859C116.34 100.714 116.653 100.567 116.917 100.417C117.18 100.634 117.415 100.894 117.621 101.195C117.846 101.469 118.003 101.83 118.091 102.277C118.267 103.172 118.069 103.969 117.498 104.669C116.95 105.364 115.828 105.878 114.133 106.212C112.06 106.62 110.366 106.464 109.051 105.745C107.758 105.021 106.904 103.599 106.486 101.48L103.51 86.3623C103.755 86.2407 104.106 86.0981 104.563 85.9348C105.039 85.7432 105.547 85.5941 106.089 85.4875C107.125 85.2834 107.963 85.3142 108.602 85.5796C109.261 85.8169 109.706 86.5243 109.937 87.7017L110.383 89.9623L115.01 89.0511C115.202 89.2824 115.396 89.5865 115.593 89.9637C115.808 90.3126 115.963 90.7225 116.055 91.1935C116.218 92.0177 116.147 92.6552 115.845 93.1062C115.561 93.529 115.113 93.8006 114.501 93.9212L111.287 94.5541L112.337 99.8877ZM117.352 82.2423C117.176 81.3474 117.322 80.5359 117.79 79.8078C118.282 79.075 119.022 78.6112 120.011 78.4165C121 78.2217 121.849 78.3725 122.559 78.8688C123.292 79.3605 123.746 80.0538 123.922 80.9486C124.098 81.8434 123.941 82.6572 123.449 83.39C122.981 84.1182 122.252 84.5796 121.263 84.7744C120.274 84.9691 119.413 84.8207 118.681 84.329C117.971 83.8326 117.529 83.1371 117.352 82.2423ZM120.944 106.815C121.397 106.384 121.683 105.85 121.803 105.215C121.927 104.604 121.919 103.945 121.78 103.238L118.623 87.2023C118.872 87.1042 119.238 86.9711 119.718 86.8031C120.218 86.6069 120.726 86.4578 121.244 86.3558C121.763 86.2538 122.229 86.1987 122.643 86.1905C123.081 86.1777 123.462 86.2494 123.786 86.4057C124.11 86.562 124.38 86.8146 124.596 87.1636C124.83 87.4843 125.005 87.9391 125.121 88.5278L127.896 102.621C128.091 103.61 128.149 104.528 128.072 105.375C127.994 106.222 127.787 106.972 127.451 107.626C127.143 108.298 126.701 108.849 126.125 109.281C125.578 109.731 124.916 110.033 124.139 110.186C123.103 110.39 122.228 110.232 121.514 109.712C120.805 109.215 120.346 108.499 120.136 107.561L120.944 106.815ZM140.966 100.965C139.577 101.238 138.245 101.305 136.97 101.165C135.714 100.996 134.561 100.612 133.514 100.011C132.489 99.4052 131.602 98.5647 130.852 97.4893C130.126 96.4093 129.608 95.0804 129.297 93.5027C128.991 91.9486 128.976 90.5694 129.253 89.3653C129.548 88.133 130.038 87.0825 130.724 86.2138C131.404 85.3215 132.242 84.6062 133.236 84.0679C134.226 83.506 135.275 83.1161 136.382 82.8982C137.63 82.6524 138.797 82.6183 139.884 82.7956C140.994 82.9684 141.979 83.3126 142.839 83.8282C143.722 84.3391 144.455 85.0144 145.036 85.8539C145.64 86.6888 146.049 87.6479 146.263 88.7311C146.42 89.5317 146.317 90.188 145.953 90.6999C145.589 91.2119 145.019 91.6056 144.241 91.881L135.774 94.9058C136.186 95.6319 136.832 96.1162 137.711 96.3589C138.586 96.578 139.541 96.5856 140.578 96.3816C141.543 96.1914 142.426 95.8952 143.228 95.4928C144.048 95.0622 144.697 94.6287 145.173 94.1924C145.596 94.3537 145.979 94.6208 146.322 94.9937C146.664 95.3665 146.882 95.7884 146.975 96.2594C147.183 97.319 146.844 98.2052 145.957 98.918C145.282 99.4667 144.488 99.9045 143.574 100.231C142.66 100.558 141.791 100.802 140.966 100.965ZM137.244 87.2781C136.679 87.3894 136.203 87.5809 135.816 87.8528C135.453 88.12 135.172 88.4322 134.973 88.7893C134.77 89.1229 134.635 89.4919 134.567 89.8965C134.519 90.2729 134.521 90.6518 134.571 91.0332L140.416 88.8549C140.253 88.3978 139.901 87.9779 139.361 87.595C138.821 87.2122 138.115 87.1065 137.244 87.2781ZM166.971 83.9562C166.827 83.2263 166.511 82.7382 166.022 82.492C165.553 82.2176 164.964 82.1499 164.258 82.289C163.787 82.3818 163.328 82.5334 162.88 82.7438C162.456 82.9497 162.102 83.2028 161.819 83.5032L164.232 95.7598C164.01 95.8768 163.648 96.0217 163.143 96.1943C162.663 96.3623 162.152 96.4997 161.61 96.6063C161.092 96.7083 160.614 96.7657 160.176 96.7786C159.762 96.7867 159.393 96.7127 159.069 96.5564C158.744 96.4001 158.465 96.1616 158.231 95.8408C158.015 95.4919 157.849 95.0231 157.733 94.4344L155.647 83.8378C155.522 83.2021 155.549 82.6585 155.729 82.2072C155.933 81.7512 156.238 81.312 156.644 80.8896C157.333 80.1668 158.244 79.5106 159.375 78.9209C160.53 78.3266 161.849 77.8833 163.333 77.5912C165.994 77.0673 168.158 77.2526 169.827 78.1471C171.49 79.0181 172.526 80.4897 172.934 82.5619L175.111 93.6176C174.89 93.7347 174.527 93.8795 174.023 94.0521C173.542 94.2202 173.031 94.3575 172.489 94.4641C171.971 94.5661 171.493 94.6236 171.055 94.6364C170.641 94.6446 170.272 94.5705 169.948 94.4142C169.623 94.2579 169.344 94.0194 169.11 93.6986C168.894 93.3497 168.728 92.8809 168.613 92.2922L166.971 83.9562ZM194.904 80.841C195.191 82.3009 195.225 83.6519 195.005 84.8938C194.78 86.1122 194.332 87.1911 193.661 88.1305C193.013 89.0652 192.164 89.844 191.112 90.4669C190.061 91.0898 188.84 91.538 187.451 91.8116C186.062 92.0851 184.76 92.1213 183.546 91.92C182.333 91.7187 181.237 91.3106 180.26 90.6958C179.302 90.0529 178.487 89.2103 177.818 88.1681C177.148 87.1259 176.673 85.8984 176.395 84.4855C176.122 83.0962 176.097 81.7923 176.322 80.5739C176.547 79.3555 176.983 78.279 177.631 77.3442C178.297 76.3813 179.154 75.5766 180.201 74.9302C181.248 74.2838 182.466 73.8238 183.855 73.5502C185.244 73.2767 186.548 73.2523 187.767 73.4771C188.98 73.6784 190.066 74.1006 191.025 74.7435C192.002 75.3583 192.825 76.1868 193.495 77.229C194.165 78.2712 194.635 79.4752 194.904 80.841ZM182.541 83.2753C182.824 84.7117 183.313 85.7651 184.007 86.4356C184.721 87.0778 185.572 87.3016 186.561 87.1068C187.55 86.9121 188.227 86.3752 188.592 85.4961C188.981 84.6123 189.036 83.4641 188.758 82.0512C188.48 80.6383 187.996 79.6084 187.306 78.9615C186.611 78.2911 185.769 78.0533 184.78 78.248C183.791 78.4428 183.102 78.982 182.714 79.8657C182.321 80.7259 182.263 81.8624 182.541 83.2753ZM215.6 76.7657C215.888 78.2257 215.921 79.5766 215.701 80.8185C215.476 82.0369 215.028 83.1158 214.357 84.0552C213.709 84.9899 212.86 85.7687 211.808 86.3916C210.757 87.0145 209.537 87.4627 208.147 87.7363C206.758 88.0098 205.456 88.046 204.243 87.8447C203.029 87.6434 201.933 87.2353 200.956 86.6206C199.998 85.9776 199.184 85.135 198.514 84.0928C197.844 83.0506 197.37 81.8231 197.092 80.4102C196.818 79.0209 196.794 77.717 197.018 76.4986C197.243 75.2802 197.68 74.2037 198.327 73.2689C198.994 72.306 199.85 71.5014 200.897 70.8549C201.944 70.2085 203.162 69.7485 204.551 69.4749C205.941 69.2014 207.245 69.177 208.463 69.4018C209.677 69.6031 210.763 70.0253 211.721 70.6682C212.698 71.283 213.522 72.1115 214.192 73.1537C214.862 74.1959 215.331 75.3999 215.6 76.7657ZM203.238 79.2C203.52 80.6364 204.009 81.6898 204.704 82.3603C205.417 83.0025 206.269 83.2263 207.258 83.0315C208.247 82.8368 208.924 82.2999 209.289 81.4208C209.677 80.5371 209.732 79.3888 209.454 77.9759C209.176 76.563 208.692 75.5331 208.002 74.8863C207.307 74.2158 206.465 73.978 205.476 74.1727C204.487 74.3675 203.799 74.9067 203.41 75.7904C203.017 76.6506 202.959 77.7871 203.238 79.2ZM215.759 62.865C215.583 61.9702 215.729 61.1587 216.197 60.4306C216.689 59.6978 217.429 59.234 218.418 59.0393C219.407 58.8445 220.256 58.9953 220.966 59.4916C221.698 59.9833 222.153 60.6766 222.329 61.5714C222.505 62.4662 222.348 63.28 221.856 64.0128C221.388 64.741 220.659 65.2024 219.67 65.3972C218.681 65.5919 217.82 65.4434 217.087 64.9518C216.378 64.4554 215.936 63.7599 215.759 62.865ZM226.359 83.5265C226.109 83.6246 225.732 83.76 225.228 83.9326C224.752 84.1242 224.255 84.271 223.737 84.373C223.219 84.475 222.741 84.5324 222.303 84.5452C221.889 84.5534 221.52 84.4794 221.195 84.3231C220.871 84.1668 220.592 83.9283 220.357 83.6075C220.142 83.2586 219.976 82.7897 219.86 82.201L217.03 67.8251C217.279 67.727 217.644 67.5939 218.125 67.4259C218.625 67.2297 219.133 67.0806 219.651 66.9786C220.169 66.8766 220.636 66.8215 221.05 66.8133C221.488 66.8005 221.869 66.8722 222.193 67.0285C222.517 67.1848 222.787 67.4374 223.003 67.7864C223.237 68.1071 223.412 68.5619 223.528 69.1506L226.359 83.5265ZM235.032 75.728C235.152 76.3402 235.426 76.7388 235.854 76.9236C236.305 77.1038 236.884 77.1244 237.591 76.9853C237.944 76.9157 238.304 76.8203 238.672 76.699C239.035 76.5542 239.348 76.4068 239.612 76.257C239.875 76.4743 240.11 76.7339 240.316 77.0357C240.541 77.3094 240.698 77.6699 240.786 78.1173C240.962 79.0121 240.764 79.8094 240.193 80.509C239.645 81.204 238.523 81.7184 236.827 82.0522C234.755 82.4602 233.061 82.3046 231.745 81.5852C230.453 80.8613 229.598 79.4396 229.181 77.3203L226.204 62.2026C226.449 62.081 226.8 61.9384 227.258 61.7751C227.733 61.5835 228.242 61.4344 228.784 61.3278C229.82 61.1237 230.658 61.1545 231.297 61.4199C231.955 61.6572 232.4 62.3646 232.632 63.542L233.077 65.8026L237.704 64.8914C237.897 65.1227 238.091 65.4268 238.288 65.8039C238.503 66.1529 238.657 66.5628 238.75 67.0338C238.912 67.858 238.842 68.4955 238.54 68.9465C238.256 69.3693 237.808 69.6409 237.196 69.7615L233.981 70.3944L235.032 75.728ZM256.289 59.2873C257.631 59.0231 258.879 58.9609 260.031 59.1008C261.203 59.2125 262.219 59.465 263.079 59.8582C263.615 60.0952 264.052 60.3883 264.39 60.7376C264.751 61.0823 264.994 61.5725 265.12 62.2083L267.554 74.5709C267.8 75.8189 267.775 76.9367 267.48 77.9243C267.19 78.9354 266.691 79.8164 265.983 80.5674C265.303 81.3373 264.437 81.9725 263.386 82.473C262.359 82.9689 261.221 83.3397 259.973 83.5854C257.83 84.0074 256.088 84.0446 254.748 83.697C253.412 83.3729 252.617 82.5634 252.362 81.2682C252.255 80.7266 252.266 80.223 252.394 79.7574C252.551 79.3108 252.75 78.9536 252.991 78.6861C253.748 78.9284 254.576 79.0956 255.474 79.1877C256.397 79.2751 257.317 79.2284 258.235 79.0476C259.507 78.7972 260.478 78.3859 261.148 77.8137C261.818 77.2414 262.06 76.4844 261.875 75.5424L261.763 74.9773C260.881 75.5913 259.746 76.035 258.356 76.3086C257.297 76.5173 256.254 76.5636 255.228 76.4476C254.221 76.3034 253.288 75.9735 252.428 75.4579C251.587 74.9141 250.839 74.1564 250.183 73.1849C249.55 72.2087 249.09 70.9906 248.803 69.5306C248.52 68.0942 248.498 66.8021 248.737 65.6544C248.999 64.502 249.463 63.5055 250.129 62.665C250.815 61.7963 251.678 61.0881 252.72 60.5405C253.781 59.9647 254.97 59.547 256.289 59.2873ZM259.487 63.9778C259.304 63.916 259.038 63.8705 258.69 63.8413C258.365 63.8074 257.968 63.8368 257.497 63.9295C256.343 64.1567 255.536 64.6579 255.078 65.4332C254.638 66.1803 254.536 67.1543 254.772 68.3552C255.041 69.721 255.519 70.6544 256.204 71.1553C256.909 71.6281 257.709 71.7764 258.603 71.6002C259.569 71.4101 260.29 71.0357 260.767 70.477L259.487 63.9778ZM280.632 73.4633C279.243 73.7369 277.911 73.8036 276.635 73.6633C275.379 73.4948 274.227 73.1101 273.179 72.5092C272.155 71.9037 271.268 71.0633 270.518 69.9879C269.792 68.9079 269.273 67.579 268.963 66.0013C268.657 64.4471 268.642 63.068 268.918 61.8639C269.214 60.6316 269.704 59.5811 270.389 58.7123C271.07 57.8201 271.907 57.1048 272.902 56.5664C273.892 56.0046 274.941 55.6147 276.047 55.3967C277.295 55.151 278.463 55.1168 279.549 55.2942C280.66 55.4669 281.645 55.8111 282.505 56.3267C283.388 56.8377 284.12 57.5129 284.701 58.3525C285.306 59.1874 285.715 60.1464 285.928 61.2296C286.086 62.0303 285.983 62.6865 285.619 63.1985C285.255 63.7105 284.684 64.1041 283.907 64.3795L275.44 67.4044C275.852 68.1304 276.498 68.6148 277.377 68.8575C278.252 69.0766 279.207 69.0841 280.243 68.8801C281.209 68.69 282.092 68.3937 282.894 67.9913C283.714 67.5608 284.362 67.1273 284.839 66.691C285.262 66.8523 285.645 67.1194 285.987 67.4922C286.33 67.8651 286.548 68.287 286.64 68.7579C286.849 69.8176 286.51 70.7038 285.623 71.4166C284.948 71.9653 284.154 72.403 283.24 72.7298C282.325 73.0565 281.456 73.3011 280.632 73.4633ZM276.91 59.7766C276.345 59.8879 275.869 60.0795 275.482 60.3513C275.119 60.6185 274.838 60.9307 274.639 61.2878C274.436 61.6214 274.3 61.9905 274.233 62.3951C274.185 62.7715 274.186 63.1504 274.237 63.5318L280.082 61.3534C279.919 60.8964 279.567 60.4764 279.027 60.0936C278.487 59.7107 277.781 59.6051 276.91 59.7766ZM299.566 57.8472C299.422 57.1172 299.106 56.6291 298.617 56.3829C298.147 56.1085 297.559 56.0409 296.852 56.18C296.381 56.2727 295.922 56.4243 295.474 56.6348C295.05 56.8406 294.696 57.0937 294.413 57.3941L296.826 69.6508C296.605 69.7678 296.242 69.9126 295.738 70.0853C295.257 70.2533 294.746 70.3906 294.205 70.4973C293.687 70.5993 293.209 70.6567 292.771 70.6695C292.357 70.6777 291.987 70.6036 291.663 70.4474C291.339 70.2911 291.059 70.0525 290.825 69.7318C290.61 69.3828 290.444 68.914 290.328 68.3253L288.241 57.7288C288.116 57.093 288.144 56.5494 288.324 56.0981C288.528 55.6422 288.833 55.203 289.239 54.7806C289.928 54.0578 290.838 53.4015 291.97 52.8119C293.125 52.2175 294.444 51.7743 295.927 51.4822C298.588 50.9582 300.753 51.1435 302.421 52.0381C304.085 52.9091 305.121 54.3807 305.529 56.4529L307.706 67.5086C307.484 67.6256 307.121 67.7704 306.617 67.9431C306.136 68.1111 305.625 68.2484 305.084 68.3551C304.566 68.4571 304.088 68.5145 303.65 68.5273C303.236 68.5355 302.867 68.4614 302.542 68.3052C302.218 68.1489 301.939 67.9103 301.704 67.5896C301.489 67.2406 301.323 66.7718 301.207 66.1831L299.566 57.8472ZM327.498 54.7319C327.786 56.1919 327.819 57.5428 327.599 58.7848C327.374 60.0032 326.926 61.0821 326.255 62.0214C325.608 62.9562 324.758 63.735 323.707 64.3578C322.655 64.9807 321.435 65.4289 320.045 65.7025C318.656 65.9761 317.355 66.0122 316.141 65.8109C314.927 65.6096 313.832 65.2016 312.854 64.5868C311.896 63.9438 311.082 63.1012 310.412 62.059C309.742 61.0168 309.268 59.7893 308.99 58.3764C308.716 56.9871 308.692 55.6833 308.917 54.4649C309.141 53.2465 309.578 52.1699 310.225 51.2352C310.892 50.2723 311.749 49.4676 312.795 48.8212C313.842 48.1747 315.06 47.7147 316.45 47.4412C317.839 47.1676 319.143 47.1432 320.361 47.3681C321.575 47.5694 322.661 47.9915 323.619 48.6345C324.596 49.2493 325.42 50.0778 326.09 51.12C326.76 52.1622 327.229 53.3662 327.498 54.7319ZM315.136 57.1662C315.419 58.6027 315.907 59.6561 316.602 60.3265C317.315 60.9688 318.167 61.1925 319.156 60.9978C320.145 60.803 320.822 60.2661 321.187 59.387C321.575 58.5033 321.631 57.355 321.352 55.9421C321.074 54.5293 320.59 53.4994 319.9 52.8525C319.205 52.1821 318.364 51.9442 317.375 52.139C316.386 52.3337 315.697 52.8729 315.308 53.7567C314.915 54.6168 314.858 55.7534 315.136 57.1662ZM341.307 61.5159C339.918 61.7895 338.585 61.8561 337.31 61.7159C336.054 61.5474 334.902 61.1627 333.854 60.5618C332.83 59.9563 331.943 59.1159 331.193 58.0405C330.467 56.9605 329.948 55.6316 329.637 54.0539C329.331 52.4997 329.317 51.1206 329.593 49.9165C329.889 48.6842 330.379 47.6337 331.064 46.7649C331.744 45.8727 332.582 45.1574 333.577 44.619C334.567 44.0572 335.615 43.6673 336.722 43.4493C337.97 43.2036 339.138 43.1694 340.224 43.3468C341.335 43.5195 342.32 43.8637 343.179 44.3793C344.063 44.8903 344.795 45.5655 345.376 46.4051C345.981 47.24 346.39 48.199 346.603 49.2822C346.761 50.0828 346.658 50.7391 346.294 51.2511C345.93 51.7631 345.359 52.1567 344.582 52.4321L336.114 55.457C336.527 56.183 337.172 56.6674 338.052 56.9101C338.927 57.1292 339.882 57.1367 340.918 56.9327C341.884 56.7426 342.767 56.4463 343.568 56.0439C344.389 55.6134 345.037 55.1799 345.514 54.7436C345.937 54.9049 346.32 55.1719 346.662 55.5448C347.005 55.9177 347.222 56.3396 347.315 56.8105C347.524 57.8702 347.185 58.7564 346.298 59.4692C345.623 60.0179 344.828 60.4556 343.914 60.7824C343 61.1091 342.131 61.3537 341.307 61.5159ZM337.585 47.8292C337.019 47.9405 336.543 48.1321 336.157 48.4039C335.793 48.6711 335.512 48.9833 335.314 49.3404C335.11 49.674 334.975 50.0431 334.908 50.4477C334.86 50.8241 334.861 51.203 334.912 51.5844L340.757 49.406C340.594 48.949 340.242 48.529 339.702 48.1462C339.161 47.7633 338.456 47.6577 337.585 47.8292ZM356.39 39.5765C357.732 39.3122 358.98 39.25 360.133 39.39C361.304 39.5017 362.32 39.7542 363.18 40.1474C363.716 40.3843 364.153 40.6775 364.491 41.0268C364.852 41.3714 365.096 41.8617 365.221 42.4975L367.655 54.8601C367.901 56.1081 367.876 57.2259 367.582 58.2135C367.292 59.2246 366.792 60.1056 366.084 60.8566C365.404 61.6265 364.538 62.2617 363.487 62.7622C362.46 63.258 361.322 63.6288 360.074 63.8746C357.931 64.2965 356.19 64.3337 354.849 63.9861C353.513 63.6621 352.718 62.8525 352.463 61.5574C352.356 61.0158 352.367 60.5122 352.496 60.0466C352.652 59.5999 352.851 59.2428 353.092 58.9752C353.849 59.2175 354.677 59.3847 355.576 59.4768C356.498 59.5643 357.418 59.5176 358.337 59.3368C359.608 59.0864 360.579 58.6751 361.249 58.1028C361.919 57.5306 362.161 56.7735 361.976 55.8316L361.865 55.2665C360.983 55.8804 359.847 56.3242 358.458 56.5978C357.398 56.8064 356.355 56.8527 355.33 56.7367C354.323 56.5925 353.389 56.2626 352.53 55.747C351.689 55.2033 350.94 54.4456 350.284 53.474C349.652 52.4978 349.192 51.2798 348.904 49.8198C348.621 48.3834 348.599 47.0913 348.838 45.9435C349.1 44.7912 349.565 43.7947 350.231 42.9542C350.916 42.0854 351.779 41.3773 352.821 40.8297C353.882 40.2539 355.072 39.8362 356.39 39.5765ZM359.589 44.2669C359.405 44.2052 359.139 44.1597 358.791 44.1304C358.467 44.0965 358.069 44.1259 357.598 44.2187C356.444 44.4459 355.638 44.9471 355.179 45.7224C354.739 46.4694 354.637 47.4434 354.874 48.6444C355.142 50.0101 355.62 50.9435 356.306 51.4445C357.01 51.9172 357.81 52.0655 358.705 51.8893C359.67 51.6992 360.391 51.3248 360.868 50.7661L359.589 44.2669Z" fill="#3F3D56"/>
<g clip-path="url(#clip0)">
<path d="M203.214 190.603C216.688 190.603 227.611 179.668 227.611 166.179C227.611 152.69 216.688 141.755 203.214 141.755C189.74 141.755 178.817 152.69 178.817 166.179C178.817 179.668 189.74 190.603 203.214 190.603Z" fill="#3F3D56"/>
<path d="M343.175 198.745C356.649 198.745 367.572 187.81 367.572 174.321C367.572 160.831 356.649 149.896 343.175 149.896C329.701 149.896 318.778 160.831 318.778 174.321C318.778 187.81 329.701 198.745 343.175 198.745Z" fill="#3F3D56"/>
<path d="M343.603 149.039C338.917 149.039 334.33 150.39 330.391 152.931C326.451 155.472 323.327 159.095 321.39 163.367C325.566 159.643 330.894 157.468 336.481 157.208C342.068 156.948 347.575 158.618 352.079 161.938C356.582 165.258 359.81 170.027 361.22 175.445C362.63 180.864 362.137 186.603 359.825 191.701C363.519 188.409 366.126 184.071 367.302 179.262C368.477 174.452 368.164 169.399 366.404 164.772C364.645 160.145 361.522 156.162 357.45 153.352C353.378 150.542 348.549 149.038 343.603 149.039V149.039Z" fill="#00BFA6"/>
<path d="M202.786 140.898C207.472 140.898 212.059 142.249 215.998 144.79C219.938 147.331 223.063 150.954 225 155.226C220.823 151.501 215.495 149.327 209.908 149.067C204.321 148.807 198.815 150.476 194.311 153.797C189.807 157.117 186.58 161.885 185.169 167.304C183.759 172.722 184.252 178.462 186.565 183.56C182.87 180.268 180.263 175.93 179.088 171.12C177.913 166.311 178.226 161.258 179.985 156.63C181.744 152.003 184.867 148.02 188.939 145.211C193.011 142.401 197.84 140.897 202.786 140.898V140.898Z" fill="#00BFA6"/>
<path d="M273.837 287.873C273.847 300.345 270.161 312.541 263.246 322.916C256.331 333.291 246.497 341.379 234.988 346.157C223.48 350.934 210.815 352.187 198.595 349.756C186.375 347.325 175.15 341.32 166.341 332.501C157.531 323.681 151.533 312.444 149.105 300.21C146.677 287.977 147.928 275.297 152.7 263.776C157.473 252.254 165.552 242.409 175.915 235.486C186.278 228.563 198.46 224.873 210.918 224.883C219.189 224.855 227.383 226.466 235.029 229.621C242.675 232.777 249.623 237.415 255.471 243.27C261.319 249.125 265.952 256.08 269.104 263.735C272.256 271.39 273.865 279.593 273.837 287.873Z" fill="#3F3D56"/>
<path d="M273.836 287.873C273.848 296.89 271.92 305.803 268.182 314.007C257.409 313.863 246.795 311.381 237.072 306.734C227.349 302.087 218.748 295.385 211.862 287.089C204.976 278.793 199.968 269.101 197.184 258.681C194.4 248.261 193.906 237.36 195.736 226.73C205.009 224.432 214.683 224.277 224.025 226.275C233.366 228.273 242.132 232.373 249.657 238.264C257.182 244.156 263.269 251.683 267.458 260.278C271.648 268.873 273.829 278.309 273.836 287.873V287.873Z" fill="#00BFA6"/>
<path d="M269.129 304.584C310.26 304.584 343.603 271.203 343.603 230.025C343.603 188.848 310.26 155.467 269.129 155.467C227.997 155.467 194.654 188.848 194.654 230.025C194.654 271.203 227.997 304.584 269.129 304.584Z" fill="#3F3D56"/>
<path d="M287.227 232.576C291.084 227.391 296.837 223.949 303.225 223.003C309.613 222.058 316.115 223.687 321.305 227.532C324.19 223.656 325.861 219.009 326.106 214.181C326.351 209.353 325.159 204.561 322.682 200.411C320.205 196.262 316.554 192.941 312.191 190.871C307.827 188.8 302.948 188.072 298.172 188.779C293.395 189.486 288.935 191.596 285.357 194.842C281.779 198.088 279.243 202.324 278.071 207.013C276.899 211.703 277.144 216.635 278.773 221.186C280.403 225.736 283.345 229.7 287.227 232.576V232.576Z" fill="white"/>
<path d="M230.301 237.289C234.158 232.105 239.911 228.662 246.299 227.717C252.687 226.772 259.189 228.4 264.379 232.246C267.264 228.369 268.935 223.723 269.18 218.895C269.425 214.067 268.233 209.275 265.756 205.125C263.279 200.975 259.628 197.655 255.265 195.584C250.901 193.513 246.022 192.785 241.246 193.492C236.469 194.199 232.009 196.309 228.431 199.555C224.853 202.801 222.317 207.037 221.145 211.727C219.973 216.416 220.217 221.349 221.847 225.899C223.477 230.45 226.419 234.414 230.301 237.289V237.289Z" fill="white"/>
<path d="M246.444 221.884C251.408 221.884 255.432 217.855 255.432 212.885C255.432 207.916 251.408 203.887 246.444 203.887C241.48 203.887 237.455 207.916 237.455 212.885C237.455 217.855 241.48 221.884 246.444 221.884Z" fill="#3F3D56"/>
<path d="M304.654 215.028C309.618 215.028 313.642 210.999 313.642 206.029C313.642 201.06 309.618 197.031 304.654 197.031C299.689 197.031 295.665 201.06 295.665 206.029C295.665 210.999 299.689 215.028 304.654 215.028Z" fill="#3F3D56"/>
<path d="M274.693 237.31C277.293 237.31 279.401 235.2 279.401 232.596C279.401 229.993 277.293 227.883 274.693 227.883C272.092 227.883 269.984 229.993 269.984 232.596C269.984 235.2 272.092 237.31 274.693 237.31Z" fill="#FF6584"/>
<path d="M204.07 366.018V345.292H197.222V366.018C195.219 366.728 193.485 368.041 192.259 369.777C191.032 371.514 190.374 373.588 190.374 375.715V375.715H210.918V375.715C210.918 373.588 210.259 371.514 209.033 369.777C207.807 368.041 206.073 366.728 204.07 366.018V366.018Z" fill="#3F3D56"/>
<path d="M229.323 366.018V345.292H222.475V366.018C220.472 366.728 218.738 368.041 217.512 369.777C216.285 371.514 215.627 373.588 215.626 375.715V375.715H236.171V375.715C236.171 373.588 235.512 371.514 234.286 369.777C233.06 368.041 231.326 366.728 229.323 366.018V366.018Z" fill="#3F3D56"/>
<path d="M238.68 162.617C235.577 157.615 233.493 151.74 234.139 145.888C234.785 140.036 238.614 134.325 244.251 132.648C249.889 130.971 256.872 134.446 257.935 140.237C263.581 130.463 272.513 123.016 283.136 119.224C288.063 117.486 294.611 117.092 297.459 121.476C298.87 123.645 299.02 126.595 300.909 128.363C303.87 131.134 308.618 129.182 312.664 129.419C318.355 129.752 322.935 135.068 323.652 140.729C324.369 146.39 321.864 152.079 318.168 156.423C314.471 160.766 309.662 163.988 304.919 167.153" fill="#3F3D56"/>
<path d="M282.879 249.855C283.186 249.53 283.502 249.216 283.833 248.917C283.979 248.784 284.128 248.654 284.279 248.527C284.373 248.447 284.468 248.369 284.564 248.292C284.73 248.158 284.782 248.125 284.581 248.275C285.309 247.729 286.075 247.238 286.874 246.805C287.242 246.607 287.617 246.422 287.998 246.25C288.087 246.209 288.177 246.17 288.267 246.13C287.864 246.31 288.18 246.167 288.284 246.125C288.512 246.034 288.742 245.946 288.974 245.863C289.835 245.556 290.715 245.308 291.609 245.122C292.021 245.037 292.436 244.97 292.852 244.904C293.131 244.859 292.499 244.943 292.781 244.913C292.904 244.901 293.027 244.884 293.15 244.871C293.397 244.846 293.643 244.824 293.891 244.808C294.781 244.747 295.674 244.744 296.564 244.798C297.009 244.825 297.452 244.87 297.895 244.923C297.448 244.87 297.96 244.935 298.117 244.961C298.36 245.001 298.603 245.045 298.845 245.094C299.715 245.27 300.572 245.505 301.41 245.798C301.619 245.871 301.827 245.947 302.033 246.028C302.147 246.073 302.261 246.119 302.375 246.165C302.318 246.142 302 245.998 302.322 246.144C302.724 246.327 303.123 246.516 303.514 246.724C304.314 247.156 305.083 247.647 305.812 248.19C306.034 248.354 305.562 247.983 305.773 248.162C305.867 248.241 305.965 248.317 306.06 248.396C306.212 248.524 306.361 248.653 306.508 248.786C306.885 249.126 307.246 249.483 307.594 249.852C307.911 250.189 308.216 250.538 308.509 250.896C308.505 250.892 308.84 251.306 308.662 251.083C308.513 250.895 308.724 251.165 308.757 251.21C308.934 251.447 309.106 251.688 309.273 251.933C309.817 252.734 310.309 253.569 310.745 254.433C310.952 254.843 311.147 255.257 311.332 255.677C311.372 255.77 311.512 256.11 311.36 255.74C311.401 255.84 311.443 255.94 311.483 256.041C311.584 256.293 311.681 256.547 311.775 256.802C312.449 258.676 312.966 260.603 313.321 262.563C313.414 263.061 313.499 263.56 313.577 264.061C313.611 264.284 313.645 264.508 313.676 264.732C313.676 264.726 313.75 265.277 313.711 264.98C313.677 264.715 313.736 265.18 313.742 265.23C313.872 266.273 313.975 267.32 314.058 268.368C314.221 270.425 314.308 272.486 314.37 274.548C314.529 279.778 314.664 285.008 314.811 290.239L315.708 322.275L316.606 354.311L316.717 358.288C316.717 358.8 316.92 359.29 317.281 359.652C317.642 360.013 318.132 360.216 318.643 360.216C319.154 360.216 319.644 360.013 320.005 359.652C320.366 359.29 320.569 358.8 320.569 358.288L319.647 325.368L318.731 292.669L318.27 276.209C318.146 271.802 317.969 267.399 317.291 263.036C316.043 255 312.418 246.647 304.668 242.998C297.43 239.59 288.472 240.38 282.13 245.336C281.428 245.883 280.768 246.482 280.156 247.128C279.794 247.489 279.592 247.98 279.592 248.491C279.592 249.003 279.794 249.493 280.156 249.855C280.517 250.216 281.007 250.419 281.518 250.419C282.028 250.419 282.518 250.216 282.88 249.855L282.879 249.855Z" fill="#00BFA6"/>
<path d="M297.377 310.583C296.81 310.584 296.266 310.81 295.865 311.211C295.464 311.613 295.238 312.158 295.237 312.726L299.517 377.83C299.514 378.113 299.568 378.394 299.674 378.657C299.781 378.919 299.938 379.158 300.137 379.36C300.336 379.562 300.572 379.722 300.833 379.832C301.094 379.942 301.374 379.999 301.658 380H336.755C337.322 379.999 337.866 379.773 338.267 379.372C338.669 378.97 338.894 378.426 338.895 377.858L343.176 312.698C343.169 312.134 342.94 311.596 342.54 311.2C342.139 310.804 341.598 310.582 341.035 310.583H297.377Z" fill="#E6E6E6"/>
<path d="M300.766 313.797C300.473 313.797 300.183 313.857 299.914 313.974C299.645 314.091 299.403 314.262 299.203 314.476C299.003 314.69 298.849 314.943 298.75 315.22C298.652 315.496 298.611 315.79 298.631 316.082L302.566 374.787C302.603 375.328 302.845 375.836 303.241 376.207C303.637 376.578 304.159 376.785 304.701 376.786H333.711C334.254 376.785 334.776 376.578 335.172 376.207C335.568 375.836 335.809 375.328 335.847 374.787L339.782 316.082C339.801 315.79 339.761 315.496 339.662 315.22C339.564 314.943 339.41 314.69 339.21 314.476C339.009 314.262 338.767 314.091 338.499 313.974C338.23 313.857 337.94 313.797 337.647 313.797H300.766Z" fill="#00BFA6"/>
<path d="M313.642 323.867C313.415 323.867 313.198 323.957 313.037 324.118C312.877 324.279 312.786 324.496 312.786 324.724V329.437C312.786 329.664 312.877 329.882 313.037 330.043C313.198 330.203 313.415 330.294 313.642 330.294H320.918C321.145 330.294 321.363 330.203 321.523 330.043C321.684 329.882 321.774 329.664 321.774 329.437V324.724C321.774 324.496 321.684 324.279 321.523 324.118C321.363 323.957 321.145 323.867 320.918 323.867H313.642Z" fill="#E6E6E6"/>
<path d="M321.774 336.293C321.547 336.293 321.33 336.384 321.169 336.544C321.009 336.705 320.919 336.923 320.918 337.15V341.864C320.919 342.091 321.009 342.309 321.169 342.469C321.33 342.63 321.547 342.72 321.774 342.721H329.051C329.277 342.72 329.495 342.63 329.656 342.469C329.816 342.309 329.906 342.091 329.907 341.864V337.15C329.906 336.923 329.816 336.705 329.656 336.544C329.495 336.384 329.277 336.293 329.051 336.293H321.774Z" fill="#E6E6E6"/>
<path d="M314.07 346.577C313.843 346.577 313.625 346.668 313.465 346.828C313.304 346.989 313.214 347.207 313.214 347.434V352.148C313.214 352.375 313.304 352.593 313.465 352.753C313.625 352.914 313.843 353.004 314.07 353.005H321.346C321.573 353.004 321.791 352.914 321.951 352.753C322.112 352.593 322.202 352.375 322.202 352.148V347.434C322.202 347.207 322.112 346.989 321.951 346.828C321.791 346.668 321.573 346.577 321.346 346.577H314.07Z" fill="#E6E6E6"/>
<path d="M175.833 321.792C178.061 322.532 179.629 324.429 180.934 326.288C182.28 328.205 183.513 330.287 185.351 331.784C186.123 332.456 187.029 332.956 188.009 333.251C188.989 333.546 190.02 333.629 191.034 333.494C193.05 333.19 194.759 331.779 195.066 329.698C195.469 326.958 193.554 324.422 191.873 322.472L191.419 323.57C194.097 323.859 196.425 325.387 198.877 326.37C201.226 327.313 204.005 327.827 206.351 326.599C208.152 325.656 209.275 323.77 209.655 321.815C210.045 319.682 209.719 317.48 208.729 315.551C207.48 312.994 205.431 310.927 203.444 308.937L202.82 310.011C205.774 310.455 209.068 310.869 211.631 308.969C212.657 308.245 213.388 307.177 213.691 305.958C213.953 304.612 213.73 303.216 213.063 302.018C211.715 299.39 209.171 297.537 206.89 295.774C201.569 291.656 195.804 288.147 189.702 285.315C188.958 284.968 188.305 286.076 189.054 286.425C194.281 288.855 199.265 291.779 203.937 295.158C206.184 296.785 208.559 298.463 210.432 300.526C212.022 302.278 213.47 304.958 211.734 307.124C209.691 309.672 205.995 309.197 203.161 308.771C203.025 308.738 202.883 308.75 202.754 308.805C202.626 308.86 202.519 308.955 202.449 309.075C202.378 309.196 202.349 309.336 202.365 309.475C202.381 309.614 202.441 309.744 202.536 309.846C205.498 312.812 209.016 316.373 208.5 320.939C208.305 322.67 207.485 324.438 205.946 325.353C203.855 326.597 201.24 325.957 199.133 325.096C196.576 324.052 194.22 322.586 191.419 322.284C190.816 322.219 190.641 323.005 190.965 323.381C192.324 324.958 193.954 327.008 193.833 329.219C193.732 331.068 192.122 332.174 190.394 332.279C186.001 332.545 183.783 327.965 181.555 324.962C180.146 323.062 178.473 321.316 176.175 320.553C175.389 320.292 175.052 321.533 175.833 321.792H175.833Z" fill="#00BFA6"/>
</g>
<defs>
<clipPath id="clip0">
<rect width="220" height="262" fill="white" transform="translate(148 118)"/>
</clipPath>
</defs>
</svg>
