<svg width="400" height="400" viewBox="0 0 400 400" fill="none" xmlns="http://www.w3.org/2000/svg">
<rect width="400" height="400" rx="6" fill="#AFE2DC"/>
<g clip-path="url(#clip0)">
<path d="M166.398 304.603C200.86 304.603 228.797 276.636 228.797 242.137C228.797 207.638 200.86 179.671 166.398 179.671C131.937 179.671 104 207.638 104 242.137C104 276.636 131.937 304.603 166.398 304.603Z" fill="#2F2E41"/>
<path d="M199.937 248.904C199.937 250.919 199.859 252.902 199.703 254.854C199.683 255.171 199.657 255.489 199.625 255.806C197.452 279.856 184.057 298.544 167.62 299.606H167.615C167.433 299.621 167.251 299.632 167.069 299.637C166.757 299.652 166.45 299.658 166.138 299.658C165.038 299.659 163.94 299.579 162.852 299.418C162.79 299.408 162.727 299.397 162.665 299.387C146.686 296.94 133.998 277.779 132.495 253.724C132.485 253.558 132.474 253.391 132.469 253.225C132.381 251.798 132.337 250.358 132.339 248.904C132.339 220.872 147.471 198.15 166.138 198.15C184.806 198.15 199.937 220.872 199.937 248.904Z" fill="#3F3D56"/>
<path d="M165.098 229.383C188.647 229.383 207.737 210.273 207.737 186.698C207.737 163.124 188.647 144.013 165.098 144.013C141.55 144.013 122.459 163.124 122.459 186.698C122.459 210.273 141.55 229.383 165.098 229.383Z" fill="#3F3D56"/>
<path d="M165.099 224.178C169.981 224.178 173.938 223.246 173.938 222.096C173.938 220.946 169.981 220.013 165.099 220.013C160.216 220.013 156.259 220.946 156.259 222.096C156.259 223.246 160.216 224.178 165.099 224.178Z" fill="#2F2E41"/>
<path d="M151.579 200.753C153.589 200.753 155.219 199.122 155.219 197.109C155.219 195.097 153.589 193.465 151.579 193.465C149.569 193.465 147.939 195.097 147.939 197.109C147.939 199.122 149.569 200.753 151.579 200.753Z" fill="#2F2E41"/>
<path d="M178.618 200.753C180.628 200.753 182.258 199.122 182.258 197.109C182.258 195.097 180.628 193.465 178.618 193.465C176.608 193.465 174.978 195.097 174.978 197.109C174.978 199.122 176.608 200.753 178.618 200.753Z" fill="#2F2E41"/>
<path opacity="0.1" d="M165.619 283C165.622 285.373 165.448 287.743 165.099 290.09C164.638 293.27 163.821 296.389 162.665 299.387C146.686 296.94 133.998 277.779 132.495 253.724C132.485 253.558 132.475 253.391 132.469 253.224C135.558 250.96 139.047 249.685 142.739 249.685C153.706 249.685 162.868 260.918 165.099 275.915C165.448 278.26 165.622 280.629 165.619 283V283Z" fill="black"/>
<path d="M165.618 287.685C165.622 290.058 165.448 292.428 165.098 294.775C163.362 306.435 157.434 315.826 149.722 319.417C148.259 320.107 146.704 320.581 145.105 320.823C144.322 320.942 143.531 321.001 142.739 321C140.501 320.997 138.288 320.531 136.239 319.631C134.593 318.918 133.055 317.979 131.669 316.841C124.628 311.167 119.86 300.235 119.86 287.685C119.86 269.283 130.103 254.37 142.739 254.37C153.706 254.37 162.868 265.603 165.099 280.6C165.448 282.945 165.622 285.314 165.618 287.685Z" fill="#3F3D56"/>
<path opacity="0.1" d="M199.704 254.854C199.683 255.171 199.657 255.489 199.626 255.806C197.452 279.856 184.057 298.544 167.621 299.605H167.615C166.417 296.54 165.572 293.347 165.099 290.09C164.405 285.39 164.405 280.615 165.099 275.915C167.329 260.918 176.492 249.685 187.458 249.685C191.961 249.685 196.163 251.58 199.704 254.854Z" fill="black"/>
<path d="M210.337 287.685C210.337 301.479 204.581 313.311 196.381 318.371C195.008 319.229 193.524 319.894 191.972 320.349C189.057 321.208 185.958 321.217 183.038 320.375C181.292 319.872 179.632 319.107 178.114 318.106C171.567 313.837 166.653 305.217 165.099 294.775C164.405 290.075 164.405 285.299 165.099 280.6C167.329 265.603 176.492 254.37 187.458 254.37C200.094 254.37 210.337 269.283 210.337 287.685Z" fill="#3F3D56"/>
<path d="M165.098 195.548C152.175 195.548 141.699 204.334 141.699 213.246C141.699 218.473 145.305 223.116 150.891 226.065C152.971 222.235 158.545 219.493 165.098 219.493C171.652 219.493 177.226 222.235 179.306 226.065C184.892 223.116 188.498 218.473 188.498 213.246C188.498 204.334 178.022 195.548 165.098 195.548Z" fill="#F5AE00"/>
<path d="M164.058 219.493C167.505 219.493 170.298 217.162 170.298 214.287C170.298 211.412 167.505 209.082 164.058 209.082C160.612 209.082 157.819 211.412 157.819 214.287C157.819 217.162 160.612 219.493 164.058 219.493Z" fill="#3F3D56"/>
<path d="M122.719 195.808C127.601 195.808 131.559 188.233 131.559 178.89C131.559 169.547 127.601 161.972 122.719 161.972C117.837 161.972 113.88 169.547 113.88 178.89C113.88 188.233 117.837 195.808 122.719 195.808Z" fill="#F5AE00"/>
<path d="M204.877 195.808C209.759 195.808 213.717 188.233 213.717 178.89C213.717 169.547 209.759 161.972 204.877 161.972C199.995 161.972 196.038 169.547 196.038 178.89C196.038 188.233 199.995 195.808 204.877 195.808Z" fill="#F5AE00"/>
<path d="M174.718 138.547C173.543 138.547 172.402 138.946 171.484 139.681C170.711 138.413 169.593 137.392 168.26 136.739C166.927 136.086 165.436 135.827 163.961 135.994C162.486 136.161 161.09 136.746 159.936 137.68C158.783 138.614 157.92 139.859 157.449 141.268C156.897 140.251 156.022 139.447 154.963 138.983C153.903 138.52 152.72 138.423 151.599 138.708C150.478 138.993 149.485 139.644 148.775 140.557C148.065 141.471 147.68 142.595 147.68 143.753C147.68 144.91 148.065 146.035 148.775 146.949C149.485 147.862 150.478 148.513 151.599 148.798C152.72 149.083 153.903 148.986 154.963 148.522C156.022 148.059 156.897 147.255 157.449 146.238C157.92 147.647 158.783 148.891 159.936 149.826C161.09 150.76 162.486 151.345 163.961 151.512C165.436 151.679 166.927 151.42 168.26 150.767C169.593 150.114 170.711 149.093 171.484 147.825C172.134 148.342 172.898 148.696 173.712 148.857C174.526 149.018 175.367 148.981 176.164 148.751C176.962 148.52 177.692 148.101 178.295 147.53C178.897 146.958 179.354 146.251 179.628 145.466C179.901 144.682 179.983 143.843 179.866 143.02C179.75 142.198 179.438 141.415 178.958 140.738C178.477 140.06 177.841 139.508 177.104 139.127C176.366 138.746 175.548 138.547 174.718 138.547V138.547Z" fill="#3F3D56"/>
<path d="M136.239 300.438V319.631C134.593 318.918 133.055 317.979 131.668 316.841L136.239 300.438Z" fill="#2F2E41"/>
<path d="M149.722 319.418C148.259 320.108 146.704 320.581 145.105 320.823L147.539 303.255L149.722 319.418Z" fill="#2F2E41"/>
<path d="M183.038 300.438V320.375C181.292 319.872 179.631 319.107 178.114 318.106L183.038 300.438Z" fill="#2F2E41"/>
<path d="M196.381 318.371C195.008 319.229 193.524 319.894 191.971 320.349L194.337 303.255L196.381 318.371Z" fill="#2F2E41"/>
<path d="M152.523 197.582C153.162 197.582 153.68 197.063 153.68 196.424C153.68 195.785 153.162 195.267 152.523 195.267C151.885 195.267 151.367 195.785 151.367 196.424C151.367 197.063 151.885 197.582 152.523 197.582Z" fill="white"/>
<path d="M179.695 197.582C180.334 197.582 180.852 197.063 180.852 196.424C180.852 195.785 180.334 195.267 179.695 195.267C179.057 195.267 178.539 195.785 178.539 196.424C178.539 197.063 179.057 197.582 179.695 197.582Z" fill="white"/>
<path d="M297.055 85.0146C265.605 85.0146 240.11 110.537 240.11 142.022C240.095 151.479 242.442 160.79 246.937 169.108C243.079 170.609 239.678 173.09 237.068 176.306C234.457 179.522 232.729 183.363 232.051 187.451C231.373 191.539 231.77 195.733 233.202 199.62C234.634 203.508 237.053 206.956 240.22 209.624C243.386 212.293 247.192 214.09 251.263 214.84C255.334 215.589 259.53 215.265 263.438 213.899C267.346 212.533 270.831 210.172 273.552 207.049C276.272 203.926 278.133 200.148 278.953 196.086C284.788 198.04 290.902 199.034 297.055 199.028C328.505 199.028 354 173.506 354 142.022C354 110.538 328.505 85.0146 297.055 85.0146Z" fill="#F2F2F2"/>
<path opacity="0.1" d="M295.916 172.204C311.435 172.204 324.015 170.078 324.015 167.455C324.015 164.833 311.435 162.707 295.916 162.707C280.397 162.707 267.816 164.833 267.816 167.455C267.816 170.078 280.397 172.204 295.916 172.204Z" fill="black"/>
<path d="M277.188 119.884C288.345 119.884 297.39 110.829 297.39 99.6591C297.39 88.4894 288.345 79.4346 277.188 79.4346C266.03 79.4346 256.985 88.4894 256.985 99.6591C256.985 110.829 266.03 119.884 277.188 119.884Z" fill="#FF6584"/>
<path d="M332.484 131.885C332.497 158.25 316.845 167.462 297.533 167.471C297.084 167.471 296.638 167.466 296.193 167.457C295.298 167.438 294.413 167.397 293.536 167.335C276.106 166.108 262.559 156.438 262.547 131.919C262.535 106.544 294.914 74.5065 297.343 72.1376C297.345 72.1376 297.345 72.1376 297.347 72.1354C297.439 72.0451 297.486 72 297.486 72C297.486 72 332.471 105.522 332.484 131.885Z" fill="#F5AE00"/>
<path d="M296.258 163.439L309.039 145.544L296.227 165.403L296.193 167.457C295.298 167.438 294.413 167.397 293.536 167.336L294.901 140.959L294.891 140.755L294.914 140.716L295.044 138.224L282.18 118.328L295.082 136.357L295.114 136.885L296.145 116.957L285.132 96.3965L296.279 113.455L297.343 72.1376L297.347 72.0001L297.347 72.1355L297.182 104.718L308.128 91.796L297.137 107.524L296.855 125.368L307.078 108.239L296.816 127.992L296.66 137.914L311.496 114.071L296.604 141.375L296.258 163.439Z" fill="#3F3D56"/>
</g>
<path d="M20.8182 57H32.3636C35 57 39.8636 55.0909 39.8636 49.5C39.8636 47.0455 38.8182 44.5455 36.4091 43.0909C37.4091 42.3182 38.3636 40.6818 38.3636 38.5909C38.3636 34.9545 36.2727 31.2727 30.8182 31.2727C30.5455 31.2727 20.8182 31.8636 20.8182 31.8636V57ZM27.5909 41.4091V37.7273C28.3182 37.6818 29.0455 37.6818 29.7727 37.6364C31 37.6364 31.5 38.7727 31.5 39.4545C31.5 40.6364 30.7727 41.4091 29.6818 41.4091H27.5909ZM27.5909 50.5909V46.8182L30.7727 46.7727C31.5 46.7727 32.6818 47.2727 32.6818 48.6364C32.6818 49.9091 31.7273 50.5909 30.6818 50.5909H27.5909ZM52.3345 57.2273C56.5163 57.2273 59.5163 54.7727 60.88 51.5909L54.6982 49.7727C54.2436 50.8636 53.4254 51.4091 52.2436 51.4091C51.1527 51.4091 49.7436 50.7273 49.6982 48.8636V48.5909H61.6072C61.6527 48.1818 61.6981 48.0455 61.6981 46.4091C61.6981 41.5909 58.1982 36.7727 52.3345 36.7727C46.4709 36.7727 43.0163 41.7727 43.0163 47C43.0163 52.2273 46.4709 57.2273 52.3345 57.2273ZM49.7436 45.0455C49.7436 43.4091 51.1072 42.5909 52.2436 42.5909C53.38 42.5909 54.6982 43.4091 54.7436 45.0455H49.7436ZM73.4673 57.2273C77.6491 57.2273 80.6491 54.7727 82.0128 51.5909L75.831 49.7727C75.3764 50.8636 74.5582 51.4091 73.3764 51.4091C72.2855 51.4091 70.8764 50.7273 70.831 48.8636V48.5909H82.7401C82.7855 48.1818 82.831 48.0455 82.831 46.4091C82.831 41.5909 79.331 36.7727 73.4673 36.7727C67.6037 36.7727 64.1491 41.7727 64.1491 47C64.1491 52.2273 67.6037 57.2273 73.4673 57.2273ZM70.8764 45.0455C70.8764 43.4091 72.2401 42.5909 73.3764 42.5909C74.5128 42.5909 75.831 43.4091 75.8764 45.0455H70.8764ZM93.0092 39.8182L92.5547 36.6818L86.191 37.0455V57H93.0092V50.4545C93.0547 45.6364 94.2365 43.6364 98.1456 44.0909L98.2365 36.7273C95.5547 36.4545 93.9638 37.8182 93.0092 39.8182ZM116.781 36.0909C119.009 36.0909 120.554 34.5909 120.554 32.3182C120.554 30.1818 119.009 28.5909 116.781 28.5909C114.599 28.5909 113.054 30.1818 113.054 32.3182C113.054 34.5909 114.599 36.0909 116.781 36.0909ZM113.418 57H120.236L120.281 37.4545L113.463 37.8182L113.418 57ZM131.823 57.2273C135.823 57.2273 139.732 54.5909 139.732 50.6818C139.732 44 131.687 45 130.869 43.5909C130.641 43.2273 130.823 42.3182 132.005 42.3182C133.005 42.3182 133.687 43.3182 134.05 44L139.96 42.1364C138.323 38.9545 135.505 36.7727 131.778 36.7727C127.505 36.7727 124.005 39.2727 124.005 43.3182C124.005 49.0909 131.823 48.7273 133.05 50.0909C133.46 50.5455 133.187 51.5 131.914 51.5C130.914 51.5 130.141 50.6818 129.687 49.9545L123.55 51.9091C123.914 53.8636 127.096 57.2273 131.823 57.2273ZM162.761 57.2273C166.761 57.2273 170.67 54.5909 170.67 50.6818C170.67 44 162.624 45 161.806 43.5909C161.579 43.2273 161.761 42.3182 162.942 42.3182C163.942 42.3182 164.624 43.3182 164.988 44L170.897 42.1364C169.261 38.9545 166.442 36.7727 162.715 36.7727C158.442 36.7727 154.942 39.2727 154.942 43.3182C154.942 49.0909 162.761 48.7273 163.988 50.0909C164.397 50.5455 164.124 51.5 162.852 51.5C161.852 51.5 161.079 50.6818 160.624 49.9545L154.488 51.9091C154.852 53.8636 158.033 57.2273 162.761 57.2273ZM177.523 36.0909C179.751 36.0909 181.296 34.5909 181.296 32.3182C181.296 30.1818 179.751 28.5909 177.523 28.5909C175.342 28.5909 173.796 30.1818 173.796 32.3182C173.796 34.5909 175.342 36.0909 177.523 36.0909ZM174.16 57H180.978L181.023 37.4545L174.205 37.8182L174.16 57ZM195.974 36.7727C194.202 37.2273 192.929 38.8636 192.111 40.5455L191.884 36.4545L185.293 36.8182V66L192.111 66.3182V54.4091C192.929 55.5455 193.929 56.4545 195.02 56.8182C199.884 58.4545 203.929 53.6818 203.929 47.1364C203.929 40.7273 200.611 35.5909 195.974 36.7727ZM194.02 51.5455C193.384 51.5455 192.747 51.0909 192.111 50.4545V44.0455C192.838 43.0909 193.565 42.4545 194.247 42.4545C196.02 42.4545 196.838 44.5 196.838 47.1364C196.838 49.9545 195.747 51.5455 194.02 51.5455ZM211.739 62.4545L213.103 51.1818L208.194 50.7727L205.603 61.7273L211.739 62.4545Z" fill="#393DA1"/>
<path d="M43.6545 357.818C42.3455 358 41.0727 358.945 40.1636 360.327V352.473L34.7091 352.764V374H40.1636V363.455C40.5636 363.055 41.0727 362.764 41.6545 362.727C42.9636 362.655 43.4364 363.673 43.4364 364.982V374H48.8909V363.455C48.8909 360.145 46.7455 357.382 43.6545 357.818ZM54.8062 357.273C56.5881 357.273 57.8244 356.073 57.8244 354.255C57.8244 352.545 56.5881 351.273 54.8062 351.273C53.0608 351.273 51.8244 352.545 51.8244 354.255C51.8244 356.073 53.0608 357.273 54.8062 357.273ZM52.1153 374H57.5699L57.6062 358.364L52.1517 358.655L52.1153 374ZM64.3307 356.909C66.1125 356.909 67.3489 355.709 67.3489 353.891C67.3489 352.182 66.1125 350.909 64.3307 350.909C62.5852 350.909 61.3489 352.182 61.3489 353.891C61.3489 355.709 62.5852 356.909 64.3307 356.909ZM61.3125 381.636C65.167 381.636 67.0943 379.091 67.0943 373.709V358.364L61.6398 358.655V373.745C61.6398 375.309 61.058 376.073 60.1489 376.145C59.6398 376.182 59.0943 376.036 58.7307 375.855L57.4943 380.327C58.0398 381.018 59.6761 381.636 61.3125 381.636ZM89.092 357.818C87.783 358 86.5102 358.945 85.6011 360.327V352.473L80.1466 352.764V374H85.6011V363.455C86.0011 363.055 86.5102 362.764 87.092 362.727C88.4011 362.655 88.8739 363.673 88.8739 364.982V374H94.3284V363.455C94.3284 360.145 92.183 357.382 89.092 357.818ZM104.28 374.182C107.626 374.182 110.026 372.218 111.116 369.673L106.171 368.218C105.807 369.091 105.153 369.527 104.207 369.527C103.335 369.527 102.207 368.982 102.171 367.491V367.273H111.698C111.735 366.945 111.771 366.836 111.771 365.527C111.771 361.673 108.971 357.818 104.28 357.818C99.5892 357.818 96.8256 361.818 96.8256 366C96.8256 370.182 99.5892 374.182 104.28 374.182ZM102.207 364.436C102.207 363.127 103.298 362.473 104.207 362.473C105.116 362.473 106.171 363.127 106.207 364.436H102.207ZM121.186 374.182C124.532 374.182 126.932 372.218 128.023 369.673L123.077 368.218C122.714 369.091 122.059 369.527 121.114 369.527C120.241 369.527 119.114 368.982 119.077 367.491V367.273H128.605C128.641 366.945 128.677 366.836 128.677 365.527C128.677 361.673 125.877 357.818 121.186 357.818C116.495 357.818 113.732 361.818 113.732 366C113.732 370.182 116.495 374.182 121.186 374.182ZM119.114 364.436C119.114 363.127 120.205 362.473 121.114 362.473C122.023 362.473 123.077 363.127 123.114 364.436H119.114ZM148.784 362.909V358.364H146.42V353.455L142.929 353.636L142.965 353.6C141.802 352.764 139.984 352.145 138.202 352.145C134.347 352.145 132.311 354.436 132.311 358.036V358.364H130.638V362.909H132.311L132.347 374H137.765V362.909H140.929V367.309C140.929 372.618 143.147 374.036 147.184 374.036C147.656 374.036 148.093 374 148.711 373.964V368.764C148.42 368.764 148.056 368.764 147.693 368.727C146.529 368.618 146.384 367.491 146.384 365.491V362.909H148.784ZM140.965 358.364H137.765V358.073C137.838 356.909 138.565 356.4 139.693 356.4C140.202 356.4 140.638 356.473 140.965 356.545V358.364ZM168.499 374.182C171.844 374.182 174.244 372.218 175.335 369.673L170.39 368.218C170.026 369.091 169.372 369.527 168.426 369.527C167.553 369.527 166.426 368.982 166.39 367.491V367.273H175.917C175.953 366.945 175.99 366.836 175.99 365.527C175.99 361.673 173.19 357.818 168.499 357.818C163.808 357.818 161.044 361.818 161.044 366C161.044 370.182 163.808 374.182 168.499 374.182ZM166.426 364.436C166.426 363.127 167.517 362.473 168.426 362.473C169.335 362.473 170.39 363.127 170.426 364.436H166.426ZM185.405 374.182C188.751 374.182 191.151 372.218 192.241 369.673L187.296 368.218C186.932 369.091 186.278 369.527 185.332 369.527C184.46 369.527 183.332 368.982 183.296 367.491V367.273H192.823C192.86 366.945 192.896 366.836 192.896 365.527C192.896 361.673 190.096 357.818 185.405 357.818C180.714 357.818 177.951 361.818 177.951 366C177.951 370.182 180.714 374.182 185.405 374.182ZM183.332 364.436C183.332 363.127 184.423 362.473 185.332 362.473C186.241 362.473 187.296 363.127 187.332 364.436H183.332ZM204.53 357.818C203.22 358 201.948 358.945 201.039 360.364L200.857 357.745L195.584 358.036V374H201.039V363.455C201.439 363.055 201.948 362.764 202.53 362.727C203.839 362.655 204.311 363.673 204.311 364.982V374H209.766V363.455C209.766 360.145 207.62 357.382 204.53 357.818ZM237.894 357.745L236.003 366.945L233.676 358.182H230.585L228.221 367.2L226.257 357.745L221.166 358.073L225.057 374H230.148L232.076 367.091H232.112L234.003 374H239.094L242.985 358.073L237.894 357.745ZM247.462 357.273C249.244 357.273 250.481 356.073 250.481 354.255C250.481 352.545 249.244 351.273 247.462 351.273C245.717 351.273 244.481 352.545 244.481 354.255C244.481 356.073 245.717 357.273 247.462 357.273ZM244.772 374H250.226L250.262 358.364L244.808 358.655L244.772 374ZM262.623 357.818C261.314 358 260.041 358.945 259.132 360.364L258.951 357.745L253.678 358.036V374H259.132V363.455C259.532 363.055 260.041 362.764 260.623 362.727C261.932 362.655 262.405 363.673 262.405 364.982V374H267.86V363.455C267.86 360.145 265.714 357.382 262.623 357.818ZM279.456 362.909V358H277.093V353.455L271.638 353.745V358H269.82V362.909H271.602V367.309C271.602 372.618 273.82 374.036 277.856 374.036C278.329 374.036 278.765 374 279.384 373.964V368.764C279.093 368.764 278.729 368.764 278.365 368.727C277.202 368.582 277.056 367.491 277.056 365.491V362.909H279.456ZM289.405 374.182C292.751 374.182 295.151 372.218 296.241 369.673L291.296 368.218C290.932 369.091 290.278 369.527 289.332 369.527C288.46 369.527 287.332 368.982 287.296 367.491V367.273H296.823C296.86 366.945 296.896 366.836 296.896 365.527C296.896 361.673 294.096 357.818 289.405 357.818C284.714 357.818 281.951 361.818 281.951 366C281.951 370.182 284.714 374.182 289.405 374.182ZM287.332 364.436C287.332 363.127 288.423 362.473 289.332 362.473C290.241 362.473 291.296 363.127 291.332 364.436H287.332ZM305.039 360.255L304.675 357.745L299.584 358.036V374H305.039V368.764C305.075 364.909 306.02 363.309 309.148 363.673L309.22 357.782C307.075 357.564 305.802 358.655 305.039 360.255ZM330.093 352.509V360.655C329.511 359.382 328.565 358.218 327.111 357.964C323.547 357.309 320.638 361.6 320.638 366.364C320.638 371.018 323.329 374.582 326.965 374C328.384 373.782 329.402 372.727 330.093 371.491L330.456 374H335.547V352.764L330.093 352.509ZM328.347 369.418C326.929 369.418 326.238 368.109 326.238 366.436C326.238 364.145 327.038 362.618 328.202 362.618C328.893 362.618 329.511 362.982 330.093 363.636V368.509C329.584 369.055 329.002 369.418 328.347 369.418ZM341.65 357.273C343.432 357.273 344.668 356.073 344.668 354.255C344.668 352.545 343.432 351.273 341.65 351.273C339.905 351.273 338.668 352.545 338.668 354.255C338.668 356.073 339.905 357.273 341.65 357.273ZM338.959 374H344.414L344.45 358.364L338.995 358.655L338.959 374ZM356.411 357.818C354.993 358.182 353.974 359.491 353.32 360.836L353.138 357.564L347.865 357.855V381.2L353.32 381.455V371.927C353.974 372.836 354.774 373.564 355.647 373.855C359.538 375.164 362.774 371.345 362.774 366.109C362.774 360.982 360.12 356.873 356.411 357.818ZM354.847 369.636C354.338 369.636 353.829 369.273 353.32 368.764V363.636C353.902 362.873 354.484 362.364 355.029 362.364C356.447 362.364 357.102 364 357.102 366.109C357.102 368.364 356.229 369.636 354.847 369.636Z" fill="#393DA2"/>
<defs>
<clipPath id="clip0">
<rect width="250" height="249" fill="white" transform="translate(104 72)"/>
</clipPath>
</defs>
</svg>
