<svg width="400" height="400" viewBox="0 0 400 400" fill="none" xmlns="http://www.w3.org/2000/svg">
<rect width="400" height="400" rx="6" fill="#DDF3F8"/>
<g clip-path="url(#clip0)">
<path d="M273.87 208.245L271.761 215.721H280.408C279.173 212.767 278.857 209.963 279.928 207.383L273.87 208.245Z" fill="#FFB8B8"/>
<path d="M375 273.646C375 273.763 374.996 273.883 374.989 274H24.1771C24.17 273.883 24.1665 273.763 24.1665 273.646C24.1665 255.858 102.704 241.442 199.583 241.442C296.463 241.442 375 255.858 375 273.646Z" fill="#3F3D56"/>
<path d="M317.591 257.343C328.355 257.343 337.082 248.617 337.082 237.852C337.082 227.087 328.355 218.36 317.591 218.36C306.826 218.36 298.1 227.087 298.1 237.852C298.1 248.617 306.826 257.343 317.591 257.343Z" fill="#D0CDE1"/>
<path d="M318.654 228.992C325.896 228.992 331.766 226.612 331.766 223.676C331.766 220.74 325.896 218.36 318.654 218.36C311.412 218.36 305.542 220.74 305.542 223.676C305.542 226.612 311.412 228.992 318.654 228.992Z" fill="#F50057"/>
<path d="M319.363 224.03C326.213 224.03 331.766 218.477 331.766 211.626C331.766 204.776 326.213 199.223 319.363 199.223C312.513 199.223 306.959 204.776 306.959 211.626C306.959 218.477 312.513 224.03 319.363 224.03Z" fill="#D0CDE1"/>
<path d="M315.59 209.271C316.638 209.271 317.487 208.422 317.487 207.374C317.487 206.326 316.638 205.476 315.59 205.476C314.542 205.476 313.693 206.326 313.693 207.374C313.693 208.422 314.542 209.271 315.59 209.271Z" fill="#575A89"/>
<path d="M322.072 209.271C323.12 209.271 323.97 208.422 323.97 207.374C323.97 206.326 323.12 205.476 322.072 205.476C321.024 205.476 320.175 206.326 320.175 207.374C320.175 208.422 321.024 209.271 322.072 209.271Z" fill="#575A89"/>
<path d="M318.3 209.854L317.782 216.068C317.777 216.125 317.794 216.182 317.828 216.228C317.863 216.273 317.914 216.305 317.97 216.315C318.027 216.325 318.085 216.315 318.134 216.285C318.183 216.254 318.219 216.207 318.235 216.152L320.071 209.854L318.3 209.854Z" fill="#FF6584"/>
<path d="M307.141 263.421L304.886 265.676L292.43 250.964L292.732 249.011L307.141 263.421Z" fill="#575A89"/>
<path d="M297.391 256.28V257.698L286.051 256.989L284.988 256.28H297.391Z" fill="#575A89"/>
<path d="M306.251 235.725C308.012 235.725 309.44 234.139 309.44 232.181C309.44 230.224 308.012 228.637 306.251 228.637C304.489 228.637 303.061 230.224 303.061 232.181C303.061 234.139 304.489 235.725 306.251 235.725Z" fill="#D0CDE1"/>
<path d="M333.002 231.88L335.257 234.135L347.713 219.423L347.411 217.469L333.002 231.88Z" fill="#575A89"/>
<path d="M339.562 226.511V227.928L350.902 227.22L351.966 226.511H339.562Z" fill="#575A89"/>
<path d="M333.892 235.725C335.654 235.725 337.082 234.139 337.082 232.181C337.082 230.224 335.654 228.637 333.892 228.637C332.131 228.637 330.703 230.224 330.703 232.181C330.703 234.139 332.131 235.725 333.892 235.725Z" fill="#D0CDE1"/>
<path d="M318.654 235.016C319.437 235.016 320.072 234.382 320.072 233.599C320.072 232.816 319.437 232.181 318.654 232.181C317.871 232.181 317.237 232.816 317.237 233.599C317.237 234.382 317.871 235.016 318.654 235.016Z" fill="#575A89"/>
<path d="M318.654 239.624C319.437 239.624 320.072 238.989 320.072 238.206C320.072 237.423 319.437 236.788 318.654 236.788C317.871 236.788 317.237 237.423 317.237 238.206C317.237 238.989 317.871 239.624 318.654 239.624Z" fill="#575A89"/>
<path d="M318.654 244.231C319.437 244.231 320.072 243.596 320.072 242.813C320.072 242.03 319.437 241.396 318.654 241.396C317.871 241.396 317.237 242.03 317.237 242.813C317.237 243.596 317.871 244.231 318.654 244.231Z" fill="#575A89"/>
<path d="M257.39 246.354C257.464 244.783 257.038 243.229 256.173 241.915C255.308 240.601 254.048 239.595 252.576 239.042C251.103 238.489 249.493 238.418 247.977 238.837C246.462 239.257 245.118 240.147 244.139 241.379C243.349 240.173 242.226 239.222 240.906 238.642C241.331 237.03 241.203 235.323 240.543 233.793C239.883 232.263 238.728 230.999 237.264 230.203C235.799 229.408 234.11 229.127 232.467 229.405C230.824 229.684 229.322 230.506 228.202 231.74C226.446 229.999 224.337 228.653 222.017 227.794C222.303 225.984 221.911 224.132 220.916 222.593C219.92 221.054 218.392 219.937 216.624 219.455C214.855 218.974 212.971 219.163 211.334 219.985C209.696 220.807 208.419 222.205 207.748 223.911C206.437 222.999 204.866 222.533 203.269 222.584C201.672 222.634 200.133 223.199 198.882 224.192C197.631 225.186 196.733 226.557 196.322 228.101C195.911 229.645 196.009 231.281 196.601 232.765C195.723 233.089 194.915 233.574 194.217 234.197C192.515 233.57 190.642 233.586 188.952 234.244C187.261 234.902 185.869 236.155 185.038 237.767C184.364 237.02 183.546 236.417 182.633 235.994C182.655 235.812 182.678 235.63 182.687 235.444C182.736 234.406 182.567 233.369 182.191 232.401C181.815 231.432 181.24 230.553 180.504 229.82C179.768 229.087 178.886 228.516 177.916 228.144C176.946 227.772 175.909 227.607 174.871 227.661C173.833 227.714 172.819 227.984 171.892 228.453C170.965 228.923 170.146 229.581 169.489 230.386C168.832 231.19 168.35 232.124 168.076 233.126C167.801 234.128 167.739 235.177 167.894 236.204C166.209 236.663 164.742 237.706 163.754 239.147C162.766 240.588 162.323 242.333 162.503 244.07C154.152 244.315 146.097 244.707 138.4 245.236C137.453 241.918 135.538 238.957 132.9 236.732C130.263 234.506 127.023 233.117 123.593 232.741C120.162 232.366 116.698 233.02 113.641 234.622C110.585 236.223 108.075 238.699 106.431 241.733C105.142 240.758 103.571 240.229 101.954 240.226C100.338 240.223 98.7649 240.747 97.4728 241.719C96.1807 242.69 95.2402 244.055 94.7934 245.609C94.3466 247.162 94.418 248.819 94.9967 250.328C94.6598 250.389 94.3244 250.45 93.9903 250.511C94.0022 250.388 94.0204 250.266 94.0262 250.141C94.0727 249.164 93.9261 248.187 93.5948 247.267C93.2636 246.347 92.7542 245.501 92.0958 244.777C91.4374 244.054 90.6429 243.468 89.7577 243.052C88.8725 242.636 87.914 242.398 86.937 242.353C85.96 242.308 84.9837 242.456 84.0638 242.788C83.144 243.12 82.2987 243.631 81.5762 244.29C80.8538 244.95 80.2684 245.745 79.8535 246.631C79.4386 247.516 79.2024 248.475 79.1583 249.452C79.1548 249.529 79.1605 249.605 79.1593 249.681C78.479 249.423 77.7472 249.33 77.0238 249.409C76.3005 249.488 75.6063 249.738 74.9981 250.137C74.3899 250.537 73.8851 251.075 73.5252 251.708C73.1652 252.34 72.9603 253.049 72.9272 253.776C72.9002 254.359 257.376 246.644 257.39 246.354Z" fill="#D0CDE1"/>
<path d="M26.6367 135.355C26.6469 135.323 26.6577 135.29 26.6679 135.258C26.6635 135.272 26.6579 135.285 26.6536 135.3L26.6367 135.355Z" fill="#2F2E41"/>
<path d="M196.12 231.971L222.368 192.935L196.174 236.17L196.229 240.563C194.313 240.577 192.415 240.545 190.536 240.467L191.838 184.005L191.802 183.569L191.85 183.485L191.975 178.15L163.23 136.414L191.941 174.156L192.043 175.284L193.026 132.625L168.199 89.3541L193.097 125.131L192.837 36.7514L192.838 36.4573L192.846 36.7466L194.494 106.401L217.121 78.1075L194.568 112.402L195.062 150.56L215.884 113.319L195.139 156.17L195.413 177.387L225.694 125.512L195.506 184.789L196.12 231.971Z" fill="#3F3D56"/>
<path d="M190.369 123.736C191.935 123.736 193.204 122.467 193.204 120.901C193.204 119.335 191.935 118.066 190.369 118.066C188.804 118.066 187.534 119.335 187.534 120.901C187.534 122.467 188.804 123.736 190.369 123.736Z" fill="#D0CDE1"/>
<path d="M208.797 166.973C210.363 166.973 211.632 165.703 211.632 164.137C211.632 162.572 210.363 161.302 208.797 161.302C207.231 161.302 205.962 162.572 205.962 164.137C205.962 165.703 207.231 166.973 208.797 166.973Z" fill="#D0CDE1"/>
<path d="M184.7 176.541C186.265 176.541 187.535 175.272 187.535 173.706C187.535 172.14 186.265 170.871 184.7 170.871C183.134 170.871 181.865 172.14 181.865 173.706C181.865 175.272 183.134 176.541 184.7 176.541Z" fill="#D0CDE1"/>
<path d="M175.486 132.242C177.051 132.242 178.321 130.972 178.321 129.407C178.321 127.841 177.051 126.571 175.486 126.571C173.92 126.571 172.651 127.841 172.651 129.407C172.651 130.972 173.92 132.242 175.486 132.242Z" fill="#D0CDE1"/>
<path d="M194.622 123.736C194.622 123.234 194.488 122.74 194.235 122.306C193.981 121.872 193.616 121.514 193.178 121.268C193.245 120.757 193.171 120.239 192.966 119.767C192.76 119.296 192.43 118.889 192.011 118.591C191.592 118.293 191.099 118.114 190.587 118.075C190.074 118.035 189.56 118.136 189.1 118.366C188.64 118.596 188.251 118.947 187.976 119.382C187.7 119.816 187.548 120.317 187.535 120.831C187.523 121.346 187.65 121.854 187.905 122.301C188.159 122.748 188.53 123.118 188.978 123.37C188.927 123.737 188.95 124.111 189.046 124.469C189.142 124.827 189.308 125.162 189.536 125.454C189.338 125.913 189.265 126.416 189.324 126.912C189.383 127.408 189.572 127.879 189.871 128.279C190.171 128.678 190.571 128.991 191.03 129.187C191.49 129.382 191.993 129.453 192.489 129.391C192.984 129.33 193.455 129.139 193.853 128.837C194.251 128.536 194.562 128.135 194.755 127.674C194.949 127.214 195.017 126.71 194.953 126.215C194.89 125.72 194.696 125.25 194.393 124.853C194.544 124.5 194.622 124.12 194.622 123.736V123.736Z" fill="#D0CDE1"/>
<path d="M199.938 95.0302C199.186 95.0302 198.465 95.3289 197.933 95.8606C197.401 96.3923 197.103 97.1134 197.103 97.8654C196.472 97.8658 195.86 98.0764 195.363 98.464C194.865 98.8515 194.512 99.3939 194.357 100.005C193.84 100.053 193.346 100.243 192.929 100.553C192.512 100.863 192.188 101.281 191.993 101.763C191.798 102.244 191.738 102.77 191.822 103.283C191.906 103.796 192.128 104.276 192.466 104.671C192.804 105.066 193.244 105.36 193.738 105.521C194.232 105.683 194.76 105.706 195.266 105.587C195.772 105.469 196.236 105.214 196.606 104.849C196.977 104.485 197.24 104.026 197.368 103.522C198.07 103.456 198.723 103.131 199.199 102.609C199.674 102.087 199.938 101.406 199.938 100.701C200.69 100.701 201.411 100.402 201.942 99.8701C202.474 99.3384 202.773 98.6173 202.773 97.8654C202.773 97.1134 202.474 96.3923 201.942 95.8606C201.411 95.3289 200.69 95.0302 199.938 95.0302V95.0302Z" fill="#D0CDE1"/>
<path d="M140.048 142.874C141.222 142.874 142.174 141.922 142.174 140.747C142.174 139.573 141.222 138.621 140.048 138.621C138.874 138.621 137.922 139.573 137.922 140.747C137.922 141.922 138.874 142.874 140.048 142.874Z" fill="#D0CDE1"/>
<path d="M163.082 168.39C164.257 168.39 165.209 167.438 165.209 166.264C165.209 165.089 164.257 164.137 163.082 164.137C161.908 164.137 160.956 165.089 160.956 166.264C160.956 167.438 161.908 168.39 163.082 168.39Z" fill="#D0CDE1"/>
<path d="M266.561 70.9313C268.126 70.9313 269.396 69.662 269.396 68.0962C269.396 66.5303 268.126 65.261 266.561 65.261C264.995 65.261 263.726 66.5303 263.726 68.0962C263.726 69.662 264.995 70.9313 266.561 70.9313Z" fill="#D0CDE1"/>
<path d="M288.178 37.6182C289.352 37.6182 290.304 36.6662 290.304 35.4918C290.304 34.3174 289.352 33.3654 288.178 33.3654C287.003 33.3654 286.051 34.3174 286.051 35.4918C286.051 36.6662 287.003 37.6182 288.178 37.6182Z" fill="#D0CDE1"/>
<path d="M311.212 63.1346C312.387 63.1346 313.338 62.1826 313.338 61.0083C313.338 59.8339 312.387 58.8819 311.212 58.8819C310.038 58.8819 309.086 59.8339 309.086 61.0083C309.086 62.1826 310.038 63.1346 311.212 63.1346Z" fill="#D0CDE1"/>
<path d="M339.917 122.319C341.482 122.319 342.752 121.049 342.752 119.484C342.752 117.918 341.482 116.648 339.917 116.648C338.351 116.648 337.082 117.918 337.082 119.484C337.082 121.049 338.351 122.319 339.917 122.319Z" fill="#D0CDE1"/>
<path d="M301.928 92.9393C303.102 92.9393 304.054 91.9873 304.054 90.8129C304.054 89.6385 303.102 88.6865 301.928 88.6865C300.753 88.6865 299.801 89.6385 299.801 90.8129C299.801 91.9873 300.753 92.9393 301.928 92.9393Z" fill="#D0CDE1"/>
<path d="M242.108 169.099C243.674 169.099 244.943 167.83 244.943 166.264C244.943 164.698 243.674 163.429 242.108 163.429C240.543 163.429 239.273 164.698 239.273 166.264C239.273 167.83 240.543 169.099 242.108 169.099Z" fill="#D0CDE1"/>
<path d="M275.774 171.58C276.949 171.58 277.901 170.628 277.901 169.453C277.901 168.279 276.949 167.327 275.774 167.327C274.6 167.327 273.648 168.279 273.648 169.453C273.648 170.628 274.6 171.58 275.774 171.58Z" fill="#D0CDE1"/>
<path d="M67.0462 79.0824C68.6119 79.0824 69.8812 77.8131 69.8812 76.2473C69.8812 74.6815 68.6119 73.4121 67.0462 73.4121C65.4805 73.4121 64.2112 74.6815 64.2112 76.2473C64.2112 77.8131 65.4805 79.0824 67.0462 79.0824Z" fill="#D0CDE1"/>
<path d="M64.2112 56.4011C65.3855 56.4011 66.3375 55.4491 66.3375 54.2747C66.3375 53.1003 65.3855 52.1483 64.2112 52.1483C63.0369 52.1483 62.085 53.1003 62.085 54.2747C62.085 55.4491 63.0369 56.4011 64.2112 56.4011Z" fill="#D0CDE1"/>
<path d="M62.085 211.626C63.2593 211.626 64.2113 210.674 64.2113 209.5C64.2113 208.326 63.2593 207.374 62.085 207.374C60.9107 207.374 59.9587 208.326 59.9587 209.5C59.9587 210.674 60.9107 211.626 62.085 211.626Z" fill="#D0CDE1"/>
<path d="M145.009 218.36C146.184 218.36 147.136 217.408 147.136 216.234C147.136 215.059 146.184 214.107 145.009 214.107C143.835 214.107 142.883 215.059 142.883 216.234C142.883 217.408 143.835 218.36 145.009 218.36Z" fill="#D0CDE1"/>
<path d="M316.173 177.959C317.739 177.959 319.008 176.689 319.008 175.124C319.008 173.558 317.739 172.288 316.173 172.288C314.608 172.288 313.338 173.558 313.338 175.124C313.338 176.689 314.608 177.959 316.173 177.959Z" fill="#D0CDE1"/>
<path d="M356.927 195.679C358.101 195.679 359.053 194.727 359.053 193.552C359.053 192.378 358.101 191.426 356.927 191.426C355.752 191.426 354.801 192.378 354.801 193.552C354.801 194.727 355.752 195.679 356.927 195.679Z" fill="#D0CDE1"/>
<path d="M122.683 102.118C123.858 102.118 124.81 101.166 124.81 99.9917C124.81 98.8174 123.858 97.8654 122.683 97.8654C121.509 97.8654 120.557 98.8174 120.557 99.9917C120.557 101.166 121.509 102.118 122.683 102.118Z" fill="#D0CDE1"/>
<path d="M239.273 209.146C240.839 209.146 242.108 207.876 242.108 206.31C242.108 204.745 240.839 203.475 239.273 203.475C237.708 203.475 236.438 204.745 236.438 206.31C236.438 207.876 237.708 209.146 239.273 209.146Z" fill="#D0CDE1"/>
<path d="M140.048 20.2527C141.222 20.2527 142.174 19.3007 142.174 18.1264C142.174 16.952 141.222 16 140.048 16C138.874 16 137.922 16.952 137.922 18.1264C137.922 19.3007 138.874 20.2527 140.048 20.2527Z" fill="#D0CDE1"/>
<path d="M163.082 45.7692C164.257 45.7692 165.209 44.8172 165.209 43.6429C165.209 42.4685 164.257 41.5165 163.082 41.5165C161.908 41.5165 160.956 42.4685 160.956 43.6429C160.956 44.8172 161.908 45.7692 163.082 45.7692Z" fill="#D0CDE1"/>
<path d="M158.121 73.412C159.295 73.412 160.247 72.46 160.247 71.2857C160.247 70.1113 159.295 69.1593 158.121 69.1593C156.947 69.1593 155.995 70.1113 155.995 71.2857C155.995 72.46 156.947 73.412 158.121 73.412Z" fill="#D0CDE1"/>
<path d="M222.972 39.7445C224.538 39.7445 225.807 38.4751 225.807 36.9093C225.807 35.3435 224.538 34.0742 222.972 34.0742C221.407 34.0742 220.137 35.3435 220.137 36.9093C220.137 38.4751 221.407 39.7445 222.972 39.7445Z" fill="#D0CDE1"/>
<path d="M245.085 102.771C246.26 102.771 247.212 101.819 247.212 100.645C247.212 99.4705 246.26 98.5184 245.085 98.5184C243.911 98.5184 242.959 99.4705 242.959 100.645C242.959 101.819 243.911 102.771 245.085 102.771Z" fill="#D0CDE1"/>
<path d="M296.683 140.747C297.857 140.747 298.809 139.795 298.809 138.621C298.809 137.447 297.857 136.495 296.683 136.495C295.508 136.495 294.556 137.447 294.556 138.621C294.556 139.795 295.508 140.747 296.683 140.747Z" fill="#D0CDE1"/>
<path d="M79.8038 139.684C80.9781 139.684 81.93 138.732 81.93 137.558C81.93 136.383 80.9781 135.431 79.8038 135.431C78.6294 135.431 77.6775 136.383 77.6775 137.558C77.6775 138.732 78.6294 139.684 79.8038 139.684Z" fill="#D0CDE1"/>
<path d="M47.91 180.44C49.0843 180.44 50.0362 179.488 50.0362 178.313C50.0362 177.139 49.0843 176.187 47.91 176.187C46.7357 176.187 45.7837 177.139 45.7837 178.313C45.7837 179.488 46.7357 180.44 47.91 180.44Z" fill="#D0CDE1"/>
<path d="M127.999 152.442C131.131 152.442 133.669 149.904 133.669 146.772C133.669 143.64 131.131 141.102 127.999 141.102C124.868 141.102 122.329 143.64 122.329 146.772C122.329 149.904 124.868 152.442 127.999 152.442Z" fill="#D0CDE1"/>
<path d="M295.442 215.17L298.632 211.981L300.404 213.753L297.569 218.36L295.442 215.17Z" fill="#FFB8B8"/>
<path d="M296.86 211.981L298.986 210.563C298.986 210.563 304.302 203.475 306.428 207.019C308.554 210.563 302.53 214.107 302.53 214.107L300.758 216.233L296.86 211.981Z" fill="#FF6584"/>
<path opacity="0.15" d="M296.86 211.981L298.986 210.563C298.986 210.563 304.302 203.475 306.428 207.019C308.554 210.563 302.53 214.107 302.53 214.107L300.758 216.233L296.86 211.981Z" fill="black"/>
<path d="M277.723 218.714H289.063L295.797 214.107L299.695 219.423L290.481 226.511L280.913 228.283L277.723 218.714Z" fill="#F50057"/>
<path opacity="0.15" d="M277.723 218.714H289.063L295.797 214.107L299.695 219.423L290.481 226.511L280.913 228.283L277.723 218.714Z" fill="black"/>
<path d="M282.33 238.738C282.33 238.738 292.607 250.078 290.835 252.913C289.064 255.749 285.165 255.749 284.457 255.394C283.748 255.04 273.471 249.37 273.471 249.37L274.888 244.762C274.888 244.762 272.762 239.801 274.888 239.446C277.015 239.092 282.33 238.738 282.33 238.738Z" fill="#2F2E41"/>
<path d="M275.597 244.762C275.597 244.762 268.864 239.446 267.446 240.51C266.029 241.573 261.422 248.306 262.131 251.496C262.84 254.685 262.131 255.749 264.257 255.394C266.383 255.04 266.738 251.496 266.738 251.496L274.18 248.661L275.597 244.762Z" fill="#2F2E41"/>
<path opacity="0.15" d="M277.819 245.676L277.628 245.975L285.425 250.937L285.615 250.638L277.819 245.676Z" fill="black"/>
<path d="M277.723 210.386C280.659 210.386 283.039 208.006 283.039 205.07C283.039 202.134 280.659 199.754 277.723 199.754C274.788 199.754 272.408 202.134 272.408 205.07C272.408 208.006 274.788 210.386 277.723 210.386Z" fill="#FFB8B8"/>
<path d="M271.345 211.095C271.345 211.095 269.927 214.639 269.927 223.144C269.927 231.65 264.966 235.548 268.864 239.801C272.762 244.054 288.128 241.353 288.128 241.353C288.128 241.353 287.962 241.485 288 241.218C288.355 238.738 284.457 212.867 283.039 212.512C281.622 212.158 271.345 211.095 271.345 211.095Z" fill="#F50057"/>
<path d="M295.442 209.323L298.632 206.133L300.404 207.905L297.569 212.512L295.442 209.323Z" fill="#FFB8B8"/>
<path d="M267.601 204.651C266.428 204.823 265.132 204.955 264.301 205.313C263.211 205.783 263.274 206.488 263.57 207.104C263.866 207.72 264.329 208.361 263.835 208.959C263.548 209.306 262.96 209.604 262.501 209.923C262.043 210.243 261.705 210.618 261.976 210.967C262.259 211.332 263.127 211.579 263.736 211.881C265.052 212.533 265.071 213.517 263.78 214.177C264.891 213.508 267.012 213.21 268.957 212.925C270.903 212.64 272.993 212.262 273.809 211.534C274.641 210.792 273.867 209.928 274.299 209.138C274.668 208.463 275.874 207.907 276.837 207.323C277.8 206.738 278.559 206.017 277.925 205.371C277.458 204.894 276.261 204.478 276.489 203.977C276.629 203.667 277.288 203.435 277.761 203.177C278.234 202.918 278.498 202.532 277.902 202.313C275.738 202.703 273.535 203.072 271.4 203.485C270.084 203.74 269.304 204.651 267.601 204.651Z" fill="#2F2E41"/>
<path d="M277.723 212.867H289.063L295.797 208.26L299.695 213.576L290.481 220.663L280.913 222.435L277.723 212.867Z" fill="#F50057"/>
<path d="M306.39 210.918C306.39 210.918 316.313 205.956 316.313 204.184C316.313 202.412 312.415 197.096 305.327 197.096C305.327 197.096 303.555 193.907 301.429 196.387C299.303 198.868 302.492 200.64 302.492 200.64C302.492 200.64 298.594 207.019 304.264 210.918H306.39Z" fill="#F50057"/>
<path d="M219.428 152.797C222.56 152.797 225.098 150.258 225.098 147.126C225.098 143.995 222.56 141.456 219.428 141.456C216.297 141.456 213.758 143.995 213.758 147.126C213.758 150.258 216.297 152.797 219.428 152.797Z" fill="#FF6584"/>
<path d="M215.679 147.207L214.056 145.04L214.34 144.827L215.736 146.691L218.188 144.59L220.66 146.708L222.795 144.572L225.047 146.824L224.796 147.074L222.795 145.073L220.678 147.19L218.188 145.056L215.679 147.207Z" fill="#575A89"/>
<path d="M215.328 150.009L213.72 147.861L213.968 147.676L215.378 149.56L217.834 147.455L220.306 149.574L222.44 147.439L224.676 149.675L224.457 149.893L222.44 147.876L220.323 149.995L217.834 147.861L215.328 150.009Z" fill="#575A89"/>
<path d="M219.428 137.381H219.074V141.633H219.428V137.381Z" fill="#575A89"/>
<path d="M208.797 106.371C211.929 106.371 214.467 103.832 214.467 100.701C214.467 97.5689 211.929 95.0302 208.797 95.0302C205.666 95.0302 203.127 97.5689 203.127 100.701C203.127 103.832 205.666 106.371 208.797 106.371Z" fill="#FF6584"/>
<path d="M205.048 100.781L203.425 98.614L203.709 98.4015L205.105 100.266L207.557 98.1637L210.028 100.282L212.164 98.1464L214.415 100.398L214.165 100.649L212.164 98.6476L210.047 100.765L207.557 98.6303L205.048 100.781Z" fill="#575A89"/>
<path d="M204.697 103.583L203.089 101.435L203.336 101.25L204.746 103.134L207.203 101.029L209.675 103.148L211.809 101.014L214.045 103.249L213.826 103.468L211.809 101.451L209.691 103.569L207.203 101.435L204.697 103.583Z" fill="#575A89"/>
<path d="M208.797 90.9547H208.443V95.2075H208.797V90.9547Z" fill="#575A89"/>
<path d="M165.209 154.569C168.34 154.569 170.879 152.03 170.879 148.898C170.879 145.767 168.34 143.228 165.209 143.228C162.077 143.228 159.539 145.767 159.539 148.898C159.539 152.03 162.077 154.569 165.209 154.569Z" fill="#FF6584"/>
<path d="M161.459 148.979L159.837 146.812L160.12 146.599L161.516 148.463L163.969 146.361L166.44 148.48L168.575 146.344L170.827 148.596L170.576 148.846L168.575 146.845L166.458 148.962L163.969 146.828L161.459 148.979Z" fill="#575A89"/>
<path d="M161.108 151.781L159.5 149.633L159.748 149.448L161.158 151.332L163.614 149.227L166.086 151.346L168.221 149.212L170.456 151.447L170.238 151.665L168.221 149.649L166.103 151.766L163.614 149.633L161.108 151.781Z" fill="#575A89"/>
<path d="M165.209 139.152H164.854V143.405H165.209V139.152Z" fill="#575A89"/>
<path d="M197.984 44.7701L193.156 41.1464L188.217 44.6194L190.171 38.9068L185.342 35.2827L191.379 35.376L193.333 29.6633L195.11 35.4337L201.146 35.527L196.208 39L197.984 44.7701Z" fill="#F50057"/>
<path d="M257.735 242.821C257.809 241.25 257.383 239.695 256.518 238.382C255.653 237.068 254.394 236.062 252.921 235.509C251.449 234.956 249.839 234.884 248.323 235.304C246.807 235.724 245.463 236.614 244.485 237.845C243.694 236.639 242.571 235.689 241.251 235.109C241.676 233.497 241.549 231.79 240.888 230.26C240.228 228.73 239.073 227.465 237.609 226.67C236.144 225.874 234.455 225.593 232.812 225.872C231.17 226.151 229.668 226.973 228.548 228.207C226.791 226.465 224.682 225.12 222.362 224.261C222.649 222.451 222.256 220.598 221.261 219.06C220.266 217.521 218.737 216.403 216.969 215.922C215.2 215.441 213.317 215.63 211.679 216.452C210.041 217.274 208.764 218.672 208.094 220.378C206.782 219.465 205.211 219 203.614 219.051C202.017 219.101 200.478 219.665 199.227 220.659C197.976 221.653 197.078 223.024 196.667 224.568C196.256 226.112 196.354 227.748 196.946 229.232C196.069 229.555 195.26 230.041 194.562 230.663C192.86 230.036 190.987 230.053 189.297 230.711C187.606 231.368 186.214 232.621 185.383 234.234C184.71 233.487 183.892 232.883 182.978 232.461C183 232.279 183.023 232.097 183.032 231.911C183.081 230.873 182.912 229.836 182.536 228.868C182.16 227.899 181.586 227.02 180.849 226.287C180.113 225.553 179.232 224.982 178.261 224.611C177.291 224.239 176.254 224.074 175.216 224.128C174.179 224.181 173.164 224.451 172.237 224.92C171.31 225.389 170.491 226.048 169.834 226.852C169.177 227.657 168.696 228.591 168.421 229.593C168.146 230.595 168.084 231.643 168.24 232.671C166.554 233.13 165.087 234.173 164.099 235.614C163.112 237.054 162.668 238.799 162.848 240.537C154.497 240.782 146.442 241.173 138.745 241.702C137.798 238.384 135.883 235.424 133.246 233.198C130.608 230.973 127.368 229.584 123.938 229.208C120.508 228.832 117.043 229.487 113.987 231.088C110.93 232.69 108.42 235.166 106.776 238.2C105.487 237.225 103.916 236.695 102.3 236.693C100.683 236.69 99.1101 237.214 97.818 238.185C96.5259 239.157 95.5854 240.522 95.1386 242.076C94.6919 243.629 94.7632 245.286 95.3419 246.795C95.005 246.856 94.6696 246.917 94.3355 246.978C94.3474 246.854 94.3657 246.733 94.3715 246.608C94.4179 245.631 94.2713 244.654 93.94 243.734C93.6088 242.813 93.0994 241.967 92.441 241.244C91.7826 240.521 90.9881 239.934 90.1029 239.519C89.2177 239.103 88.2592 238.865 87.2822 238.82C86.3052 238.775 85.3289 238.922 84.409 239.255C83.4892 239.587 82.6439 240.098 81.9214 240.757C81.199 241.416 80.6136 242.212 80.1987 243.097C79.7838 243.983 79.5476 244.942 79.5036 245.919C79.5 245.996 79.5057 246.071 79.5045 246.148C78.8242 245.89 78.0924 245.796 77.3691 245.876C76.6457 245.955 75.9515 246.205 75.3433 246.604C74.7351 247.004 74.2304 247.542 73.8704 248.174C73.5104 248.807 73.3055 249.515 73.2725 250.242C73.2454 250.826 257.722 243.11 257.735 242.821Z" fill="#D0CDE1"/>
<path d="M77.1211 273.915C77.4012 273.929 77.6803 273.957 77.9574 274H75.615C76.1125 273.918 76.6175 273.889 77.1211 273.915V273.915Z" fill="#D0CDE1"/>
<path d="M110.943 274H82.1179C83.7054 271.635 85.8505 269.697 88.364 268.357C90.8774 267.017 93.6821 266.316 96.5304 266.316C99.3788 266.316 102.183 267.017 104.697 268.357C107.21 269.697 109.355 271.635 110.943 274V274Z" fill="#D0CDE1"/>
<path d="M52.825 274H24C25.5875 271.635 27.7326 269.697 30.2461 268.357C32.7595 267.017 35.5641 266.316 38.4125 266.316C41.2609 266.316 44.0655 267.017 46.579 268.357C49.0924 269.697 51.2375 271.635 52.825 274V274Z" fill="#D0CDE1"/>
<path d="M69.835 274H41.01C42.5975 271.635 44.7426 269.697 47.2561 268.357C49.7695 267.017 52.5742 266.316 55.4225 266.316C58.2709 266.316 61.0755 267.017 63.589 268.357C66.1025 269.697 68.2475 271.635 69.835 274Z" fill="#D0CDE1"/>
<path d="M149.924 257.698H121.099C122.687 255.333 124.832 253.395 127.345 252.055C129.859 250.714 132.664 250.013 135.512 250.013C138.36 250.013 141.165 250.714 143.678 252.055C146.192 253.395 148.337 255.333 149.924 257.698V257.698Z" fill="#D0CDE1"/>
<path d="M265.451 265.849H236.626C238.214 263.484 240.359 261.546 242.872 260.206C245.386 258.866 248.19 258.165 251.039 258.165C253.887 258.165 256.692 258.866 259.205 260.206C261.719 261.546 263.864 263.484 265.451 265.849V265.849Z" fill="#D0CDE1"/>
<path d="M215.736 272.32C216.636 272.718 217.45 273.289 218.131 274H137.939C138.388 273.006 139.048 272.122 139.875 271.411C140.701 270.699 141.674 270.177 142.724 269.882C142.65 269.402 142.626 268.917 142.649 268.432C142.694 267.456 142.931 266.498 143.346 265.613C143.761 264.728 144.347 263.933 145.069 263.275C145.792 262.616 146.637 262.106 147.556 261.774C148.476 261.442 149.451 261.295 150.428 261.34C151.404 261.386 152.362 261.623 153.247 262.039C154.132 262.455 154.926 263.041 155.584 263.763C156.242 264.486 156.752 265.332 157.083 266.251C157.414 267.171 157.561 268.147 157.515 269.124C157.508 269.308 157.487 269.489 157.462 269.673C158.376 270.094 159.195 270.697 159.868 271.445C160.7 269.833 162.092 268.581 163.782 267.924C165.473 267.267 167.345 267.25 169.047 267.876C169.744 267.253 170.554 266.767 171.432 266.444C171.038 265.465 170.861 264.412 170.911 263.357C170.97 262.029 171.385 260.741 172.112 259.628C172.839 258.515 173.851 257.617 175.042 257.028C176.234 256.438 177.562 256.18 178.888 256.278C180.214 256.377 181.489 256.829 182.58 257.588C183.226 255.948 184.432 254.591 185.985 253.758C187.538 252.925 189.336 252.67 191.059 253.039C192.782 253.407 194.319 254.376 195.394 255.772C196.47 257.168 197.015 258.9 196.933 260.661C196.919 260.932 196.89 261.203 196.848 261.472C199.166 262.331 201.275 263.676 203.031 265.417C204.151 264.18 205.653 263.356 207.298 263.076C208.942 262.796 210.632 263.077 212.098 263.873C213.563 264.669 214.719 265.935 215.379 267.467C216.038 268.999 216.164 270.708 215.736 272.32V272.32Z" fill="#D0CDE1"/>
<path d="M295.127 274H281.448C282.021 272.661 282.975 271.519 284.191 270.717C285.406 269.915 286.831 269.488 288.287 269.488C289.744 269.488 291.169 269.915 292.384 270.717C293.6 271.519 294.554 272.661 295.127 274V274Z" fill="#D0CDE1"/>
<path d="M352.621 274H309.433C309.183 273.195 309.076 272.351 309.118 271.509C309.178 270.18 309.592 268.893 310.319 267.779C311.046 266.666 312.058 265.768 313.25 265.179C314.441 264.59 315.769 264.331 317.095 264.429C318.421 264.528 319.696 264.98 320.787 265.739C321.433 264.099 322.64 262.742 324.192 261.909C325.745 261.076 327.543 260.821 329.266 261.19C330.989 261.559 332.526 262.527 333.601 263.923C334.677 265.319 335.222 267.051 335.14 268.812C335.126 269.084 335.097 269.354 335.055 269.623C337.373 270.483 339.482 271.827 341.239 273.568C341.968 272.764 342.865 272.13 343.865 271.71C344.866 271.289 345.946 271.093 347.03 271.134C348.115 271.175 349.177 271.453 350.143 271.948C351.109 272.443 351.955 273.144 352.621 274V274Z" fill="#D0CDE1"/>
<path d="M229.585 274H220.002C221.342 272.867 223.039 272.245 224.794 272.245C226.548 272.245 228.245 272.867 229.585 274V274Z" fill="#D0CDE1"/>
<path d="M103.076 171.208C106.564 171.208 109.39 168.381 109.39 164.893C109.39 161.406 106.564 158.579 103.076 158.579C99.5893 158.579 96.7625 161.406 96.7625 164.893C96.7625 168.381 99.5893 171.208 103.076 171.208Z" fill="#A0616A"/>
<path d="M104.562 156.842C106.812 156.983 108.899 158.026 110.85 159.156C110.688 159.074 110.503 159.048 110.325 159.084C110.147 159.119 109.986 159.212 109.867 159.35C109.606 159.602 109.443 159.939 109.192 160.201C108.727 160.688 108.028 160.857 107.371 161.003L104.305 161.685L101.462 162.318C100.756 162.522 100.017 162.59 99.2852 162.518C98.5615 162.398 97.8453 161.932 97.6562 161.223C97.3935 160.238 99.3506 158.773 100.068 158.181C101.348 157.192 102.95 156.715 104.562 156.842Z" fill="#2F2E41"/>
<path d="M98.7865 162.009C100.112 160.148 102.18 158.938 104.255 157.894C103.906 158.032 103.817 158.484 103.911 158.852C104.004 159.219 104.227 159.551 104.335 159.916C104.535 160.593 104.319 161.291 104.104 161.942L103.101 164.973L102.172 167.784C101.985 168.507 101.654 169.184 101.198 169.776C100.954 170.071 100.632 170.29 100.268 170.409C99.9036 170.528 99.5134 170.542 99.1422 170.448C98.0977 170.117 97.7914 167.599 97.628 166.644C97.3933 165.007 97.8092 163.343 98.7865 162.009V162.009Z" fill="#2F2E41"/>
<path d="M130.561 160.065C130.561 160.065 130.932 151.894 132.789 152.265C134.646 152.636 133.161 160.808 133.161 160.808L130.561 160.065Z" fill="#A0616A"/>
<path d="M130.19 174.179L121.845 180.223L119.418 181.98L113.105 173.065L117.045 171.511L125.361 168.236L130.19 158.578L134.274 159.693C135.019 161.55 130.19 174.179 130.19 174.179Z" fill="#575A89"/>
<path d="M117.19 158.208C117.19 158.208 116.076 148.551 118.304 149.294C120.533 150.036 120.161 159.322 120.161 159.322L117.19 158.208Z" fill="#A0616A"/>
<path d="M100.274 244.78L98.1313 250.385L104.102 252.151L103.988 244.723L100.274 244.78Z" fill="#575A89"/>
<path d="M117.887 206.249L111.948 230.857L106.245 246.546L98.8174 246.66L105.567 226.497L108.197 204.168L117.887 206.249Z" fill="#2F2E41"/>
<path d="M97.2993 249.774C97.2993 249.774 95.0382 254.587 96.5629 255.246C98.0875 255.905 102.229 256.79 102.229 256.79L102.797 256.312C102.797 256.312 112.365 258.457 113.967 255.169C115.57 251.88 108.05 250.439 108.05 250.439L104.613 247.506L100.484 249.522L97.2993 249.774Z" fill="#2F2E41"/>
<path d="M92.4585 243.785L90.3157 249.39L96.2859 251.156L96.1722 243.728L92.4585 243.785Z" fill="#575A89"/>
<path d="M99.9601 204.849L97.7679 226.616L90.9846 244.551L97.3319 246.682L107.069 227.588L111.562 205.603L99.9601 204.849Z" fill="#2F2E41"/>
<path d="M89.082 248.986C89.082 248.986 85.5383 252.951 86.8107 254.019C88.0831 255.087 91.7979 257.12 91.7979 257.12L92.4795 256.824C92.4795 256.824 101.034 261.617 103.51 258.925C105.986 256.232 99.1925 252.7 99.1925 252.7L96.7384 248.906L92.206 249.656L89.082 248.986Z" fill="#2F2E41"/>
<path opacity="0.15" d="M121.845 180.223L119.418 181.98L113.105 173.065L114.862 172.752C114.959 172.913 116.481 172.873 116.581 173.039C118.424 176.057 121.08 178.607 121.845 180.223Z" fill="black"/>
<path d="M125.751 210.008C125.321 209.73 125.221 206.823 124.605 206.569C124.292 206.44 123.527 208.955 123.172 208.832C113.963 205.646 93.378 212.477 89.9304 204.849C87.6126 199.721 102.333 189.778 102.333 186.064C102.284 185.118 102.113 184.183 101.823 183.281C101.121 180.822 99.8141 177.727 98.7595 175.392C97.8568 173.391 97.1347 171.95 97.1347 171.95C97.1347 171.95 107.964 168.732 111.434 167.488C111.876 167.33 112.197 167.204 112.363 167.121C113.028 166.789 114.736 169.139 116.486 172.001C118.641 175.529 120.865 179.839 121.275 180.865C122.017 182.722 132.064 214.094 125.751 210.008Z" fill="#575A89"/>
<path opacity="0.15" d="M115.148 171.319C111.128 176.16 106.801 181.946 103.075 183.04C102.667 183.164 102.248 183.244 101.823 183.281C101.121 180.822 99.8141 177.727 98.7595 175.392C99.1888 174.92 99.7031 174.534 100.275 174.254L110.348 169.296L111.434 167.488C111.876 167.33 112.197 167.204 112.363 167.121C113.028 166.789 113.397 168.456 115.148 171.319Z" fill="black"/>
<path d="M100.275 172.821C97.5242 174.176 96.5218 177.696 98.3041 180.191C99.229 181.486 100.709 182.304 103.077 181.608C109.391 179.751 121.276 166.379 121.276 162.294V158.579L116.819 157.094L110.348 167.863L100.275 172.821Z" fill="#575A89"/>
<path d="M116.96 174.545C117.218 174.361 117.129 173.794 116.761 173.279C116.393 172.764 115.886 172.495 115.629 172.679C115.371 172.863 115.46 173.43 115.828 173.945C116.196 174.46 116.703 174.729 116.96 174.545Z" fill="#2F2E41"/>
<path d="M118.68 177.697C118.938 177.514 118.848 176.947 118.48 176.431C118.113 175.916 117.606 175.647 117.348 175.831C117.09 176.015 117.18 176.582 117.547 177.097C117.915 177.613 118.422 177.881 118.68 177.697Z" fill="#2F2E41"/>
<path d="M120.112 181.136C120.37 180.953 120.281 180.386 119.913 179.87C119.545 179.355 119.038 179.086 118.781 179.27C118.523 179.454 118.612 180.021 118.98 180.536C119.348 181.052 119.855 181.32 120.112 181.136Z" fill="#2F2E41"/>
<path d="M120.677 184.727C120.977 184.625 121.053 184.056 120.849 183.457C120.644 182.858 120.235 182.455 119.936 182.558C119.636 182.66 119.559 183.229 119.764 183.828C119.969 184.427 120.377 184.829 120.677 184.727Z" fill="#2F2E41"/>
<path d="M121.823 188.166C122.123 188.064 122.2 187.495 121.995 186.896C121.79 186.297 121.381 185.894 121.082 185.997C120.782 186.099 120.705 186.668 120.91 187.267C121.115 187.866 121.524 188.268 121.823 188.166Z" fill="#2F2E41"/>
<path d="M122.969 191.318C123.269 191.216 123.346 190.647 123.141 190.048C122.936 189.449 122.528 189.047 122.228 189.149C121.929 189.251 121.852 189.82 122.056 190.419C122.261 191.018 122.67 191.421 122.969 191.318Z" fill="#2F2E41"/>
<path d="M123.543 194.757C123.842 194.655 123.919 194.086 123.714 193.487C123.51 192.888 123.101 192.486 122.801 192.588C122.502 192.69 122.425 193.259 122.63 193.858C122.834 194.457 123.243 194.86 123.543 194.757Z" fill="#2F2E41"/>
<path d="M124.116 198.196C124.415 198.094 124.492 197.525 124.288 196.926C124.083 196.327 123.674 195.924 123.375 196.027C123.075 196.129 122.998 196.698 123.203 197.297C123.408 197.896 123.816 198.299 124.116 198.196Z" fill="#2F2E41"/>
<path d="M124.689 201.922C124.988 201.819 125.065 201.251 124.861 200.652C124.656 200.053 124.247 199.65 123.948 199.752C123.648 199.855 123.571 200.423 123.776 201.022C123.981 201.622 124.389 202.024 124.689 201.922Z" fill="#2F2E41"/>
<path d="M124.976 205.647C125.275 205.545 125.352 204.976 125.147 204.377C124.943 203.778 124.534 203.376 124.234 203.478C123.935 203.58 123.858 204.149 124.063 204.748C124.267 205.347 124.676 205.75 124.976 205.647Z" fill="#2F2E41"/>
<path d="M99.7606 168.706C99.7606 168.706 108.244 158.816 107.437 156.897C106.631 154.979 99.9896 150.999 92.3162 154.226C92.3162 154.226 88.9455 151.58 87.773 155.234C86.6006 158.888 90.8605 159.354 90.8605 159.354C90.8605 159.354 89.5447 168.036 97.4585 169.674L99.7606 168.706Z" fill="#F50057"/>
<path d="M237.147 252.736C240.279 252.736 242.817 250.198 242.817 247.066C242.817 243.934 240.279 241.396 237.147 241.396C234.016 241.396 231.477 243.934 231.477 247.066C231.477 250.198 234.016 252.736 237.147 252.736Z" fill="#FF6584"/>
<path d="M233.398 247.147L231.775 244.979L232.059 244.767L233.455 246.631L235.907 244.529L238.378 246.648L240.514 244.512L242.765 246.763L242.515 247.014L240.514 245.013L238.397 247.13L235.907 244.996L233.398 247.147Z" fill="#575A89"/>
<path d="M233.047 249.949L231.439 247.801L231.686 247.615L233.096 249.499L235.552 247.394L238.025 249.514L240.159 247.379L242.395 249.615L242.176 249.833L240.159 247.816L238.041 249.934L235.552 247.801L233.047 249.949Z" fill="#575A89"/>
<path d="M237.147 237.32H236.793V241.573H237.147V237.32Z" fill="#575A89"/>
<path d="M218.181 252.537C221.313 252.537 223.851 249.998 223.851 246.867C223.851 243.735 221.313 241.196 218.181 241.196C215.05 241.196 212.511 243.735 212.511 246.867C212.511 249.998 215.05 252.537 218.181 252.537Z" fill="#F50057"/>
<path d="M214.834 248.557L212.435 247.302L212.599 246.988L214.663 248.068L215.968 245.113L219.112 245.958L220.116 243.11L223.119 244.169L223.001 244.503L220.333 243.562L219.336 246.385L216.169 245.534L214.834 248.557Z" fill="#575A89"/>
<path d="M215.585 250.935L213.353 249.983L213.474 249.699L215.447 250.541L216.89 247.862L219.9 248.423L221.041 245.863L223.867 246.613L223.788 246.912L221.216 246.229L220.083 248.771L217.055 248.206L215.585 250.935Z" fill="#575A89"/>
<path d="M213.976 238.075L213.657 238.228L215.492 242.064L215.811 241.911L213.976 238.075Z" fill="#575A89"/>
<path d="M167.247 249.343C170.379 249.343 172.917 246.805 172.917 243.673C172.917 240.541 170.379 238.003 167.247 238.003C164.116 238.003 161.577 240.541 161.577 243.673C161.577 246.805 164.116 249.343 167.247 249.343Z" fill="#F50057"/>
<path d="M163.685 242.501L162.876 239.918L163.214 239.812L163.91 242.034L166.922 240.868L168.548 243.688L171.272 242.385L172.646 245.258L172.326 245.41L171.105 242.857L168.405 244.149L166.767 241.308L163.685 242.501Z" fill="#575A89"/>
<path d="M171.069 247.956L169.838 245.383L167.136 246.675L165.499 243.835L162.422 245.027L161.62 242.466L161.915 242.374L162.618 244.619L165.635 243.452L167.261 246.273L169.984 244.971L171.348 247.823L171.069 247.956Z" fill="#575A89"/>
<path d="M170.156 234.365L168.741 238.375L169.075 238.493L170.49 234.483L170.156 234.365Z" fill="#575A89"/>
<path d="M287.208 232.841C287.496 232.796 287.605 231.975 287.452 231.009C287.298 230.042 286.941 229.295 286.654 229.341C286.366 229.387 286.257 230.207 286.41 231.174C286.563 232.14 286.921 232.887 287.208 232.841Z" fill="#575A89"/>
<path d="M286.499 227.88C286.787 227.834 286.896 227.014 286.743 226.047C286.59 225.08 286.232 224.334 285.945 224.379C285.657 224.425 285.548 225.245 285.701 226.212C285.855 227.179 286.212 227.925 286.499 227.88Z" fill="#575A89"/>
<path d="M287.917 237.448C288.204 237.403 288.313 236.582 288.16 235.616C288.007 234.649 287.65 233.902 287.362 233.948C287.075 233.994 286.966 234.814 287.119 235.781C287.272 236.747 287.629 237.494 287.917 237.448Z" fill="#575A89"/>
<path d="M288.159 241.715C288.449 241.688 288.61 240.876 288.519 239.902C288.428 238.928 288.119 238.16 287.829 238.187C287.539 238.214 287.378 239.026 287.469 240C287.56 240.974 287.869 241.742 288.159 241.715Z" fill="#575A89"/>
<path d="M296.163 212.327C296.855 211.635 297.249 210.907 297.043 210.701C296.837 210.495 296.109 210.889 295.417 211.581C294.726 212.273 294.331 213.001 294.537 213.207C294.743 213.413 295.471 213.019 296.163 212.327Z" fill="#575A89"/>
<path d="M282.793 202.931C282.044 202.846 281.404 203.431 280.878 203.971C280.437 204.451 279.957 204.892 279.442 205.291C278.671 205.844 277.778 206.202 276.838 206.335C275.899 206.469 274.941 206.374 274.047 206.058C274.091 206.075 275.761 203.863 275.945 203.66C276.642 202.889 277.39 202.166 278.184 201.496C278.778 200.994 279.596 200.135 280.446 200.507C281.341 200.899 282.157 202.211 282.793 202.931Z" fill="#2F2E41"/>
<path d="M272.408 207.551C272.408 207.551 282.33 202.589 282.33 200.817C282.33 199.045 278.432 193.729 271.345 193.729C271.345 193.729 269.573 190.54 267.446 193.021C265.32 195.501 268.51 197.273 268.51 197.273C268.51 197.273 264.611 203.652 270.281 207.551H272.408Z" fill="#575A89"/>
<path d="M284.712 202.564C283.962 202.479 283.322 203.064 282.797 203.604C282.356 204.084 281.876 204.525 281.361 204.924C280.59 205.476 279.696 205.835 278.757 205.968C277.818 206.102 276.86 206.007 275.965 205.691C276.01 205.707 277.679 203.496 277.864 203.292C278.561 202.522 279.309 201.799 280.103 201.129C280.697 200.627 281.514 199.767 282.365 200.14C283.26 200.532 284.076 201.844 284.712 202.564Z" fill="#575A89"/>
<path d="M306.428 201.172C305.3 199.291 303.273 200.405 301.619 201.864C301.539 200.956 301.263 200.286 300.935 200.286C300.544 200.286 300.226 201.238 300.226 202.412C300.226 202.672 300.243 202.931 300.276 203.189C299.502 204.028 298.986 204.716 298.986 204.716L296.86 206.133L300.758 210.386L302.53 208.26C302.53 208.26 308.554 204.716 306.428 201.172Z" fill="#FF6584"/>
<path d="M266.915 193.552C267.698 193.552 268.332 192.918 268.332 192.135C268.332 191.352 267.698 190.717 266.915 190.717C266.132 190.717 265.497 191.352 265.497 192.135C265.497 192.918 266.132 193.552 266.915 193.552Z" fill="#575A89"/>
<path d="M275.158 231.162V233.478C275.158 234.338 275.5 235.163 276.108 235.771C276.716 236.379 277.541 236.721 278.401 236.721C279.261 236.721 280.085 236.379 280.693 235.771C281.302 235.163 281.643 234.338 281.643 233.478V231.162H275.158Z" fill="#F50057"/>
<path opacity="0.15" d="M275.158 231.162V233.478C275.158 234.338 275.5 235.163 276.108 235.771C276.716 236.379 277.541 236.721 278.401 236.721C279.261 236.721 280.085 236.379 280.693 235.771C281.302 235.163 281.643 234.338 281.643 233.478V231.162H275.158Z" fill="black"/>
</g>
<path d="M97.112 336.512C96.2227 340.417 95.198 344.187 94.038 347.822C92.878 351.418 91.4667 355.169 89.804 359.074C89.2627 359.267 88.702 359.403 88.122 359.48C87.542 359.596 86.9813 359.673 86.44 359.712C83.54 350.819 81.4133 343.414 80.06 337.498C78.7067 331.543 77.6627 325.028 76.928 317.952C77.7787 317.681 78.5713 317.469 79.306 317.314C80.0793 317.159 80.8913 317.063 81.742 317.024C82.09 322.592 82.786 328.141 83.83 333.67C84.9127 339.199 86.5173 345.599 88.644 352.868C90.732 346.836 92.2593 341.809 93.226 337.788C94.2313 333.767 94.9853 329.533 95.488 325.086C96.184 324.931 96.9187 324.796 97.692 324.68C98.504 324.564 99.258 324.487 99.954 324.448C100.225 329.552 100.727 334.25 101.462 338.542C102.235 342.834 103.337 347.435 104.768 352.346C107.32 345.773 109.311 339.547 110.742 333.67C112.211 327.793 113.294 321.509 113.99 314.82C114.763 314.859 115.498 314.994 116.194 315.226C116.929 315.419 117.663 315.729 118.398 316.154C117.199 324.119 115.653 331.273 113.758 337.614C111.863 343.917 109.292 350.587 106.044 357.624C105.541 357.74 105.019 357.837 104.478 357.914C103.975 357.991 103.299 358.069 102.448 358.146C100.824 352.887 99.6253 348.673 98.852 345.502C98.0787 342.331 97.4987 339.335 97.112 336.512ZM127.92 313.022C128.461 313.061 128.925 313.138 129.312 313.254C129.737 313.331 130.124 313.467 130.472 313.66C130.085 314.511 129.679 315.535 129.254 316.734C128.867 317.894 128.558 319.035 128.326 320.156C127.9 320.233 127.359 320.291 126.702 320.33C126.044 320.33 125.368 320.311 124.672 320.272C124.594 319.924 124.536 319.615 124.498 319.344C124.498 319.035 124.498 318.725 124.498 318.416C124.498 317.604 124.575 316.734 124.73 315.806C124.923 314.878 125.174 314.085 125.484 313.428C125.909 313.235 126.296 313.119 126.644 313.08C126.992 313.003 127.417 312.983 127.92 313.022ZM123.454 327.116C123.918 326.845 124.382 326.652 124.846 326.536C125.348 326.381 125.87 326.304 126.412 326.304C126.721 326.304 126.992 326.323 127.224 326.362C127.494 326.401 127.765 326.459 128.036 326.536C127.262 330.596 126.721 335.352 126.412 340.804C126.102 346.256 126.102 351.341 126.412 356.058C126.141 356.213 125.793 356.329 125.368 356.406C124.942 356.483 124.517 356.522 124.092 356.522C123.898 356.522 123.705 356.503 123.512 356.464C123.357 356.464 123.164 356.445 122.932 356.406C122.274 351.495 121.984 346.43 122.062 341.21C122.178 335.951 122.642 331.253 123.454 327.116ZM146.038 343.994C146.656 344.071 147.256 344.207 147.836 344.4C148.454 344.555 148.976 344.767 149.402 345.038C149.324 348.286 148.667 350.838 147.43 352.694C146.231 354.511 144.588 355.42 142.5 355.42C140.064 355.42 138.227 354.047 136.99 351.302C135.752 348.518 135.134 344.419 135.134 339.006C135.134 337.227 135.192 335.449 135.308 333.67C135.424 331.891 135.598 330.074 135.83 328.218C135.095 328.179 134.36 328.102 133.626 327.986C132.93 327.87 132.214 327.735 131.48 327.58C131.518 327.039 131.596 326.517 131.712 326.014C131.828 325.511 131.982 325.047 132.176 324.622C132.91 324.777 133.606 324.912 134.264 325.028C134.921 325.144 135.578 325.221 136.236 325.26C136.39 324.255 136.584 323.172 136.816 322.012C137.086 320.813 137.434 319.344 137.86 317.604C138.672 317.643 139.464 317.739 140.238 317.894C141.05 318.01 141.823 318.184 142.558 318.416C142.171 319.692 141.823 320.929 141.514 322.128C141.204 323.327 140.953 324.487 140.76 325.608C142.306 325.647 143.814 325.647 145.284 325.608C146.753 325.531 148.184 325.434 149.576 325.318C149.576 325.705 149.518 326.149 149.402 326.652C149.324 327.116 149.208 327.619 149.054 328.16C147.623 328.315 146.154 328.431 144.646 328.508C143.176 328.547 141.707 328.547 140.238 328.508C139.967 330.325 139.754 332.181 139.6 334.076C139.445 335.971 139.368 337.827 139.368 339.644C139.368 343.743 139.658 346.875 140.238 349.04C140.856 351.167 141.726 352.23 142.848 352.23C143.892 352.23 144.665 351.573 145.168 350.258C145.709 348.905 145.999 346.817 146.038 343.994ZM167.221 343.994C167.84 344.071 168.439 344.207 169.019 344.4C169.638 344.555 170.16 344.767 170.585 345.038C170.508 348.286 169.851 350.838 168.613 352.694C167.415 354.511 165.771 355.42 163.683 355.42C161.247 355.42 159.411 354.047 158.173 351.302C156.936 348.518 156.317 344.419 156.317 339.006C156.317 337.227 156.375 335.449 156.491 333.67C156.607 331.891 156.781 330.074 157.013 328.218C156.279 328.179 155.544 328.102 154.809 327.986C154.113 327.87 153.398 327.735 152.663 327.58C152.702 327.039 152.779 326.517 152.895 326.014C153.011 325.511 153.166 325.047 153.359 324.622C154.094 324.777 154.79 324.912 155.447 325.028C156.105 325.144 156.762 325.221 157.419 325.26C157.574 324.255 157.767 323.172 157.999 322.012C158.27 320.813 158.618 319.344 159.043 317.604C159.855 317.643 160.648 317.739 161.421 317.894C162.233 318.01 163.007 318.184 163.741 318.416C163.355 319.692 163.007 320.929 162.697 322.128C162.388 323.327 162.137 324.487 161.943 325.608C163.49 325.647 164.998 325.647 166.467 325.608C167.937 325.531 169.367 325.434 170.759 325.318C170.759 325.705 170.701 326.149 170.585 326.652C170.508 327.116 170.392 327.619 170.237 328.16C168.807 328.315 167.337 328.431 165.829 328.508C164.36 328.547 162.891 328.547 161.421 328.508C161.151 330.325 160.938 332.181 160.783 334.076C160.629 335.971 160.551 337.827 160.551 339.644C160.551 343.743 160.841 346.875 161.421 349.04C162.04 351.167 162.91 352.23 164.031 352.23C165.075 352.23 165.849 351.573 166.351 350.258C166.893 348.905 167.183 346.817 167.221 343.994ZM179.871 337.846C180.992 338.233 182.191 338.542 183.467 338.774C184.781 338.967 186.154 339.064 187.585 339.064C187.971 339.064 188.416 339.045 188.919 339.006C189.46 338.967 189.847 338.909 190.079 338.832C190.388 337.711 190.601 336.686 190.717 335.758C190.871 334.791 190.949 333.921 190.949 333.148C190.949 331.447 190.659 330.229 190.079 329.494C189.537 328.759 188.648 328.392 187.411 328.392C185.787 328.392 184.298 329.262 182.945 331.002C181.591 332.742 180.567 335.023 179.871 337.846ZM192.805 346.14C193.423 346.256 194.042 346.488 194.661 346.836C195.318 347.184 195.879 347.59 196.343 348.054C195.608 350.258 194.1 352.249 191.819 354.028C189.576 355.768 187.237 356.638 184.801 356.638C181.669 356.638 179.194 355.42 177.377 352.984C175.598 350.548 174.709 347.281 174.709 343.182C174.709 338.581 175.985 334.443 178.537 330.77C181.127 327.097 184.201 325.26 187.759 325.26C190.04 325.26 191.838 325.995 193.153 327.464C194.506 328.895 195.183 330.847 195.183 333.322C195.183 334.637 195.047 335.971 194.777 337.324C194.545 338.639 194.216 339.895 193.791 341.094C193.017 341.365 192.07 341.577 190.949 341.732C189.866 341.848 188.513 341.906 186.889 341.906C185.651 341.906 184.375 341.809 183.061 341.616C181.785 341.384 180.547 341.055 179.349 340.63C179.271 341.094 179.213 341.558 179.175 342.022C179.175 342.447 179.175 342.873 179.175 343.298C179.175 346.353 179.697 348.827 180.741 350.722C181.823 352.578 183.254 353.506 185.033 353.506C186.579 353.506 188.126 352.791 189.673 351.36C191.219 349.891 192.263 348.151 192.805 346.14ZM216.07 342.312C216.07 345.173 216.147 347.919 216.302 350.548C216.456 353.177 216.708 355.807 217.056 358.436C216.398 358.591 215.702 358.707 214.968 358.784C214.233 358.861 213.595 358.9 213.054 358.9C212.59 354.299 212.28 350.529 212.126 347.59C211.971 344.651 211.894 341.577 211.894 338.368C211.894 334.115 212.029 329.823 212.3 325.492C212.609 321.161 213.034 317.14 213.576 313.428C214.426 313.351 215.296 313.351 216.186 313.428C217.075 313.505 217.81 313.641 218.39 313.834C217.732 317.933 217.21 321.993 216.824 326.014C216.437 329.997 216.205 333.96 216.128 337.904C218.873 335.507 221.193 333.206 223.088 331.002C225.021 328.759 227.09 325.917 229.294 322.476C229.874 322.747 230.415 323.114 230.918 323.578C231.459 324.003 231.923 324.467 232.31 324.97C230.338 327.947 228.462 330.422 226.684 332.394C224.944 334.366 222.817 336.396 220.304 338.484C222.044 341.036 223.9 343.259 225.872 345.154C227.844 347.01 230.454 349.04 233.702 351.244C233.044 352.211 232.484 352.926 232.02 353.39C231.594 353.854 231.13 354.221 230.628 354.492C228.153 352.559 225.988 350.606 224.132 348.634C222.276 346.623 220.11 343.955 217.636 340.63C217.365 340.823 217.094 341.036 216.824 341.268C216.592 341.461 216.34 341.655 216.07 341.848C216.07 341.925 216.07 342.003 216.07 342.08C216.07 342.157 216.07 342.235 216.07 342.312ZM241.779 337.846C242.9 338.233 244.099 338.542 245.375 338.774C246.69 338.967 248.062 339.064 249.493 339.064C249.88 339.064 250.324 339.045 250.827 339.006C251.368 338.967 251.755 338.909 251.987 338.832C252.296 337.711 252.509 336.686 252.625 335.758C252.78 334.791 252.857 333.921 252.857 333.148C252.857 331.447 252.567 330.229 251.987 329.494C251.446 328.759 250.556 328.392 249.319 328.392C247.695 328.392 246.206 329.262 244.853 331.002C243.5 332.742 242.475 335.023 241.779 337.846ZM254.713 346.14C255.332 346.256 255.95 346.488 256.569 346.836C257.226 347.184 257.787 347.59 258.251 348.054C257.516 350.258 256.008 352.249 253.727 354.028C251.484 355.768 249.145 356.638 246.709 356.638C243.577 356.638 241.102 355.42 239.285 352.984C237.506 350.548 236.617 347.281 236.617 343.182C236.617 338.581 237.893 334.443 240.445 330.77C243.036 327.097 246.11 325.26 249.667 325.26C251.948 325.26 253.746 325.995 255.061 327.464C256.414 328.895 257.091 330.847 257.091 333.322C257.091 334.637 256.956 335.971 256.685 337.324C256.453 338.639 256.124 339.895 255.699 341.094C254.926 341.365 253.978 341.577 252.857 341.732C251.774 341.848 250.421 341.906 248.797 341.906C247.56 341.906 246.284 341.809 244.969 341.616C243.693 341.384 242.456 341.055 241.257 340.63C241.18 341.094 241.122 341.558 241.083 342.022C241.083 342.447 241.083 342.873 241.083 343.298C241.083 346.353 241.605 348.827 242.649 350.722C243.732 352.578 245.162 353.506 246.941 353.506C248.488 353.506 250.034 352.791 251.581 351.36C253.128 349.891 254.172 348.151 254.713 346.14ZM268.898 356.116C268.589 356.232 268.221 356.329 267.796 356.406C267.371 356.483 266.945 356.522 266.52 356.522C266.211 356.561 265.921 356.561 265.65 356.522C265.418 356.483 265.186 356.425 264.954 356.348C263.987 351.437 263.33 346.295 262.982 340.92C262.673 335.545 262.653 330.132 262.924 324.68C263.195 324.564 263.523 324.487 263.91 324.448C264.297 324.371 264.877 324.332 265.65 324.332C266.037 324.332 266.404 324.371 266.752 324.448C267.139 324.487 267.525 324.564 267.912 324.68C267.68 326.343 267.506 327.754 267.39 328.914C267.274 330.074 267.197 331.176 267.158 332.22C268.047 329.204 269.227 326.826 270.696 325.086C272.165 323.346 273.693 322.476 275.278 322.476C276.825 322.476 277.965 323.056 278.7 324.216C279.435 325.337 279.802 327.077 279.802 329.436C279.802 329.9 279.783 330.403 279.744 330.944C279.705 331.485 279.667 332.065 279.628 332.684C279.164 332.8 278.603 332.897 277.946 332.974C277.327 333.013 276.651 333.013 275.916 332.974C275.993 332.394 276.051 331.853 276.09 331.35C276.129 330.809 276.148 330.287 276.148 329.784C276.148 328.547 275.993 327.638 275.684 327.058C275.375 326.439 274.911 326.13 274.292 326.13C272.977 326.13 271.663 327.522 270.348 330.306C269.033 333.051 267.989 336.628 267.216 341.036C267.332 343.24 267.525 345.599 267.796 348.112C268.067 350.587 268.434 353.255 268.898 356.116ZM293.745 339.296C296.529 341.307 298.346 343.027 299.197 344.458C300.086 345.85 300.531 347.397 300.531 349.098C300.531 351.766 299.68 353.97 297.979 355.71C296.278 357.45 294.112 358.32 291.483 358.32C288.738 358.32 286.495 357.334 284.755 355.362C283.054 353.39 282.203 350.78 282.203 347.532C282.783 347.339 283.382 347.203 284.001 347.126C284.658 347.01 285.296 346.971 285.915 347.01C285.838 349.601 286.282 351.631 287.249 353.1C288.254 354.569 289.685 355.304 291.541 355.304C292.933 355.304 294.035 354.84 294.847 353.912C295.698 352.945 296.123 351.65 296.123 350.026C296.123 348.711 295.756 347.493 295.021 346.372C294.286 345.212 292.701 343.743 290.265 341.964C287.404 339.876 285.528 338.097 284.639 336.628C283.75 335.12 283.305 333.457 283.305 331.64C283.305 329.204 284.04 327.271 285.509 325.84C286.978 324.371 288.97 323.636 291.483 323.636C293.88 323.636 295.756 324.332 297.109 325.724C298.501 327.116 299.468 329.339 300.009 332.394C299.429 332.665 298.83 332.877 298.211 333.032C297.631 333.148 297.012 333.245 296.355 333.322C296.046 331.041 295.485 329.378 294.673 328.334C293.9 327.29 292.817 326.768 291.425 326.768C290.265 326.768 289.337 327.155 288.641 327.928C287.984 328.701 287.655 329.745 287.655 331.06C287.655 332.413 288.042 333.67 288.815 334.83C289.588 335.99 291.232 337.479 293.745 339.296ZM317.546 343.994C318.164 344.071 318.764 344.207 319.344 344.4C319.962 344.555 320.484 344.767 320.91 345.038C320.832 348.286 320.175 350.838 318.938 352.694C317.739 354.511 316.096 355.42 314.008 355.42C311.572 355.42 309.735 354.047 308.498 351.302C307.26 348.518 306.642 344.419 306.642 339.006C306.642 337.227 306.7 335.449 306.816 333.67C306.932 331.891 307.106 330.074 307.338 328.218C306.603 328.179 305.868 328.102 305.134 327.986C304.438 327.87 303.722 327.735 302.988 327.58C303.026 327.039 303.104 326.517 303.22 326.014C303.336 325.511 303.49 325.047 303.684 324.622C304.418 324.777 305.114 324.912 305.772 325.028C306.429 325.144 307.086 325.221 307.744 325.26C307.898 324.255 308.092 323.172 308.324 322.012C308.594 320.813 308.942 319.344 309.368 317.604C310.18 317.643 310.972 317.739 311.746 317.894C312.558 318.01 313.331 318.184 314.066 318.416C313.679 319.692 313.331 320.929 313.022 322.128C312.712 323.327 312.461 324.487 312.268 325.608C313.814 325.647 315.322 325.647 316.792 325.608C318.261 325.531 319.692 325.434 321.084 325.318C321.084 325.705 321.026 326.149 320.91 326.652C320.832 327.116 320.716 327.619 320.562 328.16C319.131 328.315 317.662 328.431 316.154 328.508C314.684 328.547 313.215 328.547 311.746 328.508C311.475 330.325 311.262 332.181 311.108 334.076C310.953 335.971 310.876 337.827 310.876 339.644C310.876 343.743 311.166 346.875 311.746 349.04C312.364 351.167 313.234 352.23 314.356 352.23C315.4 352.23 316.173 351.573 316.676 350.258C317.217 348.905 317.507 346.817 317.546 343.994Z" fill="#3F3D56"/>
<defs>
<clipPath id="clip0">
<rect width="351" height="258" fill="white" transform="translate(24 16)"/>
</clipPath>
</defs>
</svg>
