<svg width="400" height="400" viewBox="0 0 400 400" fill="none" xmlns="http://www.w3.org/2000/svg">
<rect width="400" height="400" rx="6" fill="#E2AFD4"/>
<path d="M51.1455 85.1748L51.1738 77.1318C51.1738 65.917 50.6641 57.2321 49.6445 51.0771C49.5124 51.096 49.2575 51.1527 48.8799 51.2471C48.1247 51.4359 47.5394 51.5303 47.124 51.5303C46.7275 51.5303 46.3783 51.3887 46.0762 51.1055C45.793 50.8034 45.6514 50.4541 45.6514 50.0576C45.6514 48.6982 47.9642 48.0186 52.5898 48.0186H53.3262C55.0632 48.0186 55.9316 48.5378 55.9316 49.5762C55.9316 50.5957 55.1292 51.1055 53.5244 51.1055L53.3545 51.0771H52.5615V51.5303C52.5615 52.5309 52.6748 54.0319 52.9014 56.0332C53.1279 58.0156 53.2412 59.8848 53.2412 61.6406C53.2412 63.3965 53.4111 66.7855 53.751 71.8076C54.1097 76.8109 54.2891 80.568 54.2891 83.0791L54.2607 87.6953C54.2607 89.9798 53.7793 92.0189 52.8164 93.8125C51.8724 95.625 50.4847 96.8522 48.6533 97.4941C48.0492 97.4941 47.5488 97.3431 47.1523 97.041C46.7559 96.7389 46.5576 96.3236 46.5576 95.7949C46.5576 95.2663 46.7936 94.7848 47.2656 94.3506C47.7565 93.9163 48.2757 93.5859 48.8232 93.3594C49.3519 92.6797 49.8711 91.5846 50.3809 90.0742C50.8906 88.5638 51.1455 86.9307 51.1455 85.1748ZM64.9941 72.7139L65.2773 85.0332V86.7607L65.249 88.375H66.0137C66.0137 88.375 66.5706 88.3561 67.6846 88.3184C69.2705 88.3184 70.0635 88.7998 70.0635 89.7627C70.0635 90.2536 69.8652 90.6784 69.4687 91.0371C69.0911 91.3769 68.6475 91.5469 68.1377 91.5469H65.5889C63.833 91.5469 62.7096 91.5091 62.2187 91.4336C61.9167 91.4714 61.6807 91.4902 61.5107 91.4902C60.1325 91.4902 59.4434 91.056 59.4434 90.1875C59.4434 89.8288 59.5566 89.4889 59.7832 89.168C60.0098 88.847 60.2363 88.6771 60.4629 88.6582H62.1055L62.2187 87.8936L61.8223 75.5742L62.1338 62.6602C62.1338 60.4512 62.0394 58.3743 61.8506 56.4297H60.7461L59.415 56.4863C58.8486 56.4863 58.4049 56.3825 58.084 56.1748C57.763 55.9482 57.6025 55.5329 57.6025 54.9287C57.6025 54.0413 58.556 53.5977 60.4629 53.5977H67.373C68.9401 53.5977 69.7236 54.0036 69.7236 54.8154C69.7236 55.1742 69.5537 55.5046 69.2139 55.8066C68.874 56.1087 68.487 56.2598 68.0527 56.2598H65.0791C65.2301 57.8457 65.3057 59.6393 65.3057 61.6406L64.9941 72.7139ZM73.4336 66.9365L73.5186 61.4141C73.5186 59.054 73.3675 57.2604 73.0654 56.0332C73.3298 54.6738 73.849 53.9941 74.623 53.9941H77.1719C79.3997 53.9941 80.9668 54.9193 81.873 56.7695C82.666 58.4121 83.0625 60.3001 83.0625 62.4336C83.0625 65.1335 82.9964 66.7949 82.8643 67.418C82.7321 68.0221 82.5905 68.598 82.4395 69.1455C82.2884 69.693 82.0996 70.1367 81.873 70.4766C81.6654 70.8164 81.3916 71.194 81.0518 71.6094C80.7119 72.0059 80.3249 72.3457 79.8906 72.6289C78.9277 73.252 77.7666 73.7806 76.4072 74.2148V80.417L76.8603 91.4053C76.8603 91.8773 76.6621 92.2738 76.2656 92.5947C75.8691 92.9346 75.416 93.1045 74.9062 93.1045L73.6885 92.3965C73.2165 90.263 72.9805 87.4215 72.9805 83.8721L73.207 73.5352C72.9805 73.0254 72.8672 72.5534 72.8672 72.1191V71.9209C73.2448 71.1657 73.4336 69.5042 73.4336 66.9365ZM76.3223 60.4228L76.4355 71.7227V71.8076C78.7389 71.5055 79.8906 68.2393 79.8906 62.0088C79.8906 60.1774 79.6641 58.9313 79.2109 58.2705C78.7201 57.5719 77.9648 57.2227 76.9453 57.2227C76.9453 57.166 76.7376 57.1377 76.3223 57.1377V60.4228ZM100.14 55.4385C100.14 55.4385 100.168 58.0345 100.225 63.2266V63.8779C101.206 62.6507 102.16 61.1875 103.085 59.4883C104.01 57.7891 104.473 56.5146 104.473 55.665C104.473 54.7965 104.161 53.7959 103.538 52.6631C102.915 51.5114 102.292 50.9355 101.669 50.9355C101.065 50.9355 100.555 51.4076 100.14 52.3516V55.4385ZM107.56 72.2891C110.505 72.2891 112.695 72.0436 114.13 71.5527C115.225 71.7793 115.772 72.2891 115.772 73.082C115.772 74.1393 114.762 74.668 112.742 74.668L112.572 74.6396H111.128C111.128 80.8135 110.335 84.9482 108.749 87.0439C109.901 88.2334 111.128 88.8281 112.431 88.8281L114.781 88.6582L115.857 89.5361C115.857 90.3102 115.584 90.8294 115.036 91.0937C114.507 91.3392 113.799 91.4619 112.912 91.4619C111.175 91.4619 109.306 90.735 107.305 89.2812C105.133 90.7539 103.123 91.4902 101.272 91.4902C99.4411 91.4902 97.8929 90.9993 96.6279 90.0176C95.363 89.0169 94.4001 87.7897 93.7393 86.3359C93.0784 84.8822 92.748 83.5511 92.748 82.3428C92.748 81.1156 92.7952 80.0394 92.8896 79.1143C93.0029 78.1702 93.1068 77.3678 93.2012 76.707C93.2956 76.0462 93.5033 75.2438 93.8242 74.2998C94.1641 73.3369 94.4095 72.6478 94.5605 72.2324C94.7116 71.7982 95.0514 71.0241 95.5801 69.9102C96.2598 68.513 97.0339 66.9554 97.9023 65.2373L97.5059 57.2793V52.4648C97.5059 51.0488 97.8457 50.001 98.5254 49.3213C99.2051 48.6227 100.168 48.2734 101.414 48.2734C102.66 48.2734 103.916 48.7926 105.181 49.8311C106.446 50.8695 107.078 52.0872 107.078 53.4844C107.078 55.8066 106.682 57.9023 105.889 59.7715C105.115 61.6217 103.944 63.4531 102.377 65.2656C102.301 65.4167 102.122 65.6904 101.839 66.0869C101.216 66.9554 100.904 67.6068 100.904 68.041C100.904 69.7214 101.612 72.7422 103.028 77.1035C104.463 81.4648 105.69 84.1836 106.71 85.2598C107.918 82.5033 108.522 79.0859 108.522 75.0078V74.7529C108.239 74.7529 108.06 74.6963 107.984 74.583C107.909 74.4697 107.852 74.3942 107.814 74.3564C107.796 74.3187 107.748 74.2243 107.673 74.0732C107.616 73.9033 107.578 73.7995 107.56 73.7617V72.2891ZM98.4971 69.6553C96.458 72.8649 95.4385 76.6409 95.4385 80.9834C95.4385 82.9469 95.8727 84.7406 96.7412 86.3643C97.7041 88.1768 99.2145 89.083 101.272 89.083C101.896 89.083 102.66 88.9225 103.566 88.6016C104.473 88.2806 105.124 87.9219 105.521 87.5254C101.952 82.3711 99.611 76.4144 98.4971 69.6553ZM129.763 85.1748L129.791 77.1318C129.791 65.917 129.281 57.2321 128.262 51.0771C128.13 51.096 127.875 51.1527 127.497 51.2471C126.742 51.4359 126.157 51.5303 125.741 51.5303C125.345 51.5303 124.995 51.3887 124.693 51.1055C124.41 50.8034 124.269 50.4541 124.269 50.0576C124.269 48.6982 126.581 48.0186 131.207 48.0186H131.943C133.68 48.0186 134.549 48.5378 134.549 49.5762C134.549 50.5957 133.746 51.1055 132.142 51.1055L131.972 51.0771H131.179V51.5303C131.179 52.5309 131.292 54.0319 131.519 56.0332C131.745 58.0156 131.858 59.8848 131.858 61.6406C131.858 63.3965 132.028 66.7855 132.368 71.8076C132.727 76.8109 132.906 80.568 132.906 83.0791L132.878 87.6953C132.878 89.9798 132.396 92.0189 131.434 93.8125C130.49 95.625 129.102 96.8522 127.271 97.4941C126.666 97.4941 126.166 97.3431 125.77 97.041C125.373 96.7389 125.175 96.3236 125.175 95.7949C125.175 95.2663 125.411 94.7848 125.883 94.3506C126.374 93.9163 126.893 93.5859 127.44 93.3594C127.969 92.6797 128.488 91.5846 128.998 90.0742C129.508 88.5638 129.763 86.9307 129.763 85.1748ZM136.956 74.2715L137.013 72.0625C137.013 71.8737 136.984 71.7793 136.928 71.7793V70.7314C136.928 64.652 137.277 60.3284 137.976 57.7607C138.561 55.5895 139.127 54.249 139.675 53.7393C140.222 53.2295 140.76 52.9746 141.289 52.9746C145.783 52.9746 148.879 55.2402 150.578 59.7715C151.56 62.377 152.051 65.5866 152.051 69.4004V69.8252L152.164 76.3955C152.164 87.5159 149.587 93.0762 144.433 93.0762C142.299 93.0762 140.666 91.8962 139.533 89.5361C138.457 87.2705 137.796 85.0426 137.551 82.8525C137.154 79.5485 136.956 76.6881 136.956 74.2715ZM140.383 66.3418L140.1 71.6943C140.1 77.3018 140.553 82.1917 141.459 86.3643C142.422 88.7998 143.338 90.2347 144.206 90.6689C144.905 90.6689 145.537 90.3857 146.104 89.8193C146.67 89.2529 147.114 88.4977 147.435 87.5537C147.774 86.5908 148.058 85.5807 148.284 84.5234C148.492 83.485 148.652 82.3711 148.766 81.1816C148.954 79.1237 149.049 77.3678 149.049 75.9141C149.049 74.4603 148.917 72.2324 148.652 69.2305C148.407 66.2285 148.284 63.9912 148.284 62.5186V61.499C148.246 60.083 147.784 58.8275 146.896 57.7324C146.009 56.6185 144.876 56.0615 143.498 56.0615C142.176 56.0615 141.298 56.8073 140.864 58.2988C140.506 59.5449 140.326 61.0837 140.326 62.915L140.383 66.3418ZM156.355 66.9365L156.44 61.4141C156.44 59.054 156.289 57.2604 155.987 56.0332C156.252 54.6738 156.771 53.9941 157.545 53.9941H160.094C162.322 53.9941 163.889 54.9193 164.795 56.7695C165.588 58.4121 165.984 60.3001 165.984 62.4336C165.984 65.1335 165.918 66.7949 165.786 67.418C165.654 68.0221 165.512 68.598 165.361 69.1455C165.21 69.693 165.021 70.1367 164.795 70.4766C164.587 70.8164 164.313 71.194 163.974 71.6094C163.634 72.0059 163.247 72.3457 162.812 72.6289C161.85 73.252 160.688 73.7806 159.329 74.2148V80.417L159.782 91.4053C159.782 91.8773 159.584 92.2738 159.187 92.5947C158.791 92.9346 158.338 93.1045 157.828 93.1045L156.61 92.3965C156.138 90.263 155.902 87.4215 155.902 83.8721L156.129 73.5352C155.902 73.0254 155.789 72.5534 155.789 72.1191V71.9209C156.167 71.1657 156.355 69.5042 156.355 66.9365ZM159.244 60.4228L159.357 71.7227V71.8076C161.661 71.5055 162.812 68.2393 162.812 62.0088C162.812 60.1774 162.586 58.9313 162.133 58.2705C161.642 57.5719 160.887 57.2227 159.867 57.2227C159.867 57.166 159.659 57.1377 159.244 57.1377V60.4228ZM175.755 74.2715L175.812 72.0625C175.812 71.8737 175.783 71.7793 175.727 71.7793V70.7314C175.727 64.652 176.076 60.3284 176.774 57.7607C177.36 55.5895 177.926 54.249 178.474 53.7393C179.021 53.2295 179.559 52.9746 180.088 52.9746C184.581 52.9746 187.678 55.2402 189.377 59.7715C190.359 62.377 190.85 65.5866 190.85 69.4004V69.8252L190.963 76.3955C190.963 87.5159 188.386 93.0762 183.231 93.0762C181.098 93.0762 179.465 91.8962 178.332 89.5361C177.256 87.2705 176.595 85.0426 176.35 82.8525C175.953 79.5485 175.755 76.6881 175.755 74.2715ZM179.182 66.3418L178.898 71.6943C178.898 77.3018 179.352 82.1917 180.258 86.3643C181.221 88.7998 182.136 90.2347 183.005 90.6689C183.703 90.6689 184.336 90.3857 184.902 89.8193C185.469 89.2529 185.912 88.4977 186.233 87.5537C186.573 86.5908 186.856 85.5807 187.083 84.5234C187.291 83.485 187.451 82.3711 187.564 81.1816C187.753 79.1237 187.848 77.3678 187.848 75.9141C187.848 74.4603 187.715 72.2324 187.451 69.2305C187.206 66.2285 187.083 63.9912 187.083 62.5186V61.499C187.045 60.083 186.583 58.8275 185.695 57.7324C184.808 56.6185 183.675 56.0615 182.297 56.0615C180.975 56.0615 180.097 56.8073 179.663 58.2988C179.304 59.5449 179.125 61.0837 179.125 62.915L179.182 66.3418ZM195.154 66.9365L195.239 61.4141C195.239 59.054 195.088 57.2604 194.786 56.0332C195.05 54.6738 195.57 53.9941 196.344 53.9941H198.893C201.12 53.9941 202.687 54.9193 203.594 56.7695C204.387 58.4121 204.783 60.3001 204.783 62.4336C204.783 65.1335 204.717 66.7949 204.585 67.418C204.453 68.0221 204.311 68.598 204.16 69.1455C204.009 69.693 203.82 70.1367 203.594 70.4766C203.386 70.8164 203.112 71.194 202.772 71.6094C202.433 72.0059 202.046 72.3457 201.611 72.6289C200.648 73.252 199.487 73.7806 198.128 74.2148V80.417L198.581 91.4053C198.581 91.8773 198.383 92.2738 197.986 92.5947C197.59 92.9346 197.137 93.1045 196.627 93.1045L195.409 92.3965C194.937 90.263 194.701 87.4215 194.701 83.8721L194.928 73.5352C194.701 73.0254 194.588 72.5534 194.588 72.1191V71.9209C194.965 71.1657 195.154 69.5042 195.154 66.9365ZM198.043 60.4228L198.156 71.7227V71.8076C200.46 71.5055 201.611 68.2393 201.611 62.0088C201.611 60.1774 201.385 58.9313 200.932 58.2705C200.441 57.5719 199.686 57.2227 198.666 57.2227C198.666 57.166 198.458 57.1377 198.043 57.1377V60.4228ZM224.749 81.3799C224.636 80.8135 224.579 79.8317 224.579 78.4346C224.579 77.0186 224.494 75.2721 224.324 73.1953C224.173 71.0996 223.947 68.6735 223.645 65.917C223.342 63.1416 223.135 61.1309 223.021 59.8848C221.266 69.6081 220.133 76.4616 219.623 80.4453C220.284 80.8796 221.993 81.1911 224.749 81.3799ZM227.779 80.2187L228.402 83.7871C228.402 84.2591 228.582 85.4108 228.94 87.2422C229.318 89.0736 229.507 90.2725 229.507 90.8389V90.8955C229.507 91.7451 229.186 92.2926 228.544 92.5381C227.732 92.5381 227.1 92.4059 226.646 92.1416C226.193 91.8773 225.967 91.3675 225.967 90.6123C225.967 88.9697 225.684 86.5814 225.117 83.4473L219.396 82.5977C219.038 83.8815 218.764 85.2881 218.575 86.8174C218.386 88.3467 218.207 89.4606 218.037 90.1592C217.697 91.5941 217.065 92.3115 216.14 92.3115C215.687 92.3115 215.262 92.1699 214.865 91.8867C214.488 91.5846 214.299 91.207 214.299 90.7539L214.44 90.2441C217.046 80.181 218.981 70.3822 220.246 60.8477C220.284 60.5833 220.34 59.8092 220.416 58.5254C220.605 55.6934 220.964 53.8903 221.492 53.1162H223.446C223.975 53.1162 224.437 53.2389 224.834 53.4844C225.23 53.7298 225.429 54.098 225.429 54.5889C225.429 57.5342 225.816 61.9049 226.59 67.7012C227.383 73.4974 227.779 77.6699 227.779 80.2187ZM239.306 85.0049C240.155 80.738 241.194 74.5736 242.421 66.5117C243.667 58.4499 244.403 53.7676 244.63 52.4648H245.933C246.272 52.4648 246.575 52.5876 246.839 52.833C247.122 53.0784 247.264 53.3805 247.264 53.7393C247.264 55.9105 246.801 58.6481 245.876 61.9521C244.951 65.2373 244.403 67.3613 244.233 68.3242C244.082 69.2682 243.922 70.807 243.752 72.9404C243.582 75.0739 243.384 77.1696 243.157 79.2275C242.931 81.2855 242.629 83.3812 242.251 85.5146C241.873 87.6481 241.335 89.3756 240.637 90.6973C239.957 92.0189 239.145 92.6797 238.201 92.6797L237.125 91.8018C237.125 87.1006 236.672 82.305 235.766 77.415C234.878 72.5251 234 68.4186 233.132 65.0957C232.282 61.7728 231.706 59.6676 231.404 58.7803C230.725 56.6846 230.385 55.3818 230.385 54.8721C230.385 54.3623 230.526 53.9753 230.81 53.7109C231.112 53.4466 231.442 53.3145 231.801 53.3145C232.877 53.3145 233.906 55.1647 234.888 58.8652C235.869 62.5846 236.606 66.068 237.097 69.3154C237.588 72.5439 237.956 75.0173 238.201 76.7353C238.447 78.4534 238.673 80.181 238.881 81.918C239.107 83.6361 239.249 84.665 239.306 85.0049ZM249.897 74.2715L249.954 72.0625C249.954 71.8737 249.926 71.7793 249.869 71.7793V70.7314C249.869 64.652 250.218 60.3284 250.917 57.7607C251.502 55.5895 252.069 54.249 252.616 53.7393C253.164 53.2295 253.702 52.9746 254.23 52.9746C258.724 52.9746 261.82 55.2402 263.52 59.7715C264.501 62.377 264.992 65.5866 264.992 69.4004V69.8252L265.105 76.3955C265.105 87.5159 262.528 93.0762 257.374 93.0762C255.241 93.0762 253.607 91.8962 252.475 89.5361C251.398 87.2705 250.738 85.0426 250.492 82.8525C250.096 79.5485 249.897 76.6881 249.897 74.2715ZM253.324 66.3418L253.041 71.6943C253.041 77.3018 253.494 82.1917 254.4 86.3643C255.363 88.7998 256.279 90.2347 257.147 90.6689C257.846 90.6689 258.479 90.3857 259.045 89.8193C259.611 89.2529 260.055 88.4977 260.376 87.5537C260.716 86.5908 260.999 85.5807 261.226 84.5234C261.433 83.485 261.594 82.3711 261.707 81.1816C261.896 79.1237 261.99 77.3678 261.99 75.9141C261.99 74.4603 261.858 72.2324 261.594 69.2305C261.348 66.2285 261.226 63.9912 261.226 62.5186V61.499C261.188 60.083 260.725 58.8275 259.838 57.7324C258.951 56.6185 257.818 56.0615 256.439 56.0615C255.118 56.0615 254.24 56.8073 253.806 58.2988C253.447 59.5449 253.268 61.0837 253.268 62.915L253.324 66.3418ZM268.73 68.5225L269.07 57.7041C269.07 55.9105 269.778 54.485 271.194 53.4277V53.7959C271.345 53.7015 271.487 53.6543 271.619 53.6543C272.525 53.6543 273.658 55.2214 275.018 58.3555C276.377 61.4707 277.604 64.8975 278.699 68.6357C279.794 72.374 280.88 76.1501 281.956 79.9639C283.051 83.7588 283.731 85.9867 283.995 86.6475C284.769 78.5478 285.156 68.7396 285.156 57.2227L285.071 55.665C285.071 54.5133 285.553 53.9375 286.516 53.9375C287.063 53.9375 287.469 54.1641 287.733 54.6172C288.017 55.0703 288.158 55.599 288.158 56.2031V60.5928C288.12 65.1429 287.913 71.2223 287.535 78.8311C287.176 86.4209 286.686 90.7067 286.062 91.6885C285.005 92.0094 284.269 92.1699 283.854 92.1699C283.457 92.1699 283.145 92.0378 282.919 91.7734C282.711 91.4902 282.541 91.0654 282.409 90.499C282.277 89.9326 282.164 89.555 282.069 89.3662L282.098 89.1113C282.098 87.6764 280.71 83.1169 277.935 75.4326C275.159 67.7484 273.148 62.4619 271.902 59.5732V88.7715C271.94 88.847 272.016 88.9792 272.129 89.168C272.374 89.5833 272.497 89.9704 272.497 90.3291C272.497 90.6878 272.318 91.0465 271.959 91.4053C271.619 91.764 271.213 91.9434 270.741 91.9434C269.476 91.9434 268.844 90.7633 268.844 88.4033L268.73 68.5225ZM297.645 91.0654L297.532 86.6191C297.532 86.6003 297.561 85.9395 297.617 84.6367C297.466 84.1458 297.155 79.7845 296.683 71.5527C296.229 63.321 295.984 58.2894 295.946 56.458C295.871 56.458 295.795 56.458 295.72 56.458C292.586 56.4014 291.019 55.8255 291.019 54.7305C291.019 54.3717 291.226 54.0791 291.642 53.8525C292.057 53.6071 292.463 53.4844 292.859 53.4844C292.859 53.4844 295.484 53.6637 300.732 54.0225L301.667 53.9941C302.875 53.9941 303.479 54.4567 303.479 55.3818C303.479 55.8538 303.281 56.2409 302.885 56.543C302.488 56.8262 302.045 56.9678 301.554 56.9678L298.892 56.5713L298.778 57.166C298.778 60.8288 299.099 66.3135 299.741 73.6201C300.383 80.9268 300.704 86.4209 300.704 90.1025C300.704 90.5557 300.496 90.9616 300.081 91.3203C299.666 91.6602 299.213 91.8301 298.722 91.8301L297.645 91.0654ZM320.217 66.1436L320.273 67.1348C320.273 84.2969 317.781 92.8779 312.797 92.8779C310.871 92.8968 309.446 92.1133 308.52 90.5273C307.558 88.9036 306.972 87.2894 306.765 85.6846C306.444 83.2113 306.255 80.3792 306.198 77.1885C306.16 73.9788 306.142 69.3532 306.142 63.3115L305.887 55.0137C306.245 54.2018 306.651 53.7959 307.104 53.7959C307.576 53.7959 307.992 54.1546 308.351 54.8721C308.709 55.5706 308.889 56.3164 308.889 57.1094V72.8838C308.889 74.262 309.021 76.3105 309.285 79.0293C309.568 81.748 309.71 83.7965 309.71 85.1748C309.71 88.0068 310.937 89.4228 313.392 89.4228C316.148 89.4228 317.526 79.0293 317.526 58.2422V54.9854L317.498 54.0225C317.498 53.5693 317.602 53.2295 317.81 53.0029C318.017 52.7764 318.376 52.6631 318.886 52.6631C319.414 52.6631 319.811 52.748 320.075 52.918C320.321 53.069 320.5 53.2956 320.613 53.5977C320.764 54.0697 320.849 54.6927 320.868 55.4668L320.472 61.3008L320.217 66.1436ZM338.398 66.1436L338.455 67.1348C338.455 84.2969 335.963 92.8779 330.978 92.8779C329.053 92.8968 327.627 92.1133 326.702 90.5273C325.739 88.9036 325.154 87.2894 324.946 85.6846C324.625 83.2113 324.437 80.3792 324.38 77.1885C324.342 73.9788 324.323 69.3532 324.323 63.3115L324.068 55.0137C324.427 54.2018 324.833 53.7959 325.286 53.7959C325.758 53.7959 326.173 54.1546 326.532 54.8721C326.891 55.5706 327.07 56.3164 327.07 57.1094V72.8838C327.07 74.262 327.202 76.3105 327.467 79.0293C327.75 81.748 327.892 83.7965 327.892 85.1748C327.892 88.0068 329.119 89.4228 331.573 89.4228C334.33 89.4228 335.708 79.0293 335.708 58.2422V54.9854L335.68 54.0225C335.68 53.5693 335.784 53.2295 335.991 53.0029C336.199 52.7764 336.558 52.6631 337.067 52.6631C337.596 52.6631 337.992 52.748 338.257 52.918C338.502 53.069 338.682 53.2956 338.795 53.5977C338.946 54.0697 339.031 54.6927 339.05 55.4668L338.653 61.3008L338.398 66.1436ZM345.648 55.4951L345.45 56.3164C345.45 57.9023 345.488 60.1963 345.563 63.1982C345.639 66.1813 345.677 68.3525 345.677 69.7119C346.583 69.2399 347.31 68.0127 347.857 66.0303C348.424 64.029 348.707 62.4997 348.707 61.4424C348.707 60.3851 348.679 59.611 348.622 59.1201C348.565 58.6104 348.443 58.0534 348.254 57.4492C347.876 56.2031 347.008 55.5518 345.648 55.4951ZM345.422 72.5723L345.365 78.8594C345.365 83.9759 345.733 88.0068 346.47 90.9521L345.818 92.5098H344.204L343.439 91.6602C343.477 89.9232 343.496 87.9785 343.496 85.8262C343.496 83.6549 343.326 79.0293 342.986 71.9492C342.665 64.8691 342.505 59.5827 342.505 56.0898C342.505 54.2585 343.147 53.3428 344.431 53.3428C346.451 53.3428 348.15 53.8714 349.528 54.9287C350.907 55.986 351.596 57.4964 351.596 59.46V63.5381C351.596 64.652 351.388 65.6715 350.973 66.5967C350.557 67.5029 350.076 68.4658 349.528 69.4853C348.981 70.486 348.679 71.043 348.622 71.1562C348.83 72.1003 349.198 73.9505 349.727 76.707C350.859 82.7298 352.115 87.0628 353.493 89.7061C353.89 90.4613 354.088 91.056 354.088 91.4902C354.088 91.9056 353.965 92.2549 353.72 92.5381C353.493 92.8402 353.182 92.9912 352.785 92.9912C351.973 92.9912 351.19 92.0661 350.435 90.2158C349.698 88.3467 349.103 86.2793 348.65 84.0137C347.272 77.0846 346.432 73.2708 346.13 72.5723H345.422Z" fill="#3F3D56"/>
<g clip-path="url(#clip0)">
<path d="M120.04 148.384L119.082 147.903L116.486 153.077L117.444 153.558L120.04 148.384Z" fill="white"/>
<path d="M127.91 160.197C122.753 155.04 115.758 152.143 108.465 152.143C101.171 152.143 94.1767 155.04 89.0195 160.197L89.012 160.204C83.8309 155.175 76.8791 152.387 69.6586 152.44C62.4381 152.494 55.5285 155.386 50.4227 160.491C45.3169 165.596 42.4248 172.504 42.3711 179.724C42.3175 186.943 45.1067 193.894 50.1361 199.074L50.1286 199.082L89.0195 237.967L127.91 199.082C130.464 196.529 132.49 193.497 133.872 190.161C135.254 186.826 135.965 183.25 135.965 179.639C135.965 176.028 135.254 172.453 133.872 169.117C132.49 165.781 130.464 162.75 127.91 160.197V160.197Z" fill="#FF6584"/>
<path d="M245.596 315.58H41.5627C41.3073 315.583 41.0521 315.563 40.8003 315.519L137.298 148.395C137.887 147.355 138.742 146.489 139.775 145.886C140.808 145.284 141.983 144.966 143.179 144.966C144.375 144.966 145.55 145.284 146.583 145.886C147.616 146.489 148.471 147.355 149.06 148.395L213.822 260.549L216.925 265.915L245.596 315.58Z" fill="#F9A826"/>
<path opacity="0.2" d="M245.596 315.58H175.934L210.131 265.915L212.592 262.337L213.822 260.549L216.925 265.915L245.596 315.58Z" fill="black"/>
<path d="M359.2 315.391H182.728L216.925 265.727L219.386 262.149L263.947 197.426C266.869 193.185 273.897 192.92 277.331 196.626C277.562 196.879 277.776 197.146 277.973 197.426L359.2 315.391Z" fill="#3F3D56"/>
<path d="M385 314.947H15V315.88H385V314.947Z" fill="#3F3D56"/>
<path d="M189.052 304.714C195.992 302.026 200.934 298.081 200.09 295.902C199.246 293.724 192.935 294.137 185.996 296.825C179.056 299.513 174.114 303.459 174.958 305.637C175.802 307.815 182.112 307.402 189.052 304.714Z" fill="#2F2E41"/>
<path d="M160.529 331.402C175.414 331.402 187.481 319.337 187.481 304.455C187.481 289.572 175.414 277.507 160.529 277.507C145.644 277.507 133.577 289.572 133.577 304.455C133.577 319.337 145.644 331.402 160.529 331.402Z" fill="#2F2E41"/>
<path d="M156.435 325.603H148.247V340.271H156.435V325.603Z" fill="#2F2E41"/>
<path d="M172.811 325.603H164.623V340.271H172.811V325.603Z" fill="#2F2E41"/>
<path d="M155.071 343C158.839 343 161.894 341.855 161.894 340.442C161.894 339.029 158.839 337.883 155.071 337.883C151.302 337.883 148.247 339.029 148.247 340.442C148.247 341.855 151.302 343 155.071 343Z" fill="#2F2E41"/>
<path d="M171.446 342.659C175.215 342.659 178.269 341.513 178.269 340.101C178.269 338.688 175.215 337.542 171.446 337.542C167.678 337.542 164.623 338.688 164.623 340.101C164.623 341.513 167.678 342.659 171.446 342.659Z" fill="#2F2E41"/>
<path d="M161.211 306.842C166.299 306.842 170.423 302.719 170.423 297.633C170.423 292.546 166.299 288.423 161.211 288.423C156.124 288.423 152 292.546 152 297.633C152 302.719 156.124 306.842 161.211 306.842Z" fill="white"/>
<path d="M161.211 300.702C162.907 300.702 164.282 299.328 164.282 297.632C164.282 295.937 162.907 294.562 161.211 294.562C159.516 294.562 158.141 295.937 158.141 297.632C158.141 299.328 159.516 300.702 161.211 300.702Z" fill="#3F3D56"/>
<path d="M134.385 279.394C132.209 269.65 139.165 259.803 149.923 257.401C160.68 255 171.165 260.952 173.341 270.697C175.518 280.442 168.388 284.036 157.631 286.437C146.873 288.839 136.561 289.139 134.385 279.394Z" fill="#E6E6E6"/>
<path d="M136.497 310.773C141.76 305.511 144.687 299.906 143.035 298.254C141.383 296.603 135.777 299.529 130.514 304.791C125.252 310.053 122.325 315.657 123.977 317.309C125.629 318.961 131.235 316.035 136.497 310.773Z" fill="#2F2E41"/>
<path d="M147.291 314.176C147.291 316.814 154.083 322.022 161.619 322.022C169.156 322.022 176.222 314.597 176.222 311.959C176.222 309.322 169.156 312.471 161.619 312.471C154.083 312.471 147.291 311.539 147.291 314.176Z" fill="white"/>
<path d="M222.542 305.637C223.386 303.459 218.445 299.513 211.505 296.825C204.565 294.137 198.255 293.724 197.411 295.902C196.567 298.081 201.508 302.026 208.448 304.714C215.388 307.402 221.698 307.815 222.542 305.637Z" fill="#2F2E41"/>
<path d="M236.971 331.402C251.856 331.402 263.923 319.337 263.923 304.455C263.923 289.572 251.856 277.507 236.971 277.507C222.086 277.507 210.019 289.572 210.019 304.455C210.019 319.337 222.086 331.402 236.971 331.402Z" fill="#2F2E41"/>
<path d="M241.065 340.271H249.253V325.603H241.065V340.271Z" fill="#2F2E41"/>
<path d="M224.689 340.271H232.877V325.603H224.689V340.271Z" fill="#2F2E41"/>
<path d="M242.429 343C246.198 343 249.253 341.855 249.253 340.442C249.253 339.029 246.198 337.883 242.429 337.883C238.661 337.883 235.606 339.029 235.606 340.442C235.606 341.855 238.661 343 242.429 343Z" fill="#2F2E41"/>
<path d="M226.054 342.659C229.822 342.659 232.877 341.513 232.877 340.101C232.877 338.688 229.822 337.542 226.054 337.542C222.286 337.542 219.231 338.688 219.231 340.101C219.231 341.513 222.286 342.659 226.054 342.659Z" fill="#2F2E41"/>
<path d="M236.288 306.842C241.376 306.842 245.5 302.719 245.5 297.633C245.5 292.546 241.376 288.423 236.288 288.423C231.201 288.423 227.077 292.546 227.077 297.633C227.077 302.719 231.201 306.842 236.288 306.842Z" fill="white"/>
<path d="M236.289 300.702C237.984 300.702 239.359 299.328 239.359 297.632C239.359 295.937 237.984 294.562 236.289 294.562C234.593 294.562 233.218 295.937 233.218 297.632C233.218 299.328 234.593 300.702 236.289 300.702Z" fill="#3F3D56"/>
<path d="M263.115 279.394C265.291 269.65 258.334 259.803 247.577 257.401C236.819 255 226.335 260.952 224.158 270.697C221.982 280.442 229.112 284.036 239.869 286.437C250.627 288.839 260.938 289.139 263.115 279.394Z" fill="#F9A826"/>
<path d="M273.523 317.309C275.175 315.657 272.248 310.053 266.986 304.791C261.723 299.529 256.117 296.603 254.465 298.254C252.813 299.906 255.74 305.511 261.003 310.773C266.265 316.035 271.871 318.961 273.523 317.309Z" fill="#2F2E41"/>
<path d="M250.209 314.176C250.209 316.814 243.417 322.022 235.881 322.022C228.344 322.022 221.278 314.597 221.278 311.959C221.278 309.322 228.344 312.471 235.881 312.471C243.417 312.471 250.209 311.539 250.209 314.176Z" fill="white"/>
<path d="M385 276.173C385 293.588 374.646 299.668 361.873 299.668C349.101 299.668 338.746 293.588 338.746 276.173C338.746 258.759 361.873 236.605 361.873 236.605C361.873 236.605 385 258.759 385 276.173Z" fill="#E6E6E6"/>
<path d="M361.031 297.004L361.267 282.43L371.125 264.399L361.305 280.144L361.411 273.59L368.205 260.545L361.439 271.856L361.631 260.07L368.905 249.684L361.661 258.217L361.78 236.605L361.029 265.215L361.09 264.035L353.694 252.715L360.972 266.3L360.282 279.464L360.262 279.114L351.736 267.202L360.236 280.349L360.15 281.995L360.135 282.02L360.142 282.155L358.393 315.551H360.73L361.01 298.301L369.49 285.187L361.031 297.004Z" fill="#3F3D56"/>
</g>
<defs>
<clipPath id="clip0">
<rect width="370" height="198" fill="white" transform="translate(15 145)"/>
</clipPath>
</defs>
</svg>
